<svg id="visual" viewBox="0 0 900 600" width="900" height="600" xmlns="http://www.w3.org/2000/svg" xmlns:xlink="http://www.w3.org/1999/xlink" version="1.1"><path d="M0 67L21.5 63C43 59 86 51 128.8 51C171.7 51 214.3 59 257.2 61C300 63 343 59 385.8 60C428.7 61 471.3 67 514.2 70C557 73 600 73 642.8 71C685.7 69 728.3 65 771.2 62C814 59 857 57 878.5 56L900 55L900 0L878.5 0C857 0 814 0 771.2 0C728.3 0 685.7 0 642.8 0C600 0 557 0 514.2 0C471.3 0 428.7 0 385.8 0C343 0 300 0 257.2 0C214.3 0 171.7 0 128.8 0C86 0 43 0 21.5 0L0 0Z" fill="#0c3255"></path><path d="M0 217L21.5 215C43 213 86 209 128.8 209C171.7 209 214.3 213 257.2 217C300 221 343 225 385.8 235C428.7 245 471.3 261 514.2 260C557 259 600 241 642.8 228C685.7 215 728.3 207 771.2 208C814 209 857 219 878.5 224L900 229L900 53L878.5 54C857 55 814 57 771.2 60C728.3 63 685.7 67 642.8 69C600 71 557 71 514.2 68C471.3 65 428.7 59 385.8 58C343 57 300 61 257.2 59C214.3 57 171.7 49 128.8 49C86 49 43 57 21.5 61L0 65Z" fill="#0c2a4a"></path><path d="M0 301L21.5 294C43 287 86 273 128.8 272C171.7 271 214.3 283 257.2 290C300 297 343 299 385.8 306C428.7 313 471.3 325 514.2 322C557 319 600 301 642.8 290C685.7 279 728.3 275 771.2 275C814 275 857 279 878.5 281L900 283L900 227L878.5 222C857 217 814 207 771.2 206C728.3 205 685.7 213 642.8 226C600 239 557 257 514.2 258C471.3 259 428.7 243 385.8 233C343 223 300 219 257.2 215C214.3 211 171.7 207 128.8 207C86 207 43 211 21.5 213L0 215Z" fill="#0b233e"></path><path d="M0 367L21.5 359C43 351 86 335 128.8 331C171.7 327 214.3 335 257.2 343C300 351 343 359 385.8 365C428.7 371 471.3 375 514.2 371C557 367 600 355 642.8 347C685.7 339 728.3 335 771.2 335C814 335 857 339 878.5 341L900 343L900 281L878.5 279C857 277 814 273 771.2 273C728.3 273 685.7 277 642.8 288C600 299 557 317 514.2 320C471.3 323 428.7 311 385.8 304C343 297 300 295 257.2 288C214.3 281 171.7 269 128.8 270C86 271 43 285 21.5 292L0 299Z" fill="#091b34"></path><path d="M0 451L21.5 446C43 441 86 431 128.8 425C171.7 419 214.3 417 257.2 421C300 425 343 435 385.8 444C428.7 453 471.3 461 514.2 464C557 467 600 465 642.8 461C685.7 457 728.3 451 771.2 452C814 453 857 461 878.5 465L900 469L900 341L878.5 339C857 337 814 333 771.2 333C728.3 333 685.7 337 642.8 345C600 353 557 365 514.2 369C471.3 373 428.7 369 385.8 363C343 357 300 349 257.2 341C214.3 333 171.7 325 128.8 329C86 333 43 349 21.5 357L0 365Z" fill="#071429"></path><path d="M0 601L21.5 601C43 601 86 601 128.8 601C171.7 601 214.3 601 257.2 601C300 601 343 601 385.8 601C428.7 601 471.3 601 514.2 601C557 601 600 601 642.8 601C685.7 601 728.3 601 771.2 601C814 601 857 601 878.5 601L900 601L900 467L878.5 463C857 459 814 451 771.2 450C728.3 449 685.7 455 642.8 459C600 463 557 465 514.2 462C471.3 459 428.7 451 385.8 442C343 433 300 423 257.2 419C214.3 415 171.7 417 128.8 423C86 429 43 439 21.5 444L0 449Z" fill="#01091f"></path></svg>