<svg id="svg" version="1.1" xmlns="http://www.w3.org/2000/svg" xmlns:xlink="http://www.w3.org/1999/xlink" width="400" height="400" viewBox="0, 0, 400,400"><g id="svgg"><path id="path0" d="M182.800 68.624 C 182.800 69.737,182.956 70.351,183.200 70.200 C 183.420 70.064,183.600 69.243,183.600 68.376 C 183.600 67.509,183.420 66.800,183.200 66.800 C 182.980 66.800,182.800 67.621,182.800 68.624 M169.200 79.400 C 169.200 79.730,169.380 80.000,169.600 80.000 C 169.820 80.000,170.000 79.730,170.000 79.400 C 170.000 79.070,169.820 78.800,169.600 78.800 C 169.380 78.800,169.200 79.070,169.200 79.400 M168.400 82.600 C 168.400 82.930,168.580 83.200,168.800 83.200 C 169.020 83.200,169.200 82.930,169.200 82.600 C 169.200 82.270,169.020 82.000,168.800 82.000 C 168.580 82.000,168.400 82.270,168.400 82.600 M171.600 107.000 C 171.600 107.330,171.780 107.600,172.000 107.600 C 172.220 107.600,172.400 107.330,172.400 107.000 C 172.400 106.670,172.220 106.400,172.000 106.400 C 171.780 106.400,171.600 106.670,171.600 107.000 M173.200 111.000 C 173.200 111.330,173.380 111.600,173.600 111.600 C 173.820 111.600,174.000 111.330,174.000 111.000 C 174.000 110.670,173.820 110.400,173.600 110.400 C 173.380 110.400,173.200 110.670,173.200 111.000 M179.600 126.200 C 179.600 126.530,179.780 126.800,180.000 126.800 C 180.220 126.800,180.400 126.530,180.400 126.200 C 180.400 125.870,180.220 125.600,180.000 125.600 C 179.780 125.600,179.600 125.870,179.600 126.200 M146.800 132.600 C 146.800 132.930,146.980 133.200,147.200 133.200 C 147.420 133.200,147.600 132.930,147.600 132.600 C 147.600 132.270,147.420 132.000,147.200 132.000 C 146.980 132.000,146.800 132.270,146.800 132.600 M182.800 134.200 C 182.800 134.530,182.980 134.800,183.200 134.800 C 183.420 134.800,183.600 134.530,183.600 134.200 C 183.600 133.870,183.420 133.600,183.200 133.600 C 182.980 133.600,182.800 133.870,182.800 134.200 M210.800 135.000 C 210.800 135.550,210.980 136.000,211.200 136.000 C 211.420 136.000,211.600 135.550,211.600 135.000 C 211.600 134.450,211.420 134.000,211.200 134.000 C 210.980 134.000,210.800 134.450,210.800 135.000 M210.800 143.176 C 210.800 143.849,210.980 144.400,211.200 144.400 C 211.420 144.400,211.600 143.961,211.600 143.424 C 211.600 142.887,211.420 142.336,211.200 142.200 C 210.967 142.056,210.800 142.463,210.800 143.176 M188.400 151.800 C 188.400 152.130,188.580 152.400,188.800 152.400 C 189.020 152.400,189.200 152.130,189.200 151.800 C 189.200 151.470,189.020 151.200,188.800 151.200 C 188.580 151.200,188.400 151.470,188.400 151.800 M174.000 154.400 C 174.000 155.060,174.180 155.600,174.400 155.600 C 174.620 155.600,174.800 155.060,174.800 154.400 C 174.800 153.740,174.620 153.200,174.400 153.200 C 174.180 153.200,174.000 153.740,174.000 154.400 M208.400 155.000 C 208.400 155.330,208.580 155.600,208.800 155.600 C 209.020 155.600,209.200 155.330,209.200 155.000 C 209.200 154.670,209.020 154.400,208.800 154.400 C 208.580 154.400,208.400 154.670,208.400 155.000 M189.200 155.800 C 189.200 156.130,189.380 156.400,189.600 156.400 C 189.820 156.400,190.000 156.130,190.000 155.800 C 190.000 155.470,189.820 155.200,189.600 155.200 C 189.380 155.200,189.200 155.470,189.200 155.800 M190.000 161.200 C 190.000 161.640,190.180 162.000,190.400 162.000 C 190.620 162.000,190.800 161.640,190.800 161.200 C 190.800 160.760,190.620 160.400,190.400 160.400 C 190.180 160.400,190.000 160.760,190.000 161.200 M173.200 162.200 C 173.200 162.530,173.380 162.800,173.600 162.800 C 173.820 162.800,174.000 162.530,174.000 162.200 C 174.000 161.870,173.820 161.600,173.600 161.600 C 173.380 161.600,173.200 161.870,173.200 162.200 M158.800 165.400 C 158.800 165.730,158.980 166.000,159.200 166.000 C 159.420 166.000,159.600 165.730,159.600 165.400 C 159.600 165.070,159.420 164.800,159.200 164.800 C 158.980 164.800,158.800 165.070,158.800 165.400 M172.400 165.400 C 172.400 165.730,172.580 166.000,172.800 166.000 C 173.020 166.000,173.200 165.730,173.200 165.400 C 173.200 165.070,173.020 164.800,172.800 164.800 C 172.580 164.800,172.400 165.070,172.400 165.400 M159.600 171.000 C 159.600 171.330,159.780 171.600,160.000 171.600 C 160.220 171.600,160.400 171.330,160.400 171.000 C 160.400 170.670,160.220 170.400,160.000 170.400 C 159.780 170.400,159.600 170.670,159.600 171.000 M190.000 171.400 C 190.000 171.730,190.180 172.000,190.400 172.000 C 190.620 172.000,190.800 171.730,190.800 171.400 C 190.800 171.070,190.620 170.800,190.400 170.800 C 190.180 170.800,190.000 171.070,190.000 171.400 M159.600 175.176 C 159.600 175.823,159.780 176.464,160.000 176.600 C 160.238 176.747,160.400 176.271,160.400 175.424 C 160.400 174.641,160.220 174.000,160.000 174.000 C 159.780 174.000,159.600 174.529,159.600 175.176 M158.800 180.200 C 158.800 180.530,158.980 180.800,159.200 180.800 C 159.420 180.800,159.600 180.530,159.600 180.200 C 159.600 179.870,159.420 179.600,159.200 179.600 C 158.980 179.600,158.800 179.870,158.800 180.200 M156.533 186.400 C 156.533 187.297,156.719 187.600,157.267 187.600 C 157.670 187.600,158.000 187.420,158.000 187.200 C 158.000 186.980,157.820 186.800,157.600 186.800 C 157.380 186.800,157.200 186.440,157.200 186.000 C 157.200 185.560,157.050 185.200,156.867 185.200 C 156.683 185.200,156.533 185.740,156.533 186.400 M187.192 185.810 C 186.501 186.643,187.011 187.047,187.781 186.276 C 188.121 185.936,188.400 185.554,188.400 185.429 C 188.400 184.984,187.691 185.208,187.192 185.810 M184.400 186.800 C 184.400 187.333,184.667 187.600,185.200 187.600 C 186.107 187.600,186.225 187.185,185.520 186.480 C 184.815 185.775,184.400 185.893,184.400 186.800 M70.800 198.800 C 70.800 202.267,70.952 204.400,71.200 204.400 C 71.437 204.400,71.600 205.867,71.600 208.000 C 71.600 210.133,71.763 211.600,72.000 211.600 C 72.229 211.600,72.400 212.800,72.400 214.400 C 72.400 216.000,72.571 217.200,72.800 217.200 C 73.022 217.200,73.200 218.267,73.200 219.600 C 73.200 220.933,73.378 222.000,73.600 222.000 C 73.820 222.000,74.000 222.900,74.000 224.000 C 74.000 225.100,74.180 226.000,74.400 226.000 C 74.620 226.000,74.800 226.900,74.800 228.000 C 74.800 229.100,74.980 230.000,75.200 230.000 C 75.420 230.000,75.600 230.720,75.600 231.600 C 75.600 232.480,75.780 233.200,76.000 233.200 C 76.220 233.200,76.400 233.920,76.400 234.800 C 76.400 235.680,76.580 236.400,76.800 236.400 C 77.020 236.400,77.200 237.120,77.200 238.000 C 77.200 238.880,77.380 239.600,77.600 239.600 C 77.820 239.600,78.000 240.320,78.000 241.200 C 78.000 242.080,78.180 242.800,78.400 242.800 C 78.620 242.800,78.800 243.340,78.800 244.000 C 78.800 244.660,78.980 245.200,79.200 245.200 C 79.420 245.200,79.600 245.740,79.600 246.400 C 79.600 247.060,79.780 247.600,80.000 247.600 C 80.220 247.600,80.400 248.140,80.400 248.800 C 80.400 249.460,80.580 250.000,80.800 250.000 C 81.020 250.000,81.200 250.540,81.200 251.200 C 81.200 251.860,81.380 252.400,81.600 252.400 C 81.820 252.400,82.000 252.940,82.000 253.600 C 82.000 254.260,82.180 254.800,82.400 254.800 C 82.620 254.800,82.800 255.340,82.800 256.000 C 82.800 256.660,82.980 257.200,83.200 257.200 C 83.420 257.200,83.600 257.560,83.600 258.000 C 83.600 258.440,83.780 258.800,84.000 258.800 C 84.220 258.800,84.400 259.340,84.400 260.000 C 84.400 260.660,84.580 261.200,84.800 261.200 C 85.020 261.200,85.200 261.560,85.200 262.000 C 85.200 262.440,85.380 262.800,85.600 262.800 C 85.820 262.800,86.000 263.340,86.000 264.000 C 86.000 264.660,86.180 265.200,86.400 265.200 C 86.620 265.200,86.800 265.560,86.800 266.000 C 86.800 266.440,86.980 266.800,87.200 266.800 C 87.420 266.800,87.600 267.160,87.600 267.600 C 87.600 268.040,87.780 268.400,88.000 268.400 C 88.220 268.400,88.400 268.760,88.400 269.200 C 88.400 269.640,88.580 270.000,88.800 270.000 C 89.020 270.000,89.200 270.360,89.200 270.800 C 89.200 271.240,89.380 271.600,89.600 271.600 C 89.820 271.600,90.000 271.960,90.000 272.400 C 90.000 272.840,90.180 273.200,90.400 273.200 C 90.620 273.200,90.800 273.560,90.800 274.000 C 90.800 274.440,90.980 274.800,91.200 274.800 C 91.420 274.800,91.600 275.160,91.600 275.600 C 91.600 276.040,91.780 276.400,92.000 276.400 C 92.220 276.400,92.400 276.760,92.400 277.200 C 92.400 277.640,92.580 278.000,92.800 278.000 C 93.020 278.000,93.200 278.320,93.200 278.712 C 93.200 279.103,93.560 279.683,94.000 280.000 C 94.440 280.317,94.800 280.897,94.800 281.288 C 94.800 281.680,94.980 282.000,95.200 282.000 C 95.420 282.000,95.600 282.360,95.600 282.800 C 95.600 283.240,95.780 283.600,96.000 283.600 C 96.220 283.600,96.400 283.920,96.400 284.312 C 96.400 284.703,96.760 285.283,97.200 285.600 C 97.640 285.917,98.000 286.457,98.000 286.800 C 98.000 287.143,98.360 287.683,98.800 288.000 C 99.240 288.317,99.600 288.857,99.600 289.200 C 99.600 289.543,99.960 290.083,100.400 290.400 C 100.840 290.717,101.200 291.225,101.200 291.528 C 101.200 291.831,101.740 292.583,102.400 293.200 C 103.060 293.817,103.600 294.537,103.600 294.800 C 103.600 295.063,104.140 295.783,104.800 296.400 C 105.460 297.017,106.000 297.730,106.000 297.986 C 106.000 298.242,106.900 299.329,108.000 300.400 C 109.100 301.471,110.000 302.545,110.000 302.787 C 110.000 303.028,111.980 305.194,114.400 307.600 C 116.820 310.006,118.800 312.070,118.800 312.187 C 118.800 312.304,105.480 312.400,89.200 312.400 L 59.600 312.400 59.600 314.800 C 59.600 316.133,59.778 317.200,60.000 317.200 C 60.220 317.200,60.400 317.560,60.400 318.000 C 60.400 318.440,60.580 318.800,60.800 318.800 C 61.020 318.800,61.200 319.160,61.200 319.600 C 61.200 320.040,61.380 320.400,61.600 320.400 C 61.820 320.400,62.000 320.672,62.000 321.005 C 62.000 321.670,70.145 330.000,70.795 330.000 C 71.018 330.000,71.200 329.728,71.200 329.396 C 71.200 328.859,83.110 328.804,178.984 328.896 C 281.244 328.995,286.793 328.964,287.272 328.300 C 287.550 327.915,288.012 327.600,288.299 327.600 C 288.937 327.600,292.400 324.198,292.400 323.571 C 292.400 323.323,292.940 322.617,293.600 322.000 C 294.260 321.383,294.800 320.591,294.800 320.240 C 294.800 319.888,294.980 319.600,295.200 319.600 C 295.420 319.600,295.600 319.240,295.600 318.800 C 295.600 318.360,295.780 318.000,296.000 318.000 C 296.220 318.000,296.400 317.460,296.400 316.800 C 296.400 316.140,296.580 315.600,296.800 315.600 C 297.020 315.600,297.200 314.880,297.200 314.000 L 297.200 312.400 267.200 312.400 C 250.700 312.400,237.200 312.305,237.200 312.189 C 237.200 312.073,239.540 309.648,242.400 306.800 C 245.260 303.952,247.600 301.423,247.600 301.180 C 247.600 300.936,248.320 300.046,249.200 299.200 C 250.080 298.354,250.800 297.454,250.800 297.200 C 250.800 296.946,251.520 296.046,252.400 295.200 C 253.280 294.354,254.000 293.418,254.000 293.120 C 254.000 292.821,254.360 292.317,254.800 292.000 C 255.240 291.683,255.600 291.143,255.600 290.800 C 255.600 290.457,255.960 289.917,256.400 289.600 C 256.840 289.283,257.200 288.743,257.200 288.400 C 257.200 288.057,257.560 287.517,258.000 287.200 C 258.440 286.883,258.800 286.343,258.800 286.000 C 258.800 285.657,259.160 285.117,259.600 284.800 C 260.040 284.483,260.400 283.980,260.400 283.683 C 260.400 282.724,261.507 282.000,262.971 282.000 C 263.757 282.000,264.400 281.820,264.400 281.600 C 264.400 281.380,265.120 281.200,266.000 281.200 C 266.880 281.200,267.600 281.020,267.600 280.800 C 267.600 280.580,268.320 280.400,269.200 280.400 C 270.080 280.400,270.800 280.220,270.800 280.000 C 270.800 279.780,271.340 279.600,272.000 279.600 C 272.660 279.600,273.200 279.420,273.200 279.200 C 273.200 278.980,273.740 278.800,274.400 278.800 C 275.060 278.800,275.600 278.620,275.600 278.400 C 275.600 278.180,276.140 278.000,276.800 278.000 C 277.460 278.000,278.000 277.820,278.000 277.600 C 278.000 277.380,278.540 277.200,279.200 277.200 C 279.860 277.200,280.400 277.020,280.400 276.800 C 280.400 276.580,280.760 276.400,281.200 276.400 C 281.640 276.400,282.000 276.220,282.000 276.000 C 282.000 275.780,282.540 275.600,283.200 275.600 C 283.860 275.600,284.400 275.420,284.400 275.200 C 284.400 274.980,284.760 274.800,285.200 274.800 C 285.640 274.800,286.000 274.620,286.000 274.400 C 286.000 274.180,286.360 274.000,286.800 274.000 C 287.240 274.000,287.600 273.820,287.600 273.600 C 287.600 273.380,287.960 273.200,288.400 273.200 C 288.840 273.200,289.200 273.020,289.200 272.800 C 289.200 272.580,289.560 272.400,290.000 272.400 C 290.440 272.400,290.800 272.220,290.800 272.000 C 290.800 271.780,291.160 271.600,291.600 271.600 C 292.040 271.600,292.400 271.420,292.400 271.200 C 292.400 270.980,292.760 270.800,293.200 270.800 C 293.640 270.800,294.000 270.620,294.000 270.400 C 294.000 270.180,294.360 270.000,294.800 270.000 C 295.240 270.000,295.600 269.820,295.600 269.600 C 295.600 269.380,295.960 269.200,296.400 269.200 C 296.840 269.200,297.200 269.020,297.200 268.800 C 297.200 268.580,297.520 268.400,297.912 268.400 C 298.303 268.400,298.883 268.040,299.200 267.600 C 299.517 267.160,300.057 266.800,300.400 266.800 C 300.743 266.800,301.283 266.440,301.600 266.000 C 301.917 265.560,302.457 265.200,302.800 265.200 C 303.143 265.200,303.683 264.840,304.000 264.400 C 304.317 263.960,304.857 263.600,305.200 263.600 C 305.543 263.600,306.083 263.240,306.400 262.800 C 306.717 262.360,307.221 262.000,307.520 262.000 C 307.818 262.000,308.754 261.280,309.600 260.400 C 310.446 259.520,311.341 258.800,311.591 258.800 C 311.840 258.800,313.104 257.720,314.400 256.400 C 315.696 255.080,316.950 254.000,317.188 254.000 C 317.754 254.000,321.200 250.551,321.200 249.985 C 321.200 249.744,322.100 248.671,323.200 247.600 C 324.300 246.529,325.200 245.442,325.200 245.186 C 325.200 244.930,325.740 244.217,326.400 243.600 C 327.060 242.983,327.600 242.231,327.600 241.928 C 327.600 241.625,327.960 241.117,328.400 240.800 C 328.840 240.483,329.200 239.903,329.200 239.512 C 329.200 239.120,329.380 238.800,329.600 238.800 C 329.820 238.800,330.000 238.440,330.000 238.000 C 330.000 237.560,330.180 237.200,330.400 237.200 C 330.620 237.200,330.800 236.840,330.800 236.400 C 330.800 235.960,330.980 235.600,331.200 235.600 C 331.420 235.600,331.600 235.240,331.600 234.800 C 331.600 234.360,331.780 234.000,332.000 234.000 C 332.220 234.000,332.400 233.640,332.400 233.200 C 332.400 232.760,332.580 232.400,332.800 232.400 C 333.020 232.400,333.200 231.680,333.200 230.800 C 333.200 229.920,333.380 229.200,333.600 229.200 C 333.820 229.200,334.000 228.300,334.000 227.200 C 334.000 226.100,334.180 225.200,334.400 225.200 C 334.633 225.200,334.800 223.867,334.800 222.000 C 334.800 220.133,334.633 218.800,334.400 218.800 C 334.180 218.800,334.000 217.900,334.000 216.800 C 334.000 215.700,333.820 214.800,333.600 214.800 C 333.380 214.800,333.200 214.440,333.200 214.000 C 333.200 213.560,333.020 213.200,332.800 213.200 C 332.580 213.200,332.400 212.660,332.400 212.000 C 332.400 211.340,332.220 210.800,332.000 210.800 C 331.780 210.800,331.600 210.480,331.600 210.088 C 331.600 209.697,331.240 209.117,330.800 208.800 C 330.360 208.483,330.000 207.989,330.000 207.703 C 330.000 207.025,325.775 202.800,325.097 202.800 C 324.811 202.800,324.317 202.440,324.000 202.000 C 323.683 201.560,323.103 201.200,322.712 201.200 C 322.320 201.200,322.000 201.020,322.000 200.800 C 322.000 200.580,321.640 200.400,321.200 200.400 C 320.760 200.400,320.400 200.220,320.400 200.000 C 320.400 199.780,319.680 199.600,318.800 199.600 C 317.920 199.600,317.200 199.420,317.200 199.200 C 317.200 198.947,314.400 198.800,309.600 198.800 C 304.800 198.800,302.000 198.947,302.000 199.200 C 302.000 199.422,300.933 199.600,299.600 199.600 C 298.267 199.600,297.200 199.778,297.200 200.000 C 297.200 200.220,296.660 200.400,296.000 200.400 C 295.340 200.400,294.800 200.580,294.800 200.800 C 294.800 201.020,294.260 201.200,293.600 201.200 C 292.940 201.200,292.400 201.380,292.400 201.600 C 292.400 201.820,291.860 202.000,291.200 202.000 C 290.540 202.000,290.000 202.180,290.000 202.400 C 290.000 202.620,289.460 202.800,288.800 202.800 C 288.140 202.800,287.600 202.980,287.600 203.200 C 287.600 203.420,287.240 203.600,286.800 203.600 C 286.360 203.600,286.000 203.780,286.000 204.000 C 286.000 204.220,285.820 204.400,285.600 204.400 C 285.352 204.400,285.200 202.267,285.200 198.800 L 285.200 193.200 178.000 193.200 L 70.800 193.200 70.800 198.800 M305.200 213.600 C 305.200 213.820,305.920 214.000,306.800 214.000 C 307.680 214.000,308.400 214.180,308.400 214.400 C 308.400 214.620,308.720 214.800,309.112 214.800 C 309.503 214.800,310.083 215.160,310.400 215.600 C 310.717 216.040,311.215 216.400,311.506 216.400 C 312.193 216.400,314.000 218.207,314.000 218.894 C 314.000 219.185,314.360 219.683,314.800 220.000 C 315.240 220.317,315.600 220.897,315.600 221.288 C 315.600 221.680,315.780 222.000,316.000 222.000 C 316.233 222.000,316.400 223.333,316.400 225.200 C 316.400 227.067,316.233 228.400,316.000 228.400 C 315.780 228.400,315.600 228.760,315.600 229.200 C 315.600 229.640,315.420 230.000,315.200 230.000 C 314.980 230.000,314.800 230.360,314.800 230.800 C 314.800 231.240,314.620 231.600,314.400 231.600 C 314.180 231.600,314.000 231.960,314.000 232.400 C 314.000 232.840,313.820 233.200,313.600 233.200 C 313.380 233.200,313.200 233.520,313.200 233.912 C 313.200 234.303,312.840 234.883,312.400 235.200 C 311.960 235.517,311.600 236.015,311.600 236.305 C 311.600 236.596,310.160 238.259,308.400 240.000 C 306.640 241.741,305.200 243.366,305.200 243.611 C 305.200 244.187,304.187 245.200,303.611 245.200 C 303.366 245.200,301.741 246.640,300.000 248.400 C 298.259 250.160,296.635 251.600,296.391 251.600 C 296.147 251.600,295.071 252.500,294.000 253.600 C 292.929 254.700,291.842 255.600,291.586 255.600 C 291.330 255.600,290.617 256.140,290.000 256.800 C 289.383 257.460,288.663 258.000,288.400 258.000 C 288.137 258.000,287.417 258.540,286.800 259.200 C 286.183 259.860,285.431 260.400,285.128 260.400 C 284.825 260.400,284.317 260.760,284.000 261.200 C 283.683 261.640,283.175 262.000,282.872 262.000 C 282.569 262.000,281.817 262.540,281.200 263.200 C 280.583 263.860,279.831 264.400,279.528 264.400 C 279.225 264.400,278.717 264.760,278.400 265.200 C 278.083 265.640,277.543 266.000,277.200 266.000 C 276.857 266.000,276.317 266.360,276.000 266.800 C 275.683 267.240,275.143 267.600,274.800 267.600 C 274.457 267.600,273.917 267.960,273.600 268.400 C 273.283 268.840,272.743 269.200,272.400 269.200 C 272.057 269.200,271.517 269.560,271.200 270.000 C 270.883 270.440,270.343 270.800,270.000 270.800 C 269.657 270.800,269.117 271.160,268.800 271.600 C 268.483 272.040,267.903 272.400,267.512 272.400 C 267.120 272.400,266.800 272.580,266.800 272.800 C 266.800 273.020,266.620 273.200,266.400 273.200 C 266.180 273.200,266.000 272.840,266.000 272.400 C 266.000 271.960,266.180 271.600,266.400 271.600 C 266.620 271.600,266.800 271.240,266.800 270.800 C 266.800 270.360,266.980 270.000,267.200 270.000 C 267.420 270.000,267.600 269.640,267.600 269.200 C 267.600 268.760,267.780 268.400,268.000 268.400 C 268.220 268.400,268.400 268.040,268.400 267.600 C 268.400 267.160,268.580 266.800,268.800 266.800 C 269.020 266.800,269.200 266.440,269.200 266.000 C 269.200 265.560,269.380 265.200,269.600 265.200 C 269.820 265.200,270.000 264.660,270.000 264.000 C 270.000 263.340,270.180 262.800,270.400 262.800 C 270.620 262.800,270.800 262.440,270.800 262.000 C 270.800 261.560,270.980 261.200,271.200 261.200 C 271.420 261.200,271.600 260.840,271.600 260.400 C 271.600 259.960,271.780 259.600,272.000 259.600 C 272.220 259.600,272.400 259.060,272.400 258.400 C 272.400 257.740,272.580 257.200,272.800 257.200 C 273.020 257.200,273.200 256.660,273.200 256.000 C 273.200 255.340,273.380 254.800,273.600 254.800 C 273.820 254.800,274.000 254.440,274.000 254.000 C 274.000 253.560,274.180 253.200,274.400 253.200 C 274.620 253.200,274.800 252.660,274.800 252.000 C 274.800 251.340,274.980 250.800,275.200 250.800 C 275.420 250.800,275.600 250.260,275.600 249.600 C 275.600 248.940,275.780 248.400,276.000 248.400 C 276.220 248.400,276.400 247.860,276.400 247.200 C 276.400 246.540,276.580 246.000,276.800 246.000 C 277.020 246.000,277.200 245.280,277.200 244.400 C 277.200 243.520,277.380 242.800,277.600 242.800 C 277.820 242.800,278.000 242.260,278.000 241.600 C 278.000 240.940,278.180 240.400,278.400 240.400 C 278.620 240.400,278.800 239.680,278.800 238.800 C 278.800 237.920,278.980 237.200,279.200 237.200 C 279.420 237.200,279.600 236.480,279.600 235.600 C 279.600 234.720,279.780 234.000,280.000 234.000 C 280.220 234.000,280.400 233.280,280.400 232.400 C 280.400 231.520,280.580 230.800,280.800 230.800 C 281.020 230.800,281.200 229.900,281.200 228.800 C 281.200 227.700,281.380 226.800,281.600 226.800 C 281.820 226.800,282.000 225.982,282.000 224.982 C 282.000 223.116,283.263 221.200,284.494 221.200 C 284.785 221.200,285.283 220.840,285.600 220.400 C 285.917 219.960,286.457 219.600,286.800 219.600 C 287.143 219.600,287.683 219.240,288.000 218.800 C 288.317 218.360,288.897 218.000,289.288 218.000 C 289.680 218.000,290.000 217.820,290.000 217.600 C 290.000 217.380,290.360 217.200,290.800 217.200 C 291.240 217.200,291.600 217.020,291.600 216.800 C 291.600 216.580,291.960 216.400,292.400 216.400 C 292.840 216.400,293.200 216.220,293.200 216.000 C 293.200 215.780,293.560 215.600,294.000 215.600 C 294.440 215.600,294.800 215.420,294.800 215.200 C 294.800 214.980,295.160 214.800,295.600 214.800 C 296.040 214.800,296.400 214.620,296.400 214.400 C 296.400 214.178,297.467 214.000,298.800 214.000 C 300.133 214.000,301.200 213.822,301.200 213.600 C 301.200 213.380,302.100 213.200,303.200 213.200 C 304.300 213.200,305.200 213.380,305.200 213.600 M284.256 329.878 C 283.805 330.328,283.981 330.800,284.600 330.800 C 284.930 330.800,285.200 330.631,285.200 330.424 C 285.200 329.919,284.575 329.558,284.256 329.878 M72.656 330.678 C 72.205 331.128,72.381 331.600,73.000 331.600 C 73.330 331.600,73.600 331.431,73.600 331.224 C 73.600 330.719,72.975 330.358,72.656 330.678 M281.856 331.478 C 281.405 331.928,281.581 332.400,282.200 332.400 C 282.530 332.400,282.800 332.231,282.800 332.024 C 282.800 331.519,282.175 331.158,281.856 331.478 M74.800 332.600 C 74.800 332.930,75.070 333.200,75.400 333.200 C 75.730 333.200,76.000 332.930,76.000 332.600 C 76.000 332.270,75.730 332.000,75.400 332.000 C 75.070 332.000,74.800 332.270,74.800 332.600 M76.656 333.078 C 76.205 333.528,76.381 334.000,77.000 334.000 C 77.330 334.000,77.600 333.831,77.600 333.624 C 77.600 333.119,76.975 332.758,76.656 333.078 M78.256 333.878 C 77.805 334.328,77.981 334.800,78.600 334.800 C 78.930 334.800,79.200 334.631,79.200 334.424 C 79.200 333.919,78.575 333.558,78.256 333.878 M79.867 334.667 C 79.406 335.127,79.575 335.600,80.200 335.600 C 80.530 335.600,80.800 335.330,80.800 335.000 C 80.800 334.375,80.327 334.206,79.867 334.667 M81.467 335.467 C 81.006 335.927,81.175 336.400,81.800 336.400 C 82.130 336.400,82.400 336.130,82.400 335.800 C 82.400 335.175,81.927 335.006,81.467 335.467 M272.000 336.567 C 272.000 336.915,272.285 337.200,272.633 337.200 C 273.340 337.200,273.217 336.339,272.475 336.092 C 272.214 336.005,272.000 336.218,272.000 336.567 M85.456 337.078 C 85.005 337.528,85.181 338.000,85.800 338.000 C 86.130 338.000,86.400 337.831,86.400 337.624 C 86.400 337.119,85.775 336.758,85.456 337.078 M267.875 337.858 C 267.353 338.380,267.602 338.800,268.433 338.800 C 268.899 338.800,269.197 338.590,269.108 338.325 C 268.913 337.740,268.246 337.488,267.875 337.858 M87.600 338.400 C 87.600 338.620,87.870 338.800,88.200 338.800 C 88.530 338.800,88.800 338.620,88.800 338.400 C 88.800 338.180,88.530 338.000,88.200 338.000 C 87.870 338.000,87.600 338.180,87.600 338.400 M265.475 338.658 C 264.953 339.180,265.202 339.600,266.033 339.600 C 266.499 339.600,266.797 339.390,266.708 339.125 C 266.513 338.540,265.846 338.288,265.475 338.658 M90.000 339.200 C 90.000 339.420,90.270 339.600,90.600 339.600 C 90.930 339.600,91.200 339.420,91.200 339.200 C 91.200 338.980,90.930 338.800,90.600 338.800 C 90.270 338.800,90.000 338.980,90.000 339.200 M92.680 339.453 C 92.118 340.015,92.424 340.400,93.433 340.400 C 94.082 340.400,94.405 340.214,94.300 339.900 C 94.108 339.322,93.092 339.041,92.680 339.453 M262.275 339.458 C 261.753 339.980,262.002 340.400,262.833 340.400 C 263.299 340.400,263.597 340.190,263.508 339.925 C 263.313 339.340,262.646 339.088,262.275 339.458 M97.467 340.267 C 96.893 340.840,97.253 341.200,98.400 341.200 C 99.682 341.200,100.012 340.644,98.967 340.243 C 98.154 339.931,97.797 339.936,97.467 340.267 M257.300 340.258 C 256.308 340.673,256.830 341.200,258.233 341.200 C 259.201 341.200,259.613 341.038,259.502 340.700 C 259.325 340.161,258.112 339.918,257.300 340.258 " stroke="none" fill="#e0d8c5" fill-rule="evenodd"></path><path id="path1" d="M182.400 62.000 C 181.893 62.440,181.078 62.800,180.589 62.800 C 179.942 62.800,179.637 63.100,179.468 63.900 C 179.340 64.505,178.688 65.630,178.019 66.400 C 177.349 67.170,176.801 67.935,176.801 68.100 C 176.800 68.265,176.519 68.400,176.176 68.400 C 175.833 68.400,175.663 68.578,175.798 68.797 C 175.933 69.015,175.619 69.617,175.101 70.135 C 174.583 70.653,174.221 71.263,174.297 71.491 C 174.373 71.718,173.982 72.018,173.428 72.157 C 172.557 72.376,172.454 72.570,172.661 73.605 C 172.813 74.365,172.736 74.800,172.450 74.800 C 172.203 74.800,172.000 75.160,172.000 75.600 C 172.000 76.049,171.733 76.400,171.392 76.400 C 170.944 76.400,170.851 76.662,171.036 77.400 C 171.214 78.112,171.125 78.400,170.724 78.400 C 170.316 78.400,170.206 78.786,170.324 79.800 C 170.446 80.845,170.337 81.200,169.893 81.200 C 169.425 81.200,169.341 81.582,169.500 82.993 C 169.660 84.405,169.564 84.839,169.051 85.036 C 168.078 85.409,168.081 93.792,169.055 94.166 C 169.587 94.370,169.665 94.790,169.474 96.408 C 169.278 98.058,169.346 98.400,169.871 98.400 C 170.372 98.400,170.457 98.694,170.277 99.800 C 170.100 100.897,170.185 101.200,170.672 101.200 C 171.116 101.200,171.240 101.480,171.106 102.180 C 170.986 102.807,171.130 103.241,171.505 103.385 C 171.883 103.530,172.024 103.963,171.901 104.605 C 171.774 105.271,171.891 105.600,172.255 105.600 C 172.566 105.600,172.800 106.019,172.800 106.576 C 172.800 107.113,172.996 107.674,173.235 107.822 C 173.474 107.969,173.581 108.430,173.472 108.845 C 173.348 109.321,173.483 109.600,173.837 109.600 C 174.328 109.600,174.597 110.350,174.447 111.300 C 174.421 111.465,174.601 111.600,174.847 111.600 C 175.107 111.600,175.214 112.016,175.102 112.600 C 174.973 113.276,175.090 113.600,175.463 113.600 C 175.852 113.600,175.941 113.895,175.764 114.600 C 175.569 115.377,175.667 115.600,176.203 115.600 C 176.720 115.600,176.846 115.846,176.706 116.580 C 176.594 117.164,176.697 117.528,176.959 117.480 C 177.202 117.436,177.386 117.805,177.368 118.300 C 177.350 118.804,177.574 119.200,177.876 119.200 C 178.251 119.200,178.339 119.504,178.164 120.200 C 177.969 120.977,178.067 121.200,178.603 121.200 C 179.124 121.200,179.246 121.446,179.102 122.200 C 178.968 122.902,179.087 123.200,179.502 123.200 C 179.896 123.200,180.024 123.466,179.884 124.000 C 179.748 124.520,179.872 124.800,180.237 124.800 C 180.547 124.800,180.822 125.070,180.850 125.400 C 180.912 126.140,180.988 126.417,181.370 127.281 C 181.535 127.655,181.554 128.150,181.412 128.381 C 181.269 128.611,181.437 128.800,181.784 128.800 C 182.258 128.800,182.353 129.050,182.164 129.800 C 181.969 130.577,182.067 130.800,182.603 130.800 C 183.124 130.800,183.246 131.046,183.102 131.800 C 182.974 132.471,183.090 132.800,183.455 132.800 C 183.766 132.800,184.000 133.219,184.000 133.776 C 184.000 134.313,184.195 134.873,184.432 135.020 C 184.670 135.167,184.757 135.718,184.625 136.244 C 184.445 136.960,184.549 137.200,185.039 137.200 C 185.518 137.200,185.643 137.463,185.506 138.180 C 185.386 138.807,185.530 139.241,185.905 139.385 C 186.279 139.529,186.424 139.963,186.305 140.585 C 186.186 141.209,186.331 141.641,186.708 141.786 C 187.126 141.947,187.228 142.358,187.059 143.203 C 186.895 144.026,186.972 144.363,187.311 144.296 C 187.614 144.237,187.789 144.657,187.772 145.400 C 187.757 146.060,188.010 146.798,188.334 147.040 C 188.745 147.347,188.848 147.862,188.672 148.740 C 188.473 149.736,188.555 150.000,189.064 150.000 C 189.598 150.000,189.666 150.309,189.462 151.800 C 189.257 153.294,189.326 153.600,189.863 153.600 C 190.412 153.600,190.471 153.933,190.252 155.800 C 190.057 157.454,190.120 158.000,190.504 158.000 C 190.902 158.000,191.014 159.769,191.008 166.000 C 191.002 172.410,190.894 174.000,190.465 174.000 C 190.064 174.000,189.996 174.393,190.194 175.564 C 190.380 176.664,190.301 177.227,189.929 177.464 C 189.638 177.649,189.400 178.250,189.400 178.800 C 189.400 179.436,189.201 179.758,188.853 179.684 C 188.453 179.600,188.374 179.843,188.560 180.584 C 188.744 181.316,188.656 181.600,188.245 181.600 C 187.872 181.600,187.747 181.876,187.884 182.400 C 188.030 182.956,187.896 183.200,187.447 183.200 C 186.707 183.200,186.584 183.819,187.242 184.226 C 187.495 184.382,189.258 182.933,191.350 180.850 C 193.366 178.842,195.338 177.200,195.733 177.200 C 196.193 177.200,196.410 176.949,196.337 176.500 C 196.189 175.588,197.617 173.200,198.310 173.200 C 198.605 173.200,198.763 173.063,198.659 172.896 C 198.365 172.419,199.310 171.346,200.302 171.031 C 200.999 170.810,201.149 170.538,200.970 169.824 C 200.781 169.071,200.934 168.853,201.806 168.634 C 202.570 168.442,202.803 168.185,202.628 167.727 C 202.309 166.899,203.239 164.800,203.925 164.800 C 204.272 164.800,204.367 164.525,204.200 164.000 C 204.017 163.423,204.128 163.200,204.600 163.200 C 205.072 163.200,205.183 162.977,205.000 162.400 C 204.824 161.847,204.928 161.600,205.336 161.600 C 205.728 161.600,205.855 161.333,205.716 160.800 C 205.576 160.266,205.704 160.000,206.098 160.000 C 206.513 160.000,206.632 159.702,206.498 159.000 C 206.354 158.246,206.476 158.000,206.997 158.000 C 207.533 158.000,207.631 157.777,207.436 157.000 C 207.261 156.304,207.349 156.000,207.723 156.000 C 208.094 156.000,208.207 155.626,208.085 154.800 C 207.950 153.878,208.063 153.600,208.573 153.600 C 209.114 153.600,209.188 153.343,208.974 152.204 C 208.772 151.127,208.859 150.752,209.354 150.562 C 209.861 150.368,209.942 149.975,209.737 148.697 C 209.531 147.409,209.623 146.972,210.189 146.558 C 210.710 146.178,210.832 145.738,210.645 144.919 C 210.330 143.542,210.336 136.068,210.654 133.560 C 210.846 132.047,210.764 131.672,210.194 131.453 C 209.635 131.239,209.548 130.884,209.748 129.635 C 209.942 128.425,209.855 128.030,209.354 127.838 C 208.864 127.650,208.772 127.272,208.966 126.242 C 209.161 125.202,209.068 124.835,208.561 124.640 C 208.070 124.452,207.963 124.084,208.141 123.194 C 208.327 122.267,208.237 122.000,207.740 122.000 C 207.242 122.000,207.153 121.733,207.340 120.800 C 207.526 119.869,207.437 119.600,206.943 119.600 C 206.483 119.600,206.359 119.328,206.494 118.620 C 206.609 118.021,206.471 117.559,206.141 117.433 C 205.843 117.318,205.600 116.870,205.600 116.436 C 205.600 116.002,205.404 115.526,205.165 115.378 C 204.926 115.231,204.819 114.770,204.928 114.355 C 205.055 113.867,204.916 113.600,204.536 113.600 C 204.128 113.600,204.024 113.353,204.200 112.800 C 204.383 112.223,204.272 112.000,203.800 112.000 C 203.328 112.000,203.217 111.777,203.400 111.200 C 203.583 110.623,203.472 110.400,203.000 110.400 C 202.528 110.400,202.417 110.177,202.600 109.600 C 202.783 109.023,202.672 108.800,202.200 108.800 C 201.728 108.800,201.617 108.577,201.800 108.000 C 201.970 107.464,201.872 107.200,201.502 107.200 C 201.198 107.200,200.702 106.570,200.400 105.800 C 200.098 105.030,199.716 104.400,199.552 104.400 C 199.182 104.400,198.609 102.778,198.739 102.100 C 198.792 101.825,198.536 101.600,198.171 101.600 C 197.707 101.600,197.569 101.362,197.712 100.814 C 197.834 100.348,197.731 100.063,197.459 100.114 C 197.190 100.164,197.031 99.744,197.075 99.101 C 197.134 98.240,196.940 97.950,196.175 97.758 C 195.639 97.623,195.200 97.263,195.200 96.957 C 195.200 96.650,195.032 96.400,194.827 96.400 C 194.398 96.400,193.797 94.842,193.939 94.100 C 193.992 93.825,193.738 93.600,193.374 93.600 C 192.871 93.600,192.772 93.364,192.962 92.609 C 193.170 91.781,193.040 91.575,192.175 91.358 C 191.327 91.145,191.182 90.927,191.375 90.158 C 191.567 89.392,191.422 89.171,190.593 88.963 C 189.822 88.769,189.634 88.524,189.815 87.954 C 189.980 87.434,189.859 87.200,189.427 87.200 C 189.082 87.200,188.800 87.010,188.800 86.779 C 188.800 86.547,188.350 85.695,187.800 84.886 C 187.250 84.077,186.800 83.006,186.800 82.507 C 186.800 81.950,186.558 81.600,186.173 81.600 C 185.741 81.600,185.620 81.366,185.785 80.847 C 185.936 80.372,185.798 80.008,185.412 79.860 C 185.075 79.731,184.800 79.270,184.800 78.836 C 184.800 78.402,184.605 77.927,184.368 77.780 C 184.130 77.633,184.043 77.082,184.175 76.556 C 184.354 75.845,184.251 75.600,183.772 75.600 C 183.244 75.600,183.178 75.315,183.400 74.000 C 183.621 72.692,183.555 72.400,183.035 72.400 C 182.025 72.400,181.968 65.378,182.971 64.596 C 183.283 64.353,183.416 63.691,183.305 62.933 C 183.161 61.951,183.283 61.632,183.860 61.483 C 184.419 61.339,184.444 61.281,183.961 61.246 C 183.610 61.221,182.907 61.560,182.400 62.000 M152.865 103.436 C 152.571 103.769,152.421 104.278,152.533 104.569 C 152.715 105.045,150.647 108.008,149.904 108.333 C 149.737 108.407,149.600 108.722,149.600 109.033 C 149.600 109.345,149.311 109.600,148.957 109.600 C 148.543 109.600,148.398 109.819,148.550 110.215 C 148.685 110.565,148.531 110.928,148.193 111.058 C 147.867 111.183,147.600 111.536,147.600 111.843 C 147.600 112.149,147.417 112.400,147.192 112.400 C 146.958 112.400,146.891 112.823,147.035 113.396 C 147.209 114.092,147.100 114.464,146.673 114.627 C 146.223 114.800,146.119 115.224,146.281 116.224 C 146.448 117.253,146.343 117.647,145.851 117.836 C 144.890 118.205,144.889 124.995,145.850 125.364 C 146.364 125.561,146.447 125.947,146.245 127.207 C 146.036 128.515,146.107 128.800,146.641 128.800 C 147.136 128.800,147.249 129.087,147.115 130.000 C 146.989 130.859,147.102 131.200,147.515 131.200 C 147.927 131.200,148.041 131.541,147.915 132.400 C 147.788 133.260,147.902 133.600,148.316 133.600 C 148.690 133.600,148.822 133.873,148.691 134.374 C 148.574 134.822,148.723 135.238,149.044 135.362 C 149.350 135.479,149.600 135.930,149.600 136.364 C 149.600 136.798,149.796 137.274,150.035 137.422 C 150.274 137.569,150.381 138.030,150.272 138.445 C 150.147 138.924,150.283 139.200,150.645 139.200 C 151.054 139.200,151.144 139.484,150.964 140.200 C 150.774 140.956,150.870 141.200,151.357 141.200 C 151.727 141.200,152.000 141.530,152.000 141.976 C 152.000 142.403,152.196 142.874,152.435 143.022 C 152.674 143.169,152.781 143.630,152.672 144.045 C 152.547 144.524,152.683 144.800,153.045 144.800 C 153.454 144.800,153.544 145.084,153.364 145.800 C 153.169 146.577,153.267 146.800,153.803 146.800 C 154.324 146.800,154.446 147.046,154.302 147.800 C 154.173 148.476,154.290 148.800,154.663 148.800 C 155.052 148.800,155.141 149.095,154.964 149.800 C 154.769 150.577,154.867 150.800,155.403 150.800 C 155.920 150.800,156.046 151.046,155.906 151.780 C 155.786 152.407,155.930 152.841,156.305 152.985 C 156.683 153.130,156.824 153.563,156.701 154.205 C 156.568 154.901,156.688 155.200,157.101 155.200 C 157.529 155.200,157.642 155.529,157.515 156.400 C 157.388 157.265,157.501 157.600,157.922 157.600 C 158.364 157.600,158.450 157.936,158.279 158.991 C 158.124 159.946,158.202 160.354,158.527 160.291 C 158.827 160.233,158.975 160.704,158.932 161.580 C 158.890 162.436,159.103 163.133,159.493 163.419 C 159.970 163.767,160.059 164.269,159.863 165.497 C 159.657 166.787,159.737 167.167,160.260 167.368 C 160.820 167.583,160.879 168.059,160.660 170.641 C 160.520 172.302,160.556 173.963,160.740 174.331 C 161.257 175.362,160.819 178.400,160.153 178.400 C 159.721 178.400,159.650 178.770,159.846 180.000 C 160.049 181.265,159.977 181.600,159.507 181.600 C 159.088 181.600,158.967 181.895,159.101 182.595 C 159.230 183.268,159.083 183.670,158.646 183.838 C 158.291 183.974,158.000 184.246,158.000 184.443 C 158.000 185.396,159.225 184.515,162.028 181.545 C 163.717 179.755,165.276 178.400,165.492 178.533 C 165.719 178.674,165.814 178.402,165.716 177.888 C 165.616 177.356,165.880 176.646,166.374 176.117 C 166.828 175.631,167.200 175.046,167.200 174.817 C 167.200 174.588,167.470 174.400,167.800 174.400 C 168.169 174.400,168.400 174.025,168.400 173.429 C 168.400 172.894,168.670 172.187,169.000 171.857 C 169.330 171.527,169.600 170.974,169.600 170.629 C 169.600 170.283,169.780 170.000,170.000 170.000 C 170.220 170.000,170.400 169.640,170.400 169.200 C 170.400 168.751,170.667 168.400,171.008 168.400 C 171.456 168.400,171.549 168.138,171.364 167.400 C 171.186 166.688,171.275 166.400,171.676 166.400 C 172.084 166.400,172.194 166.014,172.076 165.000 C 171.953 163.944,172.061 163.600,172.518 163.600 C 172.998 163.600,173.077 163.254,172.901 161.939 C 172.727 160.643,172.832 160.166,173.380 159.765 C 173.954 159.345,174.038 158.869,173.846 157.126 C 173.545 154.401,173.544 154.141,173.841 152.076 C 174.038 150.704,173.946 150.248,173.388 149.840 C 172.845 149.443,172.747 149.009,172.953 147.910 C 173.161 146.800,173.076 146.438,172.561 146.240 C 172.076 146.054,171.964 145.682,172.134 144.830 C 172.301 143.996,172.191 143.605,171.740 143.432 C 171.309 143.267,171.190 142.896,171.355 142.238 C 171.522 141.572,171.400 141.209,170.952 141.037 C 170.545 140.881,170.386 140.499,170.517 139.995 C 170.653 139.476,170.527 139.200,170.155 139.200 C 169.746 139.200,169.656 138.916,169.836 138.200 C 170.026 137.444,169.930 137.200,169.443 137.200 C 169.067 137.200,168.800 136.868,168.800 136.400 C 168.800 135.960,168.620 135.600,168.400 135.600 C 168.180 135.600,168.000 135.317,168.000 134.971 C 168.000 134.626,167.730 134.073,167.400 133.743 C 167.070 133.413,166.800 132.706,166.800 132.171 C 166.800 131.556,166.570 131.200,166.173 131.200 C 165.728 131.200,165.620 130.968,165.800 130.400 C 165.980 129.832,165.872 129.600,165.427 129.600 C 165.082 129.600,164.800 129.330,164.800 129.000 C 164.800 128.670,164.650 128.400,164.468 128.400 C 164.285 128.400,163.880 127.905,163.568 127.300 C 163.255 126.695,162.684 125.850,162.298 125.422 C 161.900 124.982,161.695 124.331,161.825 123.922 C 161.979 123.436,161.849 123.200,161.427 123.200 C 161.082 123.200,160.800 122.930,160.800 122.600 C 160.800 122.270,160.632 122.000,160.427 122.000 C 159.998 122.000,159.397 120.442,159.539 119.700 C 159.592 119.425,159.391 119.200,159.092 119.200 C 158.794 119.200,158.302 118.570,158.000 117.800 C 157.698 117.030,157.304 116.400,157.125 116.400 C 156.946 116.400,156.800 116.051,156.800 115.624 C 156.800 115.197,156.604 114.726,156.365 114.578 C 156.126 114.431,156.016 113.982,156.121 113.581 C 156.230 113.165,156.058 112.754,155.721 112.625 C 155.268 112.451,155.194 112.021,155.402 110.787 C 155.612 109.546,155.551 109.201,155.137 109.288 C 154.760 109.367,154.564 108.835,154.478 107.500 C 154.382 105.996,154.486 105.600,154.978 105.600 C 155.721 105.600,155.758 105.184,155.136 103.819 C 154.617 102.681,153.673 102.521,152.865 103.436 " stroke="none" fill="#9c9474" fill-rule="evenodd"></path><path id="path2" d="M150.117 106.700 C 149.975 107.085,149.665 107.549,149.429 107.730 C 149.153 107.943,149.200 108.007,149.562 107.910 C 150.082 107.770,151.021 106.000,150.575 106.000 C 150.465 106.000,150.259 106.315,150.117 106.700 M194.382 178.434 C 194.136 178.893,194.036 179.369,194.158 179.492 C 194.281 179.614,194.507 179.374,194.661 178.957 C 194.816 178.541,195.135 178.068,195.371 177.906 C 195.662 177.707,195.644 177.610,195.314 177.606 C 195.047 177.603,194.627 177.975,194.382 178.434 M164.126 179.900 C 163.989 180.285,163.787 180.763,163.677 180.962 C 163.566 181.161,163.684 181.195,163.938 181.038 C 164.192 180.881,164.400 180.508,164.400 180.210 C 164.400 179.911,164.625 179.576,164.900 179.465 C 165.292 179.307,165.289 179.256,164.887 179.232 C 164.606 179.214,164.263 179.515,164.126 179.900 M189.200 184.013 C 189.200 184.239,188.885 184.537,188.500 184.673 C 187.524 185.019,186.398 186.038,186.412 186.562 C 186.419 186.803,186.605 186.691,186.825 186.313 C 187.045 185.935,187.850 185.329,188.613 184.967 C 189.929 184.343,190.465 183.600,189.600 183.600 C 189.380 183.600,189.200 183.786,189.200 184.013 M71.206 329.300 C 71.217 330.226,71.911 330.920,72.572 330.666 C 73.019 330.495,73.366 330.726,73.673 331.400 C 74.023 332.169,74.328 332.333,75.061 332.149 C 75.773 331.970,76.000 332.079,76.000 332.599 C 76.000 333.053,76.209 333.205,76.615 333.050 C 76.971 332.913,77.330 333.074,77.467 333.430 C 77.597 333.769,77.957 333.949,78.267 333.830 C 78.577 333.711,78.935 333.886,79.063 334.219 C 79.208 334.599,79.575 334.735,80.047 334.585 C 80.575 334.418,80.800 334.542,80.800 335.000 C 80.800 335.472,81.023 335.583,81.600 335.400 C 82.168 335.220,82.400 335.328,82.400 335.773 C 82.400 336.118,82.670 336.400,83.000 336.400 C 83.330 336.400,83.600 336.600,83.600 336.845 C 83.600 337.116,84.086 337.219,84.837 337.109 C 85.640 336.991,86.146 337.116,86.280 337.464 C 86.393 337.759,87.006 338.000,87.643 338.000 C 88.279 338.000,88.800 338.180,88.800 338.400 C 88.800 338.620,89.340 338.800,90.000 338.800 C 90.660 338.800,91.200 339.000,91.200 339.245 C 91.200 339.534,91.678 339.599,92.573 339.431 C 93.628 339.234,94.033 339.330,94.323 339.849 C 94.631 340.399,95.077 340.479,96.742 340.281 C 98.247 340.103,98.935 340.192,99.363 340.620 C 100.257 341.514,256.163 341.495,257.057 340.600 C 257.511 340.146,258.172 340.060,259.768 340.248 C 261.487 340.450,261.923 340.377,262.124 339.855 C 262.309 339.372,262.682 339.276,263.635 339.467 C 264.582 339.656,264.994 339.553,265.272 339.058 C 265.522 338.611,265.943 338.471,266.567 338.627 C 267.186 338.783,267.569 338.659,267.725 338.252 C 267.898 337.800,268.323 337.703,269.379 337.874 C 270.305 338.024,270.800 337.947,270.800 337.652 C 270.800 337.404,271.070 337.200,271.400 337.200 C 271.730 337.200,272.000 336.927,272.000 336.592 C 272.000 336.144,272.262 336.051,273.000 336.236 C 273.616 336.390,274.000 336.317,274.000 336.043 C 274.000 335.800,274.349 335.600,274.776 335.600 C 275.203 335.600,275.664 335.420,275.800 335.200 C 275.936 334.980,276.487 334.800,277.024 334.800 C 277.561 334.800,278.000 334.620,278.000 334.400 C 278.000 334.180,278.236 334.000,278.525 334.000 C 278.813 334.000,279.436 333.640,279.908 333.200 C 280.380 332.760,280.935 332.400,281.140 332.400 C 281.346 332.400,281.613 332.144,281.733 331.831 C 281.857 331.506,282.272 331.346,282.699 331.458 C 283.218 331.593,283.587 331.348,283.901 330.658 C 284.234 329.927,284.572 329.720,285.177 329.878 C 286.137 330.129,286.302 329.402,285.367 329.043 C 283.998 328.517,71.200 328.773,71.206 329.300 " stroke="none" fill="#c4bca4" fill-rule="evenodd"></path><path id="path3" d="M183.050 61.119 C 182.674 61.728,183.393 62.376,184.011 61.985 C 184.492 61.681,184.453 61.606,183.800 61.578 L 183.000 61.544 183.800 61.200 C 184.452 60.920,184.475 60.851,183.924 60.828 C 183.552 60.813,183.158 60.944,183.050 61.119 M180.893 62.000 C 180.382 62.819,180.647 62.987,181.767 62.557 C 182.518 62.269,182.620 61.200,181.896 61.200 C 181.619 61.200,181.168 61.560,180.893 62.000 M178.283 64.563 C 177.130 65.553,176.868 66.400,177.714 66.400 C 178.223 66.400,179.822 64.089,179.522 63.788 C 179.436 63.703,178.878 64.051,178.283 64.563 M182.667 64.667 C 182.520 64.813,182.400 65.186,182.400 65.495 C 182.400 65.961,182.503 65.954,183.000 65.457 C 183.330 65.127,183.600 64.754,183.600 64.629 C 183.600 64.315,182.993 64.340,182.667 64.667 M175.253 68.358 C 174.839 68.621,174.812 68.886,175.141 69.452 C 175.519 70.102,175.674 69.908,175.570 68.916 C 175.554 68.759,175.869 68.502,176.270 68.344 C 176.790 68.139,176.827 68.050,176.400 68.034 C 176.070 68.022,175.554 68.168,175.253 68.358 M173.700 70.665 C 172.975 70.958,173.086 72.000,173.843 72.000 C 174.237 72.000,174.400 71.778,174.265 71.426 C 174.144 71.110,174.260 70.764,174.522 70.657 C 174.785 70.551,174.820 70.463,174.600 70.463 C 174.380 70.463,173.975 70.554,173.700 70.665 M182.400 71.813 C 182.400 72.136,182.670 72.400,183.000 72.400 C 183.330 72.400,183.600 72.239,183.600 72.043 C 183.600 71.846,183.330 71.582,183.000 71.455 C 182.635 71.315,182.400 71.455,182.400 71.813 M183.232 74.700 C 183.210 75.305,183.430 75.598,183.900 75.594 C 184.332 75.590,184.431 75.475,184.160 75.294 C 183.918 75.132,183.617 74.730,183.492 74.400 C 183.339 73.999,183.253 74.099,183.232 74.700 M184.046 76.851 C 184.021 77.209,184.270 77.726,184.600 78.000 C 185.015 78.344,185.200 78.359,185.200 78.049 C 185.200 77.802,185.033 77.600,184.829 77.600 C 184.625 77.600,184.376 77.285,184.276 76.900 C 184.121 76.309,184.086 76.302,184.046 76.851 M185.867 80.667 C 185.406 81.127,185.575 81.600,186.200 81.600 C 186.530 81.600,186.800 81.330,186.800 81.000 C 186.800 80.375,186.327 80.206,185.867 80.667 M186.806 82.900 C 186.811 83.628,186.886 83.685,187.200 83.200 C 187.701 82.424,187.701 82.000,187.200 82.000 C 186.980 82.000,186.803 82.405,186.806 82.900 M168.860 84.266 C 168.562 84.589,168.430 84.964,168.566 85.100 C 168.901 85.434,169.727 84.570,169.545 84.074 C 169.465 83.856,169.157 83.942,168.860 84.266 M168.400 94.395 C 168.400 94.649,168.686 95.143,169.036 95.493 C 169.618 96.075,169.661 96.050,169.536 95.196 C 169.398 94.250,168.400 93.546,168.400 94.395 M193.894 94.239 C 193.763 94.371,193.758 94.746,193.883 95.073 C 194.069 95.557,194.174 95.568,194.450 95.134 C 195.039 94.203,194.614 93.519,193.894 94.239 M194.700 96.265 C 194.975 96.376,195.200 96.722,195.200 97.033 C 195.200 97.345,195.515 97.586,195.900 97.568 C 196.318 97.550,196.399 97.456,196.100 97.335 C 195.825 97.224,195.600 96.878,195.600 96.567 C 195.600 96.255,195.285 96.014,194.900 96.032 C 194.482 96.050,194.401 96.144,194.700 96.265 M197.338 100.597 C 197.592 101.145,198.024 101.595,198.297 101.597 C 198.593 101.599,198.443 101.195,197.925 100.600 C 196.839 99.351,196.760 99.351,197.338 100.597 M154.551 101.907 C 154.225 102.428,154.233 102.729,154.582 103.054 C 155.181 103.614,156.400 102.810,156.400 101.856 C 156.400 100.982,155.107 101.017,154.551 101.907 M198.694 102.239 C 198.563 102.371,198.558 102.746,198.683 103.073 C 198.869 103.557,198.974 103.568,199.250 103.134 C 199.839 102.203,199.414 101.519,198.694 102.239 M151.280 105.020 C 150.993 105.345,150.874 105.796,151.014 106.023 C 151.154 106.249,151.053 106.742,150.790 107.118 C 150.527 107.493,150.864 107.186,151.539 106.435 C 152.214 105.684,152.674 104.919,152.560 104.735 C 152.264 104.257,151.877 104.343,151.280 105.020 M200.553 106.230 C 200.799 106.760,201.270 107.181,201.600 107.165 C 202.009 107.146,202.041 107.073,201.700 106.935 C 201.425 106.824,201.200 106.498,201.200 106.209 C 201.200 105.921,200.954 105.591,200.653 105.476 C 200.212 105.306,200.192 105.451,200.553 106.230 M154.478 107.500 C 154.545 108.545,154.780 109.400,155.000 109.400 C 155.622 109.400,155.735 107.531,155.135 107.151 C 154.736 106.898,154.727 106.811,155.100 106.806 C 155.375 106.803,155.600 106.530,155.600 106.200 C 155.600 105.870,155.320 105.600,154.978 105.600 C 154.486 105.600,154.382 105.996,154.478 107.500 M172.400 107.551 C 172.400 107.798,172.567 108.000,172.771 108.000 C 172.975 108.000,173.224 108.315,173.324 108.700 C 173.479 109.291,173.514 109.298,173.554 108.749 C 173.579 108.391,173.330 107.874,173.000 107.600 C 172.585 107.256,172.400 107.241,172.400 107.551 M201.867 107.867 C 201.406 108.327,201.575 108.800,202.200 108.800 C 202.530 108.800,202.800 108.530,202.800 108.200 C 202.800 107.575,202.327 107.406,201.867 107.867 M149.200 108.567 C 149.200 108.878,148.975 109.224,148.700 109.335 C 148.401 109.456,148.482 109.550,148.900 109.568 C 149.285 109.586,149.600 109.345,149.600 109.033 C 149.600 108.722,149.825 108.376,150.100 108.265 C 150.399 108.144,150.318 108.050,149.900 108.032 C 149.515 108.014,149.200 108.255,149.200 108.567 M202.667 109.467 C 202.206 109.927,202.375 110.400,203.000 110.400 C 203.330 110.400,203.600 110.130,203.600 109.800 C 203.600 109.175,203.127 109.006,202.667 109.467 M147.600 110.600 C 147.600 110.967,147.793 111.202,148.030 111.123 C 148.267 111.044,148.460 110.809,148.460 110.600 C 148.460 110.391,148.267 110.156,148.030 110.077 C 147.793 109.998,147.600 110.233,147.600 110.600 M203.467 111.067 C 203.006 111.527,203.175 112.000,203.800 112.000 C 204.130 112.000,204.400 111.730,204.400 111.400 C 204.400 110.775,203.927 110.606,203.467 111.067 M204.267 112.667 C 203.806 113.127,203.975 113.600,204.600 113.600 C 204.930 113.600,205.200 113.330,205.200 113.000 C 205.200 112.375,204.727 112.206,204.267 112.667 M204.846 114.451 C 204.821 114.809,205.070 115.326,205.400 115.600 C 205.815 115.944,206.000 115.959,206.000 115.649 C 206.000 115.402,205.833 115.200,205.629 115.200 C 205.425 115.200,205.176 114.885,205.076 114.500 C 204.921 113.909,204.886 113.902,204.846 114.451 M145.600 117.200 C 145.283 117.396,145.156 117.689,145.318 117.852 C 145.481 118.014,145.823 117.937,146.080 117.680 C 146.684 117.076,146.347 116.738,145.600 117.200 M159.494 119.839 C 159.363 119.971,159.358 120.346,159.483 120.673 C 159.669 121.157,159.774 121.168,160.050 120.734 C 160.639 119.803,160.214 119.119,159.494 119.839 M161.800 124.000 C 161.664 124.220,161.676 124.599,161.826 124.843 C 162.095 125.278,162.779 124.611,162.794 123.900 C 162.803 123.462,162.088 123.533,161.800 124.000 M145.200 125.524 C 145.200 125.739,145.485 126.024,145.833 126.157 C 146.223 126.307,146.406 126.218,146.308 125.925 C 146.109 125.327,145.200 124.998,145.200 125.524 M162.629 125.906 C 162.865 126.068,163.184 126.541,163.339 126.957 C 163.714 127.971,164.029 127.596,163.737 126.483 C 163.611 125.997,163.213 125.603,162.853 125.606 C 162.451 125.610,162.365 125.725,162.629 125.906 M181.200 129.433 C 181.200 129.782,181.414 129.995,181.675 129.908 C 182.417 129.661,182.540 128.800,181.833 128.800 C 181.485 128.800,181.200 129.085,181.200 129.433 M165.867 130.267 C 165.406 130.727,165.575 131.200,166.200 131.200 C 166.530 131.200,166.800 130.930,166.800 130.600 C 166.800 129.975,166.327 129.806,165.867 130.267 M209.692 130.875 C 209.891 131.473,210.800 131.802,210.800 131.276 C 210.800 131.061,210.515 130.776,210.167 130.643 C 209.777 130.493,209.594 130.582,209.692 130.875 M183.600 134.751 C 183.600 134.998,183.767 135.200,183.971 135.200 C 184.175 135.200,184.424 135.515,184.524 135.900 C 184.679 136.491,184.714 136.498,184.754 135.949 C 184.779 135.591,184.530 135.074,184.200 134.800 C 183.785 134.456,183.600 134.441,183.600 134.751 M169.867 138.267 C 169.406 138.727,169.575 139.200,170.200 139.200 C 170.530 139.200,170.800 138.930,170.800 138.600 C 170.800 137.975,170.327 137.806,169.867 138.267 M172.032 145.076 C 172.014 145.558,172.192 146.071,172.427 146.216 C 172.991 146.565,173.502 146.038,172.948 145.678 C 172.713 145.525,172.417 145.130,172.292 144.800 C 172.136 144.392,172.053 144.480,172.032 145.076 M209.867 146.667 C 209.720 146.813,209.600 147.186,209.600 147.495 C 209.600 147.961,209.703 147.954,210.200 147.457 C 210.530 147.127,210.800 146.754,210.800 146.629 C 210.800 146.315,210.193 146.340,209.867 146.667 M187.600 147.124 C 187.600 147.339,187.885 147.624,188.233 147.757 C 188.623 147.907,188.806 147.818,188.708 147.525 C 188.509 146.927,187.600 146.598,187.600 147.124 M172.892 149.275 C 173.091 149.873,174.000 150.202,174.000 149.676 C 174.000 149.461,173.715 149.176,173.367 149.043 C 172.977 148.893,172.794 148.982,172.892 149.275 M209.067 150.667 C 208.581 151.153,208.790 151.579,209.400 151.345 C 209.730 151.218,210.000 150.954,210.000 150.757 C 210.000 150.338,209.449 150.284,209.067 150.667 M189.200 154.024 C 189.200 154.257,189.365 154.345,189.566 154.221 C 189.767 154.097,190.023 154.221,190.134 154.498 C 190.256 154.801,190.349 154.722,190.368 154.300 C 190.386 153.915,190.130 153.600,189.800 153.600 C 189.470 153.600,189.200 153.791,189.200 154.024 M190.000 158.229 C 190.000 158.354,190.270 158.727,190.600 159.057 C 191.133 159.590,191.200 159.565,191.200 158.829 C 191.200 158.359,190.940 158.000,190.600 158.000 C 190.270 158.000,190.000 158.103,190.000 158.229 M173.067 159.867 C 172.553 160.381,172.799 161.175,173.400 160.945 C 173.730 160.818,174.000 160.464,174.000 160.157 C 174.000 159.569,173.515 159.418,173.067 159.867 M158.204 160.393 C 158.066 160.617,158.130 160.800,158.347 160.800 C 158.564 160.800,158.824 161.115,158.924 161.500 C 159.066 162.041,159.118 162.000,159.154 161.324 C 159.205 160.353,158.597 159.758,158.204 160.393 M204.892 162.075 C 205.139 162.817,206.000 162.940,206.000 162.233 C 206.000 161.885,205.715 161.600,205.367 161.600 C 205.018 161.600,204.805 161.814,204.892 162.075 M158.800 163.524 C 158.800 163.739,159.085 164.024,159.433 164.157 C 159.823 164.307,160.006 164.218,159.908 163.925 C 159.709 163.327,158.800 162.998,158.800 163.524 M202.953 165.770 C 202.592 166.549,202.612 166.694,203.053 166.524 C 203.354 166.409,203.600 165.974,203.600 165.557 C 203.600 164.570,203.493 164.605,202.953 165.770 M159.600 167.595 C 159.600 167.849,159.886 168.343,160.236 168.693 C 160.818 169.275,160.861 169.250,160.736 168.396 C 160.598 167.450,159.600 166.746,159.600 167.595 M198.753 172.300 C 198.727 172.465,198.727 172.735,198.753 172.900 C 198.779 173.065,198.500 173.200,198.133 173.200 C 197.767 173.200,197.573 173.306,197.703 173.437 C 198.114 173.848,199.600 173.171,199.600 172.573 C 199.600 171.992,198.840 171.748,198.753 172.300 M190.500 173.065 C 189.804 173.346,189.873 174.000,190.600 174.000 C 190.930 174.000,191.200 173.730,191.200 173.400 C 191.200 173.070,191.155 172.814,191.100 172.832 C 191.045 172.849,190.775 172.954,190.500 173.065 M167.200 174.967 C 167.200 175.278,166.975 175.624,166.700 175.735 C 166.401 175.856,166.482 175.950,166.900 175.968 C 167.285 175.986,167.600 175.745,167.600 175.433 C 167.600 175.122,167.825 174.776,168.100 174.665 C 168.399 174.544,168.318 174.450,167.900 174.432 C 167.515 174.414,167.200 174.655,167.200 174.967 M196.278 175.456 C 195.958 175.775,196.319 176.400,196.824 176.400 C 197.031 176.400,197.200 176.130,197.200 175.800 C 197.200 175.181,196.728 175.005,196.278 175.456 M165.867 176.667 C 165.720 176.813,165.600 177.254,165.600 177.647 C 165.600 178.039,165.285 178.560,164.900 178.803 C 164.425 179.104,164.393 179.197,164.800 179.094 C 165.130 179.010,165.641 178.446,165.936 177.840 C 166.454 176.777,166.415 176.118,165.867 176.667 M189.600 176.800 C 189.283 176.996,189.156 177.289,189.318 177.452 C 189.481 177.614,189.823 177.537,190.080 177.280 C 190.684 176.676,190.347 176.338,189.600 176.800 M160.100 177.465 C 159.404 177.746,159.473 178.400,160.200 178.400 C 160.530 178.400,160.800 178.130,160.800 177.800 C 160.800 177.470,160.755 177.214,160.700 177.232 C 160.645 177.249,160.375 177.354,160.100 177.465 M190.905 181.288 C 188.316 183.878,187.513 184.473,187.128 184.088 C 186.467 183.427,186.000 183.474,186.000 184.200 C 186.000 184.530,186.225 184.811,186.500 184.825 C 186.775 184.839,186.574 185.021,186.054 185.229 C 185.242 185.555,185.183 185.698,185.640 186.248 C 186.061 186.755,186.208 186.776,186.350 186.349 C 186.522 185.834,189.372 183.121,190.787 182.126 C 191.442 181.665,194.584 178.000,194.324 178.000 C 194.252 178.000,192.714 179.480,190.905 181.288 M161.373 182.214 C 159.968 183.803,158.801 184.783,158.393 184.714 C 158.024 184.651,157.700 184.690,157.673 184.800 C 157.591 185.127,158.080 186.800,158.257 186.800 C 158.708 186.800,162.000 183.142,162.000 182.641 C 162.000 182.322,162.466 181.508,163.036 180.831 C 164.983 178.517,163.686 179.595,161.373 182.214 " stroke="none" fill="#b0b49c" fill-rule="evenodd"></path><path id="path4" d="M184.400 60.000 C 184.400 60.220,183.860 60.400,183.200 60.400 C 182.540 60.400,182.000 60.569,182.000 60.776 C 182.000 61.375,182.718 61.656,183.016 61.174 C 183.165 60.933,183.718 60.843,184.244 60.975 C 185.016 61.169,185.200 61.060,185.200 60.408 C 185.200 59.963,185.020 59.600,184.800 59.600 C 184.580 59.600,184.400 59.780,184.400 60.000 M182.643 65.833 C 181.885 67.807,182.612 72.372,183.527 71.385 C 183.677 71.223,183.575 71.010,183.300 70.912 C 182.693 70.695,182.597 66.000,183.200 66.000 C 183.420 66.000,183.600 65.820,183.600 65.600 C 183.600 64.967,182.911 65.135,182.643 65.833 M176.460 66.380 C 176.632 66.896,177.181 66.988,177.230 66.510 C 177.246 66.350,177.044 66.148,176.780 66.060 C 176.516 65.972,176.372 66.116,176.460 66.380 M183.600 74.600 C 183.600 74.930,183.780 75.200,184.000 75.200 C 184.220 75.200,184.400 74.930,184.400 74.600 C 184.400 74.270,184.220 74.000,184.000 74.000 C 183.780 74.000,183.600 74.270,183.600 74.600 M184.400 77.000 C 184.400 77.330,184.580 77.600,184.800 77.600 C 185.020 77.600,185.200 77.330,185.200 77.000 C 185.200 76.670,185.020 76.400,184.800 76.400 C 184.580 76.400,184.400 76.670,184.400 77.000 M169.660 79.866 C 169.362 80.189,169.230 80.564,169.366 80.700 C 169.701 81.034,170.527 80.170,170.345 79.674 C 170.265 79.456,169.957 79.542,169.660 79.866 M169.200 82.933 C 169.200 83.300,169.020 83.600,168.800 83.600 C 168.580 83.600,168.400 83.780,168.400 84.000 C 168.400 84.220,168.568 84.400,168.773 84.400 C 169.223 84.400,169.770 82.837,169.437 82.503 C 169.306 82.373,169.200 82.567,169.200 82.933 M189.200 86.600 C 189.200 86.930,189.380 87.200,189.600 87.200 C 189.820 87.200,190.000 86.930,190.000 86.600 C 190.000 86.270,189.820 86.000,189.600 86.000 C 189.380 86.000,189.200 86.270,189.200 86.600 M168.400 95.429 C 168.400 95.554,168.670 95.927,169.000 96.257 C 169.651 96.908,169.733 96.811,169.357 95.833 C 169.129 95.238,168.400 94.930,168.400 95.429 M172.400 108.600 C 172.400 108.930,172.580 109.200,172.800 109.200 C 173.020 109.200,173.200 108.930,173.200 108.600 C 173.200 108.270,173.020 108.000,172.800 108.000 C 172.580 108.000,172.400 108.270,172.400 108.600 M146.000 113.800 C 146.000 114.130,146.180 114.400,146.400 114.400 C 146.620 114.400,146.800 114.130,146.800 113.800 C 146.800 113.470,146.620 113.200,146.400 113.200 C 146.180 113.200,146.000 113.470,146.000 113.800 M205.200 114.600 C 205.200 114.930,205.380 115.200,205.600 115.200 C 205.820 115.200,206.000 114.930,206.000 114.600 C 206.000 114.270,205.820 114.000,205.600 114.000 C 205.380 114.000,205.200 114.270,205.200 114.600 M145.600 116.400 C 145.283 116.596,145.156 116.889,145.318 117.052 C 145.481 117.214,145.823 117.137,146.080 116.880 C 146.684 116.276,146.347 115.938,145.600 116.400 M176.400 118.200 C 176.400 118.530,176.580 118.800,176.800 118.800 C 177.020 118.800,177.200 118.530,177.200 118.200 C 177.200 117.870,177.020 117.600,176.800 117.600 C 176.580 117.600,176.400 117.870,176.400 118.200 M158.800 118.600 C 158.800 118.930,158.980 119.200,159.200 119.200 C 159.420 119.200,159.600 118.930,159.600 118.600 C 159.600 118.270,159.420 118.000,159.200 118.000 C 158.980 118.000,158.800 118.270,158.800 118.600 M161.078 122.256 C 160.758 122.575,161.119 123.200,161.624 123.200 C 161.831 123.200,162.000 122.930,162.000 122.600 C 162.000 121.981,161.528 121.805,161.078 122.256 M145.200 126.324 C 145.200 126.539,145.485 126.824,145.833 126.957 C 146.223 127.107,146.406 127.018,146.308 126.725 C 146.109 126.127,145.200 125.798,145.200 126.324 M209.300 126.265 C 208.635 126.533,208.659 127.200,209.333 127.200 C 209.627 127.200,209.867 126.930,209.867 126.600 C 209.867 126.270,209.852 126.014,209.833 126.032 C 209.815 126.049,209.575 126.154,209.300 126.265 M165.078 128.656 C 164.758 128.975,165.119 129.600,165.624 129.600 C 165.831 129.600,166.000 129.330,166.000 129.000 C 166.000 128.381,165.528 128.205,165.078 128.656 M210.559 138.800 C 210.562 141.330,210.629 142.905,210.709 142.300 C 210.788 141.695,211.021 141.200,211.227 141.200 C 211.432 141.200,211.600 140.199,211.600 138.976 C 211.600 137.693,211.441 136.851,211.225 136.985 C 211.018 137.112,210.783 136.538,210.702 135.708 C 210.620 134.879,210.556 136.270,210.559 138.800 M183.600 135.800 C 183.600 136.130,183.780 136.400,184.000 136.400 C 184.220 136.400,184.400 136.130,184.400 135.800 C 184.400 135.470,184.220 135.200,184.000 135.200 C 183.780 135.200,183.600 135.470,183.600 135.800 M171.600 142.600 C 171.600 142.930,171.780 143.200,172.000 143.200 C 172.220 143.200,172.400 142.930,172.400 142.600 C 172.400 142.270,172.220 142.000,172.000 142.000 C 171.780 142.000,171.600 142.270,171.600 142.600 M172.400 145.000 C 172.400 145.330,172.580 145.600,172.800 145.600 C 173.020 145.600,173.200 145.330,173.200 145.000 C 173.200 144.670,173.020 144.400,172.800 144.400 C 172.580 144.400,172.400 144.670,172.400 145.000 M209.843 147.833 C 209.467 148.811,209.549 148.908,210.200 148.257 C 210.880 147.577,210.967 147.200,210.443 147.200 C 210.246 147.200,209.976 147.485,209.843 147.833 M172.892 148.475 C 173.091 149.073,174.000 149.402,174.000 148.876 C 174.000 148.661,173.715 148.376,173.367 148.243 C 172.977 148.093,172.794 148.182,172.892 148.475 M188.400 150.595 C 188.400 150.739,188.689 151.147,189.043 151.500 C 189.634 152.091,189.675 152.083,189.543 151.405 C 189.411 150.722,188.400 150.006,188.400 150.595 M189.432 154.349 C 189.278 154.597,189.343 154.800,189.576 154.800 C 189.809 154.800,190.014 155.115,190.032 155.500 C 190.049 155.892,190.150 155.987,190.260 155.715 C 190.543 155.018,189.788 153.773,189.432 154.349 M190.000 159.400 C 190.000 159.730,190.180 160.000,190.400 160.000 C 190.620 160.000,190.814 160.405,190.832 160.900 C 190.849 161.395,190.957 161.567,191.071 161.283 C 191.356 160.571,190.873 158.800,190.392 158.800 C 190.177 158.800,190.000 159.070,190.000 159.400 M158.000 161.400 C 158.000 161.730,158.180 162.000,158.400 162.000 C 158.620 162.000,158.800 161.730,158.800 161.400 C 158.800 161.070,158.620 160.800,158.400 160.800 C 158.180 160.800,158.000 161.070,158.000 161.400 M173.067 161.067 C 172.920 161.213,172.800 161.586,172.800 161.895 C 172.800 162.361,172.903 162.354,173.400 161.857 C 173.730 161.527,174.000 161.154,174.000 161.029 C 174.000 160.715,173.393 160.740,173.067 161.067 M172.267 164.267 C 172.120 164.413,172.000 164.786,172.000 165.095 C 172.000 165.561,172.103 165.554,172.600 165.057 C 172.930 164.727,173.200 164.354,173.200 164.229 C 173.200 163.915,172.593 163.940,172.267 164.267 M203.600 165.400 C 203.600 165.730,203.780 166.000,204.000 166.000 C 204.220 166.000,204.400 165.730,204.400 165.400 C 204.400 165.070,204.220 164.800,204.000 164.800 C 203.780 164.800,203.600 165.070,203.600 165.400 M159.600 169.000 C 159.600 169.330,159.780 169.600,160.000 169.600 C 160.220 169.600,160.414 170.005,160.432 170.500 C 160.449 170.995,160.557 171.167,160.671 170.883 C 160.956 170.171,160.473 168.400,159.992 168.400 C 159.777 168.400,159.600 168.670,159.600 169.000 M190.846 171.667 C 190.821 172.033,190.575 172.414,190.300 172.512 C 190.025 172.610,189.938 172.838,190.107 173.019 C 190.577 173.522,191.299 172.579,191.084 171.742 C 190.928 171.136,190.884 171.122,190.846 171.667 M199.478 171.456 C 199.158 171.775,199.519 172.400,200.024 172.400 C 200.231 172.400,200.400 172.130,200.400 171.800 C 200.400 171.181,199.928 171.005,199.478 171.456 M197.039 174.738 C 196.900 174.961,196.982 175.265,197.220 175.412 C 197.835 175.793,198.232 175.272,197.718 174.758 C 197.431 174.471,197.207 174.464,197.039 174.738 M160.446 176.124 C 160.420 176.762,160.227 177.140,160.000 177.000 C 159.780 176.864,159.600 176.943,159.600 177.176 C 159.600 177.805,160.391 177.690,160.646 177.023 C 160.768 176.706,160.783 176.121,160.680 175.723 C 160.560 175.260,160.476 175.404,160.446 176.124 M191.038 181.645 C 189.299 183.393,188.174 184.708,188.538 184.568 C 188.902 184.429,189.200 184.154,189.200 183.957 C 189.200 183.761,189.475 183.600,189.811 183.600 C 190.622 183.600,193.805 180.389,194.096 179.277 C 194.222 178.795,194.297 178.415,194.263 178.434 C 194.228 178.452,192.777 179.897,191.038 181.645 M162.829 181.054 C 161.667 182.531,161.766 183.493,162.956 182.300 C 163.422 181.834,164.088 180.000,163.792 180.000 C 163.718 180.000,163.285 180.474,162.829 181.054 M186.800 182.600 C 186.800 182.930,186.980 183.200,187.200 183.200 C 187.420 183.200,187.600 182.930,187.600 182.600 C 187.600 182.270,187.420 182.000,187.200 182.000 C 186.980 182.000,186.800 182.270,186.800 182.600 " stroke="none" fill="#b4bca6" fill-rule="evenodd"></path></g></svg>