<svg id="svg" version="1.1" xmlns="http://www.w3.org/2000/svg" xmlns:xlink="http://www.w3.org/1999/xlink" width="400" height="400" viewBox="0, 0, 400,400"><g id="svgg"><path id="path0" d="M138.800 215.031 C 138.800 215.818,138.979 218.653,139.197 221.331 C 139.415 224.009,139.778 228.630,140.004 231.600 C 140.643 240.001,141.144 246.534,141.586 252.200 C 141.809 255.060,142.176 260.010,142.402 263.200 C 143.085 272.853,143.610 279.569,144.044 284.200 C 144.271 286.620,144.532 291.390,144.626 294.800 C 144.841 302.634,146.027 308.628,147.791 310.800 C 148.059 311.130,148.398 311.670,148.544 312.000 C 148.836 312.661,149.771 314.109,151.000 315.805 C 152.335 317.646,157.770 323.199,158.238 323.200 C 158.479 323.200,159.019 323.581,159.438 324.048 C 164.707 329.909,182.817 336.034,196.200 336.480 L 199.800 336.600 199.800 328.600 L 199.800 320.600 198.135 320.378 C 192.767 319.661,193.206 312.000,198.614 312.000 L 200.000 312.000 200.000 284.467 C 200.000 269.323,199.884 256.817,199.742 256.676 C 199.601 256.534,198.875 256.954,198.129 257.609 C 195.168 260.209,191.200 258.295,191.200 254.268 C 191.200 252.457,193.389 250.399,195.314 250.401 C 196.667 250.403,199.200 251.702,199.200 252.394 C 199.200 252.617,199.382 252.800,199.605 252.800 C 199.873 252.800,199.975 248.154,199.905 239.100 L 199.800 225.400 197.000 225.460 C 195.460 225.493,189.700 225.720,184.200 225.965 C 162.827 226.917,150.575 223.832,141.323 215.170 C 139.252 213.231,138.800 213.206,138.800 215.031 M206.800 280.851 L 206.800 336.502 208.500 336.244 C 221.767 334.231,231.361 330.678,239.200 324.875 C 241.736 322.998,247.902 316.902,249.152 315.036 C 251.205 311.973,251.572 311.385,252.175 310.200 C 254.234 306.151,255.061 301.232,255.976 287.600 C 256.220 283.970,256.593 278.840,256.806 276.200 C 257.238 270.829,257.843 262.571,258.234 256.719 L 258.492 252.838 257.402 252.565 C 256.289 252.286,252.957 252.495,247.600 253.181 C 233.630 254.969,224.267 252.067,221.206 245.000 C 220.729 243.900,219.993 242.230,219.570 241.289 C 219.146 240.348,218.800 239.401,218.800 239.185 C 218.800 238.828,218.082 237.065,216.852 234.400 C 214.551 229.419,210.137 225.200,207.225 225.200 C 206.927 225.200,206.800 241.820,206.800 280.851 M157.700 250.024 C 159.702 252.187,159.040 255.225,156.282 256.534 C 152.873 258.152,148.914 254.461,150.587 251.225 C 152.111 248.277,155.547 247.697,157.700 250.024 M233.408 281.379 C 237.414 284.435,233.303 290.529,228.804 288.202 C 226.098 286.803,225.547 283.715,227.631 281.631 C 229.231 280.031,231.510 279.931,233.408 281.379 M166.460 294.290 C 170.474 298.015,164.441 303.727,160.352 300.073 C 159.316 299.148,159.091 298.647,159.091 297.265 C 159.091 293.475,163.615 291.649,166.460 294.290 " stroke="none" fill="#fcfcfc" fill-rule="evenodd"></path><path id="path1" d="M186.570 57.623 C 180.791 59.846,178.263 65.335,181.467 68.700 C 182.178 69.447,182.255 69.333,182.076 67.797 C 181.785 65.305,183.966 63.269,188.110 62.166 C 194.822 60.379,203.200 63.292,203.200 67.413 C 203.200 69.073,203.617 69.188,204.300 67.717 C 205.502 65.128,204.694 61.791,202.395 59.857 C 201.251 58.895,200.418 58.454,197.481 57.256 C 195.613 56.494,188.919 56.719,186.570 57.623 M222.200 76.577 C 215.681 77.887,211.975 81.825,213.187 86.155 C 213.857 88.548,214.640 88.811,214.918 86.738 C 215.240 84.337,216.041 83.637,220.400 81.953 C 226.103 79.749,236.000 82.988,236.000 87.058 C 236.000 88.654,236.492 88.794,237.136 87.381 C 239.353 82.516,235.646 78.024,228.200 76.554 C 225.049 75.932,225.423 75.930,222.200 76.577 M164.600 87.667 C 158.531 89.712,155.799 93.375,157.282 97.477 C 157.874 99.113,158.487 98.993,158.859 97.170 C 160.307 90.067,180.000 90.869,180.000 98.031 C 180.000 99.489,180.446 99.525,181.100 98.117 C 184.160 91.528,173.389 84.706,164.600 87.667 M124.673 97.100 C 123.437 110.911,133.146 126.956,147.700 135.155 C 148.525 135.620,149.875 136.393,150.700 136.874 C 155.322 139.565,162.646 142.678,167.600 144.056 C 168.370 144.270,169.630 144.629,170.400 144.853 C 171.170 145.077,172.520 145.404,173.400 145.579 C 174.280 145.754,176.350 146.170,178.000 146.504 C 185.961 148.117,192.499 148.800,200.021 148.803 C 206.151 148.805,208.609 148.609,215.800 147.546 C 220.340 146.874,226.314 145.727,228.000 145.204 C 228.550 145.033,229.810 144.668,230.800 144.393 C 233.155 143.739,237.163 142.446,238.300 141.974 C 238.795 141.768,239.605 141.442,240.100 141.248 C 242.192 140.429,248.323 137.357,249.800 136.386 C 250.680 135.808,251.670 135.235,252.000 135.114 C 254.718 134.116,263.392 126.525,266.528 122.402 C 267.448 121.192,268.470 119.900,268.800 119.530 C 269.523 118.718,272.479 112.867,273.357 110.509 C 274.679 106.957,275.231 103.401,275.115 99.176 C 274.981 94.324,274.663 94.166,273.110 98.181 C 267.104 113.710,249.705 126.922,228.600 131.976 C 226.620 132.450,224.370 132.999,223.600 133.195 C 222.168 133.560,219.414 134.055,214.800 134.775 C 206.526 136.066,193.369 136.068,185.200 134.779 C 177.450 133.556,173.932 132.803,167.000 130.884 C 162.059 129.516,152.613 125.346,149.606 123.204 C 148.985 122.762,148.357 122.400,148.210 122.400 C 147.919 122.400,144.323 120.008,144.000 119.600 C 143.890 119.461,142.990 118.783,142.000 118.092 C 135.900 113.840,126.434 101.354,126.405 97.524 C 126.402 97.152,126.220 96.736,126.000 96.600 C 125.780 96.464,125.600 95.913,125.600 95.376 C 125.600 93.257,124.901 94.557,124.673 97.100 M289.067 114.267 C 288.920 114.413,288.800 114.922,288.800 115.398 C 288.800 116.830,286.669 121.810,283.997 126.623 C 282.424 129.458,278.885 133.883,275.304 137.495 C 269.877 142.968,262.108 148.530,255.400 151.742 C 250.150 154.256,246.281 155.792,240.244 157.759 C 234.449 159.647,233.863 159.799,224.600 161.816 C 213.730 164.183,192.501 164.653,181.100 162.778 C 171.958 161.275,168.950 160.615,162.600 158.719 C 148.487 154.505,139.304 149.927,129.770 142.351 C 120.395 134.901,114.377 126.362,110.980 115.691 C 110.849 115.280,110.662 115.280,110.009 115.687 C 108.934 116.359,108.768 125.225,109.811 126.268 C 110.244 126.701,110.346 127.280,110.162 128.260 C 109.963 129.325,110.066 129.760,110.614 130.161 C 111.148 130.551,111.261 130.993,111.072 131.940 C 110.927 132.664,110.986 133.200,111.210 133.200 C 111.425 133.200,111.600 133.650,111.600 134.200 C 111.600 134.828,111.826 135.200,112.208 135.200 C 112.647 135.200,112.749 135.462,112.578 136.146 C 112.410 136.815,112.538 137.167,113.016 137.351 C 113.452 137.518,113.617 137.891,113.483 138.405 C 113.343 138.940,113.473 139.200,113.881 139.200 C 114.317 139.200,114.421 139.463,114.251 140.139 C 114.067 140.872,114.231 141.177,115.000 141.527 C 115.641 141.819,115.902 142.189,115.749 142.588 C 115.600 142.976,115.743 143.200,116.139 143.200 C 116.532 143.200,116.858 143.701,117.017 144.552 C 117.187 145.457,117.598 146.053,118.261 146.355 C 118.984 146.684,119.186 147.014,119.009 147.571 C 118.831 148.133,119.009 148.412,119.683 148.626 C 120.187 148.786,121.285 149.656,122.123 150.559 C 123.753 152.314,124.816 153.904,124.040 153.425 C 123.798 153.275,123.600 153.326,123.600 153.537 C 123.600 153.749,124.136 154.109,124.792 154.337 C 125.447 154.566,126.842 155.530,127.892 156.480 C 130.970 159.266,134.730 162.010,138.400 164.150 C 141.095 165.720,150.651 170.400,151.164 170.400 C 151.410 170.400,151.923 170.559,152.305 170.753 C 153.972 171.601,158.567 173.278,161.200 174.000 C 162.190 174.271,163.450 174.638,164.000 174.815 C 166.095 175.489,173.063 177.025,177.600 177.812 C 190.301 180.016,206.337 180.246,218.400 178.397 C 224.062 177.529,227.336 176.910,231.300 175.960 C 232.125 175.762,233.475 175.443,234.300 175.251 C 235.125 175.060,236.700 174.608,237.800 174.248 C 238.900 173.888,240.430 173.403,241.200 173.170 C 241.970 172.938,242.960 172.597,243.400 172.413 C 243.840 172.229,245.280 171.671,246.600 171.174 C 247.920 170.676,250.503 169.579,252.340 168.735 C 254.177 167.891,255.755 167.200,255.847 167.200 C 255.939 167.200,257.200 166.480,258.648 165.600 C 260.097 164.720,261.360 164.000,261.456 164.000 C 262.578 164.000,275.200 154.063,275.200 153.179 C 275.200 152.971,275.455 152.800,275.767 152.800 C 276.714 152.800,279.484 149.839,279.775 148.516 C 279.967 147.642,280.343 147.201,281.046 147.024 C 281.681 146.865,282.015 146.523,281.961 146.087 C 281.838 145.085,282.401 144.000,283.043 144.000 C 283.349 144.000,283.600 143.770,283.600 143.488 C 283.600 143.207,283.954 142.721,284.388 142.409 C 284.936 142.013,285.105 141.562,284.944 140.921 C 284.772 140.234,284.884 140.000,285.384 140.000 C 285.872 140.000,285.985 139.783,285.800 139.200 C 285.624 138.647,285.728 138.400,286.136 138.400 C 286.527 138.400,286.655 138.133,286.517 137.605 C 286.383 137.091,286.548 136.718,286.984 136.551 C 287.462 136.367,287.590 136.015,287.422 135.346 C 287.251 134.662,287.353 134.400,287.792 134.400 C 288.201 134.400,288.400 134.007,288.400 133.200 C 288.400 132.540,288.582 132.000,288.805 132.000 C 289.053 132.000,289.111 131.382,288.955 130.407 C 288.767 129.232,288.847 128.757,289.259 128.599 C 289.709 128.426,289.816 126.986,289.809 121.192 C 289.800 114.405,289.716 113.617,289.067 114.267 " stroke="none" fill="#7c858d" fill-rule="evenodd"></path><path id="path2" d="M191.800 37.600 C 192.098 38.082,191.940 38.097,187.489 38.005 C 184.783 37.949,184.003 38.053,184.089 38.455 C 184.173 38.850,183.593 38.946,181.687 38.851 C 179.762 38.754,179.201 38.849,179.287 39.256 C 179.373 39.659,178.850 39.755,177.100 39.656 C 175.624 39.573,174.800 39.683,174.800 39.963 C 174.800 40.203,174.170 40.400,173.400 40.400 C 172.478 40.400,172.000 40.588,172.000 40.951 C 172.000 41.367,171.560 41.452,170.200 41.299 C 169.009 41.165,168.400 41.249,168.400 41.548 C 168.400 41.797,167.860 42.000,167.200 42.000 C 166.540 42.000,166.000 42.180,166.000 42.400 C 166.000 42.620,165.460 42.800,164.800 42.800 C 164.140 42.800,163.600 42.980,163.600 43.200 C 163.600 43.420,163.161 43.600,162.624 43.600 C 162.087 43.600,161.536 43.780,161.400 44.000 C 161.264 44.220,160.803 44.400,160.376 44.400 C 159.949 44.400,159.600 44.580,159.600 44.800 C 159.600 45.020,159.161 45.200,158.624 45.200 C 158.087 45.200,157.536 45.380,157.400 45.600 C 157.264 45.820,156.803 46.000,156.376 46.000 C 155.949 46.000,155.600 46.180,155.600 46.400 C 155.600 46.620,155.240 46.800,154.800 46.800 C 154.360 46.800,154.000 46.980,154.000 47.200 C 154.000 47.420,153.640 47.600,153.200 47.600 C 152.760 47.600,152.400 47.780,152.400 48.000 C 152.400 48.220,152.040 48.400,151.600 48.400 C 151.160 48.400,150.800 48.580,150.800 48.800 C 150.800 49.020,150.564 49.200,150.275 49.200 C 149.987 49.200,149.364 49.560,148.892 50.000 C 148.420 50.440,147.756 50.800,147.417 50.800 C 147.078 50.800,146.800 50.936,146.800 51.102 C 146.800 51.269,146.288 51.632,145.661 51.909 C 145.035 52.186,144.320 52.856,144.073 53.399 C 143.788 54.025,143.408 54.301,143.030 54.156 C 142.397 53.913,141.063 55.079,139.890 56.900 C 139.209 57.957,138.037 58.525,138.653 57.500 C 139.076 56.796,137.757 57.870,135.678 59.923 C 134.645 60.943,134.022 61.880,134.151 62.217 C 134.279 62.550,134.004 62.984,133.493 63.257 C 132.136 63.983,131.501 64.764,131.746 65.404 C 131.878 65.748,131.626 66.172,131.132 66.436 C 130.060 67.010,127.212 69.872,126.291 71.300 C 125.628 72.328,124.416 72.946,125.038 71.938 C 125.221 71.643,125.147 71.585,124.835 71.779 C 124.566 71.945,124.438 72.323,124.552 72.619 C 124.667 72.919,124.151 73.655,123.387 74.279 C 120.092 76.972,118.727 78.432,118.952 79.019 C 119.102 79.410,118.835 79.784,118.199 80.073 C 117.656 80.320,116.986 81.035,116.709 81.661 C 116.432 82.288,116.048 82.800,115.856 82.800 C 115.664 82.800,115.604 83.171,115.722 83.624 C 115.857 84.139,115.715 84.534,115.346 84.676 C 115.020 84.801,114.851 85.155,114.969 85.464 C 115.100 85.804,114.782 86.208,114.158 86.492 C 113.326 86.871,113.165 87.178,113.302 88.117 C 113.409 88.846,113.274 89.350,112.936 89.480 C 112.641 89.593,112.400 89.936,112.400 90.243 C 112.400 90.549,112.200 90.800,111.955 90.800 C 111.684 90.800,111.581 91.286,111.691 92.037 C 111.809 92.840,111.684 93.346,111.336 93.480 C 111.013 93.604,110.800 94.314,110.800 95.266 C 110.800 96.344,110.655 96.758,110.346 96.566 C 110.019 96.365,109.945 96.930,110.082 98.580 C 110.222 100.267,110.130 100.929,109.736 101.080 C 108.944 101.384,108.971 109.026,109.765 109.331 C 110.383 109.568,110.187 112.880,109.540 113.133 C 109.109 113.303,109.090 116.000,109.520 116.000 C 109.696 116.000,110.050 115.790,110.307 115.533 C 110.663 115.177,110.818 115.201,110.958 115.633 C 113.095 122.207,115.082 126.141,118.734 131.027 C 126.311 141.163,137.926 149.555,152.200 155.207 C 155.885 156.666,157.110 157.080,162.600 158.719 C 168.950 160.615,171.958 161.275,181.100 162.778 C 192.501 164.653,213.730 164.183,224.600 161.816 C 233.675 159.840,234.567 159.609,240.244 157.759 C 246.281 155.792,250.150 154.256,255.400 151.742 C 257.369 150.799,257.823 150.548,261.800 148.199 C 270.007 143.351,280.224 133.421,283.997 126.623 C 286.725 121.710,288.800 116.825,288.800 115.318 C 288.800 114.800,289.070 114.271,289.400 114.145 C 290.124 113.867,290.321 97.200,289.600 97.200 C 289.380 97.200,289.200 96.589,289.200 95.843 C 289.200 95.077,288.966 94.396,288.664 94.280 C 288.316 94.146,288.191 93.640,288.309 92.837 C 288.419 92.086,288.316 91.600,288.045 91.600 C 287.800 91.600,287.600 91.229,287.600 90.776 C 287.600 90.323,287.420 90.064,287.200 90.200 C 286.962 90.347,286.800 89.871,286.800 89.024 C 286.800 88.241,286.620 87.600,286.400 87.600 C 286.180 87.600,286.000 87.240,286.000 86.800 C 286.000 86.360,285.820 86.000,285.600 86.000 C 285.380 86.000,285.200 85.717,285.200 85.371 C 285.200 84.626,284.203 83.531,283.848 83.886 C 283.711 84.022,283.600 83.730,283.600 83.238 C 283.600 82.394,282.525 80.913,282.029 81.074 C 281.903 81.114,281.856 80.875,281.925 80.542 C 281.993 80.209,281.678 79.615,281.225 79.221 C 280.771 78.828,280.400 78.301,280.400 78.050 C 280.400 77.499,269.221 66.254,268.052 65.628 C 267.572 65.371,267.323 64.946,267.453 64.605 C 267.593 64.241,266.877 63.283,265.538 62.044 C 262.624 59.348,261.636 58.349,260.000 56.442 C 259.107 55.402,258.345 54.869,257.895 54.970 C 257.472 55.064,257.006 54.785,256.732 54.272 C 256.099 53.089,255.357 52.400,254.717 52.400 C 254.420 52.400,253.917 52.040,253.600 51.600 C 253.283 51.160,252.703 50.800,252.312 50.800 C 251.920 50.800,251.600 50.620,251.600 50.400 C 251.600 50.180,251.240 50.000,250.800 50.000 C 250.360 50.000,250.000 49.799,250.000 49.553 C 250.000 49.299,249.645 49.200,249.176 49.322 C 248.671 49.454,248.266 49.317,248.133 48.969 C 248.013 48.656,247.563 48.400,247.134 48.400 C 246.644 48.400,246.460 48.227,246.639 47.937 C 246.836 47.618,246.649 47.546,246.038 47.706 C 245.459 47.857,245.072 47.732,244.924 47.346 C 244.799 47.020,244.443 46.851,244.133 46.970 C 243.823 47.089,243.465 46.914,243.337 46.581 C 243.192 46.201,242.825 46.065,242.353 46.215 C 241.834 46.380,241.600 46.259,241.600 45.827 C 241.600 45.482,241.330 45.200,241.000 45.200 C 240.670 45.200,240.400 45.020,240.400 44.800 C 240.400 44.580,239.860 44.400,239.200 44.400 C 238.540 44.400,238.000 44.220,238.000 44.000 C 238.000 43.780,237.640 43.600,237.200 43.600 C 236.760 43.600,236.400 43.420,236.400 43.200 C 236.400 42.980,235.871 42.800,235.224 42.800 C 234.577 42.800,233.928 42.608,233.783 42.373 C 233.638 42.138,232.877 42.001,232.092 42.069 C 231.216 42.144,230.600 42.000,230.499 41.696 C 230.408 41.423,229.898 41.200,229.367 41.200 C 228.835 41.200,228.400 41.020,228.400 40.800 C 228.400 40.580,227.399 40.400,226.176 40.400 C 224.796 40.400,224.047 40.248,224.200 40.000 C 224.349 39.758,223.804 39.600,222.824 39.600 C 221.931 39.600,221.200 39.420,221.200 39.200 C 221.200 38.978,220.133 38.800,218.800 38.800 C 217.366 38.800,216.400 38.628,216.400 38.373 C 216.400 38.092,215.008 37.981,212.325 38.047 C 209.462 38.118,208.202 38.007,208.091 37.674 C 207.976 37.329,205.699 37.200,199.743 37.200 C 194.385 37.200,191.638 37.338,191.800 37.600 M197.481 57.256 C 200.418 58.454,201.251 58.895,202.395 59.857 C 204.694 61.791,205.502 65.128,204.300 67.717 C 203.617 69.188,203.200 69.073,203.200 67.413 C 203.200 63.292,194.822 60.379,188.110 62.166 C 183.966 63.269,181.785 65.305,182.076 67.797 C 182.255 69.333,182.178 69.447,181.467 68.700 C 178.263 65.335,180.791 59.846,186.570 57.623 C 188.919 56.719,195.613 56.494,197.481 57.256 M198.563 63.065 C 206.746 66.130,202.511 72.800,192.383 72.800 C 190.186 72.800,188.077 72.635,187.695 72.434 C 187.313 72.232,186.335 71.779,185.523 71.426 C 182.887 70.281,181.676 67.700,182.795 65.609 C 184.455 62.508,193.276 61.085,198.563 63.065 M228.200 76.554 C 235.646 78.024,239.353 82.516,237.136 87.381 C 236.492 88.794,236.000 88.654,236.000 87.058 C 236.000 84.648,231.545 81.524,228.289 81.650 C 227.069 81.697,227.086 81.715,228.600 81.982 C 234.749 83.065,237.399 86.809,234.172 89.853 C 233.386 90.594,232.406 91.200,231.995 91.200 C 231.584 91.200,231.136 91.380,231.000 91.600 C 230.864 91.820,230.234 92.000,229.600 92.000 C 228.966 92.000,228.336 92.180,228.200 92.400 C 227.893 92.897,223.565 92.928,222.319 92.442 C 221.813 92.245,220.608 91.847,219.639 91.558 C 214.854 90.129,213.712 85.495,217.664 83.539 C 219.762 82.500,220.391 82.318,223.800 81.764 L 227.000 81.244 224.056 81.450 C 222.437 81.564,220.637 81.850,220.056 82.085 C 215.918 83.761,215.234 84.380,214.918 86.738 C 214.640 88.811,213.857 88.548,213.187 86.155 C 211.975 81.825,215.681 77.887,222.200 76.577 C 225.423 75.930,225.049 75.932,228.200 76.554 M174.716 87.931 C 180.339 90.068,182.923 94.191,181.100 98.117 C 180.446 99.525,180.000 99.489,180.000 98.031 C 180.000 94.416,172.989 91.246,167.174 92.231 C 165.109 92.581,165.201 92.602,169.000 92.634 C 178.794 92.718,183.317 98.596,176.167 101.947 C 175.525 102.247,174.687 102.652,174.305 102.847 C 172.861 103.582,165.408 103.261,163.333 102.374 C 157.783 100.003,157.720 95.409,163.214 93.595 C 164.146 93.288,164.722 92.974,164.493 92.898 C 162.977 92.392,159.249 95.266,158.843 97.254 C 158.486 98.998,157.865 99.087,157.282 97.477 C 155.799 93.375,158.531 89.712,164.600 87.667 C 166.695 86.962,172.567 87.115,174.716 87.931 M125.600 95.376 C 125.600 95.913,125.780 96.464,126.000 96.600 C 126.220 96.736,126.402 97.152,126.405 97.524 C 126.434 101.354,135.900 113.840,142.000 118.092 C 142.990 118.783,143.890 119.461,144.000 119.600 C 144.323 120.008,147.919 122.400,148.210 122.400 C 148.357 122.400,148.985 122.762,149.606 123.204 C 152.613 125.346,162.059 129.516,167.000 130.884 C 173.932 132.803,177.450 133.556,185.200 134.779 C 193.369 136.068,206.526 136.066,214.800 134.775 C 219.414 134.055,222.168 133.560,223.600 133.195 C 224.370 132.999,226.620 132.450,228.600 131.976 C 249.705 126.922,267.104 113.710,273.110 98.181 C 274.663 94.166,274.981 94.324,275.115 99.176 C 275.231 103.401,274.679 106.957,273.357 110.509 C 272.479 112.867,269.523 118.718,268.800 119.530 C 268.470 119.900,267.448 121.192,266.528 122.402 C 263.392 126.525,254.718 134.116,252.000 135.114 C 251.670 135.235,250.680 135.808,249.800 136.386 C 248.323 137.357,242.192 140.429,240.100 141.248 C 239.605 141.442,238.795 141.768,238.300 141.974 C 237.163 142.446,233.155 143.739,230.800 144.393 C 229.810 144.668,228.550 145.033,228.000 145.204 C 226.314 145.727,220.340 146.874,215.800 147.546 C 208.609 148.609,206.151 148.805,200.021 148.803 C 192.499 148.800,185.961 148.117,178.000 146.504 C 176.350 146.170,174.280 145.754,173.400 145.579 C 172.520 145.404,171.170 145.077,170.400 144.853 C 169.630 144.629,168.370 144.270,167.600 144.056 C 162.646 142.678,155.322 139.565,150.700 136.874 C 149.875 136.393,148.525 135.620,147.700 135.155 C 133.146 126.956,123.437 110.911,124.673 97.100 C 124.901 94.557,125.600 93.257,125.600 95.376 M289.674 120.800 C 289.674 124.716,289.773 125.509,290.237 125.330 C 290.673 125.163,290.800 124.140,290.800 120.800 C 290.800 117.460,290.673 116.437,290.237 116.270 C 289.773 116.091,289.674 116.884,289.674 120.800 M109.200 127.200 C 109.200 128.381,109.713 128.788,110.202 127.996 C 110.524 127.476,110.059 126.000,109.573 126.000 C 109.368 126.000,109.200 126.540,109.200 127.200 M289.067 128.667 C 288.920 128.813,288.800 129.366,288.800 129.895 C 288.800 130.750,288.867 130.790,289.400 130.257 C 289.730 129.927,290.000 129.374,290.000 129.029 C 290.000 128.379,289.534 128.199,289.067 128.667 M110.000 130.595 C 110.000 130.959,110.285 131.542,110.632 131.890 C 111.209 132.466,111.253 132.422,111.132 131.392 C 110.991 130.183,110.000 129.486,110.000 130.595 M288.400 132.600 C 288.400 132.930,288.580 133.200,288.800 133.200 C 289.020 133.200,289.200 132.930,289.200 132.600 C 289.200 132.270,289.020 132.000,288.800 132.000 C 288.580 132.000,288.400 132.270,288.400 132.600 M287.292 134.875 C 287.539 135.617,288.400 135.740,288.400 135.033 C 288.400 134.685,288.115 134.400,287.767 134.400 C 287.418 134.400,287.205 134.614,287.292 134.875 M111.600 135.833 C 111.600 136.182,111.814 136.395,112.075 136.308 C 112.817 136.061,112.940 135.200,112.233 135.200 C 111.885 135.200,111.600 135.485,111.600 135.833 M286.667 136.667 C 286.520 136.813,286.400 137.186,286.400 137.495 C 286.400 137.961,286.503 137.954,287.000 137.457 C 287.330 137.127,287.600 136.754,287.600 136.629 C 287.600 136.315,286.993 136.340,286.667 136.667 M112.400 137.967 C 112.400 138.458,112.658 138.800,113.029 138.800 C 113.402 138.800,113.606 138.528,113.529 138.133 C 113.335 137.130,112.400 136.992,112.400 137.967 M285.692 138.875 C 285.939 139.617,286.800 139.740,286.800 139.033 C 286.800 138.685,286.515 138.400,286.167 138.400 C 285.818 138.400,285.605 138.614,285.692 138.875 M114.800 142.200 C 114.800 142.567,114.993 142.802,115.230 142.723 C 115.466 142.644,115.660 142.409,115.660 142.200 C 115.660 141.991,115.466 141.756,115.230 141.677 C 114.993 141.598,114.800 141.833,114.800 142.200 M115.600 143.629 C 115.600 144.130,116.761 145.372,117.003 145.130 C 117.094 145.039,117.064 144.568,116.937 144.083 C 116.706 143.198,115.600 142.823,115.600 143.629 M282.120 144.757 C 281.658 145.496,281.798 146.000,282.467 146.000 C 282.650 146.000,282.800 145.655,282.800 145.233 C 282.800 144.812,283.025 144.376,283.300 144.265 C 283.640 144.128,283.607 144.053,283.196 144.032 C 282.864 144.014,282.380 144.341,282.120 144.757 M118.000 146.967 C 118.000 147.315,118.285 147.600,118.633 147.600 C 118.982 147.600,119.195 147.386,119.108 147.125 C 118.861 146.383,118.000 146.260,118.000 146.967 M279.863 148.083 C 279.736 148.568,279.706 149.039,279.797 149.130 C 280.039 149.372,281.200 148.130,281.200 147.629 C 281.200 146.823,280.094 147.198,279.863 148.083 M119.900 149.065 C 120.175 149.176,120.400 149.486,120.400 149.755 C 120.400 150.395,122.800 152.978,123.709 153.317 C 124.289 153.534,124.348 153.456,124.033 152.891 C 123.309 151.597,120.494 148.800,119.946 148.832 C 119.541 148.855,119.529 148.915,119.900 149.065 M273.800 154.566 C 272.920 155.476,271.210 157.095,270.000 158.164 C 268.790 159.233,268.160 159.866,268.600 159.571 C 269.040 159.276,270.600 157.992,272.066 156.717 C 273.532 155.443,274.927 154.400,275.166 154.400 C 275.405 154.400,275.600 154.145,275.600 153.833 C 275.600 153.522,275.825 153.176,276.100 153.065 C 276.427 152.933,276.393 152.871,276.000 152.887 C 275.670 152.900,274.680 153.655,273.800 154.566 M127.265 156.500 C 131.206 159.802,137.091 164.191,138.926 165.197 C 142.638 167.231,148.351 169.976,151.500 171.239 C 153.905 172.204,154.654 172.521,155.295 172.847 C 155.677 173.041,156.264 173.200,156.600 173.200 C 156.936 173.200,157.523 173.362,157.905 173.561 C 158.287 173.760,159.410 174.137,160.400 174.400 C 161.390 174.663,162.513 175.040,162.895 175.239 C 163.277 175.438,164.031 175.600,164.571 175.600 C 165.111 175.600,165.652 175.761,165.774 175.958 C 165.895 176.155,166.671 176.413,167.497 176.532 C 168.324 176.651,169.900 176.949,171.000 177.195 C 173.004 177.643,175.319 178.074,179.800 178.834 C 190.029 180.568,210.678 180.563,220.100 178.824 C 221.365 178.591,223.345 178.230,224.500 178.021 C 225.655 177.813,227.455 177.453,228.500 177.221 C 232.219 176.397,234.215 175.961,235.305 175.736 C 235.913 175.610,236.508 175.349,236.629 175.154 C 236.749 174.959,237.289 174.800,237.829 174.800 C 238.369 174.800,239.123 174.642,239.505 174.449 C 239.887 174.256,240.920 173.884,241.800 173.623 C 242.680 173.361,243.805 172.979,244.300 172.774 C 244.795 172.568,245.695 172.199,246.300 171.953 C 246.905 171.708,247.713 171.348,248.095 171.153 C 248.477 170.959,249.030 170.800,249.324 170.800 C 249.855 170.800,257.524 166.995,260.600 165.205 C 261.480 164.693,262.570 164.077,263.022 163.835 C 263.473 163.594,264.733 162.614,265.822 161.658 L 267.800 159.920 264.718 161.960 C 263.023 163.082,261.556 164.000,261.459 164.000 C 261.361 164.000,260.097 164.720,258.648 165.600 C 257.200 166.480,255.939 167.200,255.847 167.200 C 255.755 167.200,254.177 167.891,252.340 168.735 C 250.503 169.579,247.920 170.676,246.600 171.174 C 245.280 171.671,243.840 172.229,243.400 172.413 C 242.960 172.597,241.970 172.938,241.200 173.170 C 240.430 173.403,238.900 173.888,237.800 174.248 C 236.700 174.608,235.170 175.051,234.400 175.233 C 233.630 175.415,232.280 175.734,231.400 175.941 C 218.079 179.088,204.328 180.289,191.800 179.399 C 187.400 179.087,183.170 178.726,182.400 178.597 C 181.630 178.468,179.920 178.183,178.600 177.963 C 173.404 177.097,166.398 175.587,164.000 174.815 C 163.450 174.638,162.190 174.271,161.200 174.000 C 158.567 173.278,153.972 171.601,152.305 170.753 C 151.923 170.559,151.410 170.400,151.164 170.400 C 150.651 170.400,141.095 165.720,138.400 164.150 C 134.709 161.998,131.099 159.357,127.668 156.300 C 126.495 155.255,125.361 154.400,125.147 154.400 C 124.933 154.400,125.886 155.345,127.265 156.500 M153.343 248.955 C 148.022 251.911,150.901 258.487,156.462 256.078 C 159.273 254.860,159.202 249.657,156.370 249.266 C 155.836 249.193,155.229 248.968,155.020 248.766 C 154.565 248.328,154.448 248.341,153.343 248.955 M192.377 251.826 C 190.483 253.839,192.422 258.800,195.104 258.800 C 196.997 258.800,200.650 255.849,199.577 255.186 C 199.332 255.034,199.165 254.570,199.208 254.155 C 199.509 251.181,194.569 249.497,192.377 251.826 M228.804 280.996 C 228.532 281.323,228.177 281.509,228.014 281.409 C 227.528 281.108,226.750 284.096,226.926 285.591 C 227.258 288.418,233.378 289.321,234.189 286.663 C 235.439 282.568,231.200 278.108,228.804 280.996 M160.954 294.026 C 158.851 295.190,158.868 299.336,160.980 300.353 C 163.212 301.426,164.984 301.264,166.314 299.864 C 169.573 296.432,165.205 291.674,160.954 294.026 M195.682 313.393 C 194.081 315.287,193.989 315.807,194.919 317.696 C 195.841 319.567,197.048 320.400,198.837 320.400 C 200.219 320.400,200.400 319.869,200.400 315.807 L 200.400 312.480 198.382 312.533 C 196.895 312.572,196.185 312.798,195.682 313.393 " stroke="none" fill="#acd3d7" fill-rule="evenodd"></path><path id="path3" d="M188.033 62.610 C 181.621 64.410,180.273 69.145,185.523 71.426 C 186.335 71.779,187.313 72.232,187.695 72.434 C 190.610 73.971,199.449 72.298,201.798 69.765 C 205.952 65.283,196.328 60.281,188.033 62.610 M223.000 81.843 C 214.506 83.010,212.306 89.368,219.639 91.558 C 220.608 91.847,221.813 92.245,222.319 92.442 C 223.565 92.928,227.893 92.897,228.200 92.400 C 228.336 92.180,228.966 92.000,229.600 92.000 C 230.234 92.000,230.864 91.820,231.000 91.600 C 231.136 91.380,231.584 91.200,231.995 91.200 C 233.363 91.200,235.600 88.673,235.600 87.128 C 235.600 83.795,228.987 81.021,223.000 81.843 M165.763 92.787 C 158.087 94.427,156.782 99.576,163.333 102.374 C 165.408 103.261,172.861 103.582,174.305 102.847 C 174.687 102.652,175.525 102.247,176.167 101.947 C 184.258 98.155,175.740 90.655,165.763 92.787 M124.400 158.200 C 124.400 160.467,124.561 162.000,124.800 162.000 C 125.047 162.000,125.200 164.075,125.200 167.424 C 125.200 170.937,125.341 172.760,125.600 172.600 C 125.859 172.440,126.000 174.263,126.000 177.776 C 126.000 181.125,126.153 183.200,126.400 183.200 C 126.646 183.200,126.800 185.200,126.800 188.400 C 126.800 191.600,126.954 193.600,127.200 193.600 C 127.447 193.600,127.600 195.667,127.600 199.000 C 127.600 202.333,127.753 204.400,128.000 204.400 C 128.246 204.400,128.400 206.400,128.400 209.600 C 128.400 212.800,128.554 214.800,128.800 214.800 C 129.047 214.800,129.200 216.867,129.200 220.200 C 129.200 223.533,129.353 225.600,129.600 225.600 C 129.846 225.600,130.000 227.600,130.000 230.800 C 130.000 234.000,130.154 236.000,130.400 236.000 C 130.647 236.000,130.800 238.067,130.800 241.400 C 130.800 244.733,130.953 246.800,131.200 246.800 C 131.446 246.800,131.600 248.800,131.600 252.000 C 131.600 255.200,131.754 257.200,132.000 257.200 C 132.247 257.200,132.400 259.275,132.400 262.624 C 132.400 266.137,132.541 267.960,132.800 267.800 C 133.059 267.640,133.200 269.463,133.200 272.976 C 133.200 276.325,133.353 278.400,133.600 278.400 C 133.846 278.400,134.000 280.400,134.000 283.600 C 134.000 286.800,134.154 288.800,134.400 288.800 C 134.647 288.800,134.800 290.867,134.800 294.200 C 134.800 297.533,134.953 299.600,135.200 299.600 C 135.445 299.600,135.600 301.533,135.600 304.600 C 135.600 307.667,135.755 309.600,136.000 309.600 C 136.253 309.600,136.400 312.467,136.400 317.400 C 136.400 322.333,136.547 325.200,136.800 325.200 C 137.020 325.200,137.200 325.920,137.200 326.800 C 137.200 327.680,137.380 328.400,137.600 328.400 C 137.820 328.400,138.000 328.940,138.000 329.600 C 138.000 330.260,138.180 330.800,138.400 330.800 C 138.620 330.800,138.800 331.160,138.800 331.600 C 138.800 332.040,138.980 332.400,139.200 332.400 C 139.420 332.400,139.600 332.760,139.600 333.200 C 139.600 333.640,139.780 334.000,140.000 334.000 C 140.220 334.000,140.400 334.360,140.400 334.800 C 140.400 335.240,140.580 335.600,140.800 335.600 C 141.020 335.600,141.200 335.920,141.200 336.312 C 141.200 336.703,141.560 337.283,142.000 337.600 C 142.440 337.917,142.800 338.419,142.800 338.714 C 142.800 339.010,143.664 340.095,144.721 341.126 C 145.777 342.157,146.761 343.315,146.908 343.700 C 147.055 344.085,147.371 344.400,147.610 344.400 C 147.849 344.400,149.104 345.480,150.400 346.800 C 151.696 348.120,152.996 349.200,153.290 349.200 C 153.583 349.200,154.083 349.560,154.400 350.000 C 154.717 350.440,155.257 350.800,155.600 350.800 C 155.943 350.800,156.483 351.160,156.800 351.600 C 157.117 352.040,157.697 352.400,158.088 352.400 C 158.480 352.400,158.800 352.580,158.800 352.800 C 158.800 353.020,159.120 353.200,159.512 353.200 C 159.903 353.200,160.483 353.560,160.800 354.000 C 161.117 354.440,161.697 354.800,162.088 354.800 C 162.480 354.800,162.800 354.980,162.800 355.200 C 162.800 355.420,163.160 355.600,163.600 355.600 C 164.040 355.600,164.400 355.780,164.400 356.000 C 164.400 356.220,164.940 356.400,165.600 356.400 C 166.260 356.400,166.800 356.580,166.800 356.800 C 166.800 357.020,167.160 357.200,167.600 357.200 C 168.040 357.200,168.400 357.380,168.400 357.600 C 168.400 357.820,168.940 358.000,169.600 358.000 C 170.260 358.000,170.800 358.180,170.800 358.400 C 170.800 358.620,171.149 358.800,171.576 358.800 C 172.003 358.800,172.464 358.980,172.600 359.200 C 172.736 359.420,173.276 359.600,173.800 359.600 C 174.324 359.600,174.864 359.780,175.000 360.000 C 175.136 360.220,176.047 360.400,177.024 360.400 C 178.001 360.400,178.800 360.580,178.800 360.800 C 178.800 361.020,179.520 361.200,180.400 361.200 C 181.280 361.200,182.000 361.380,182.000 361.600 C 182.000 361.820,182.885 362.000,183.967 362.000 C 185.048 362.000,185.993 362.173,186.067 362.386 C 186.192 362.747,191.694 362.858,207.324 362.816 C 211.167 362.806,213.160 362.660,213.000 362.400 C 212.847 362.152,213.596 362.000,214.976 362.000 C 216.199 362.000,217.200 361.820,217.200 361.600 C 217.200 361.380,218.100 361.200,219.200 361.200 C 220.300 361.200,221.200 361.020,221.200 360.800 C 221.200 360.580,221.920 360.400,222.800 360.400 C 223.680 360.400,224.400 360.220,224.400 360.000 C 224.400 359.780,224.940 359.600,225.600 359.600 C 226.260 359.600,226.800 359.420,226.800 359.200 C 226.800 358.980,227.340 358.800,228.000 358.800 C 228.660 358.800,229.200 358.620,229.200 358.400 C 229.200 358.180,229.560 358.000,230.000 358.000 C 230.440 358.000,230.800 357.820,230.800 357.600 C 230.800 357.380,231.340 357.200,232.000 357.200 C 232.660 357.200,233.200 357.020,233.200 356.800 C 233.200 356.580,233.560 356.400,234.000 356.400 C 234.440 356.400,234.800 356.220,234.800 356.000 C 234.800 355.780,235.160 355.600,235.600 355.600 C 236.040 355.600,236.400 355.420,236.400 355.200 C 236.400 354.980,236.760 354.800,237.200 354.800 C 237.640 354.800,238.000 354.620,238.000 354.400 C 238.000 354.180,238.360 354.000,238.800 354.000 C 239.240 354.000,239.600 353.820,239.600 353.600 C 239.600 353.380,239.920 353.200,240.312 353.200 C 240.703 353.200,241.283 352.840,241.600 352.400 C 241.917 351.960,242.497 351.600,242.888 351.600 C 243.280 351.600,243.600 351.420,243.600 351.200 C 243.600 350.980,243.888 350.800,244.240 350.800 C 244.591 350.800,245.383 350.260,246.000 349.600 C 246.617 348.940,247.312 348.400,247.547 348.400 C 248.088 348.400,256.400 340.109,256.400 339.569 C 256.400 339.348,256.760 338.780,257.200 338.308 C 257.640 337.836,258.000 337.213,258.000 336.925 C 258.000 336.636,258.180 336.400,258.400 336.400 C 258.620 336.400,258.800 336.040,258.800 335.600 C 258.800 335.160,258.980 334.800,259.200 334.800 C 259.420 334.800,259.600 334.440,259.600 334.000 C 259.600 333.560,259.780 333.200,260.000 333.200 C 260.220 333.200,260.400 332.840,260.400 332.400 C 260.400 331.960,260.580 331.600,260.800 331.600 C 261.020 331.600,261.200 331.240,261.200 330.800 C 261.200 330.360,261.380 330.000,261.600 330.000 C 261.820 330.000,262.000 329.460,262.000 328.800 C 262.000 328.140,262.180 327.600,262.400 327.600 C 262.620 327.600,262.800 326.700,262.800 325.600 C 262.800 324.500,262.980 323.600,263.200 323.600 C 263.437 323.600,263.600 322.141,263.600 320.024 C 263.600 318.057,263.780 316.336,264.000 316.200 C 264.240 316.052,264.400 313.388,264.400 309.553 C 264.400 305.388,264.540 303.239,264.800 303.400 C 265.059 303.560,265.200 301.671,265.200 298.024 C 265.200 294.541,265.352 292.400,265.600 292.400 C 265.848 292.400,266.000 290.267,266.000 286.800 C 266.000 283.333,266.152 281.200,266.400 281.200 C 266.647 281.200,266.800 279.133,266.800 275.800 C 266.800 272.467,266.953 270.400,267.200 270.400 C 267.448 270.400,267.600 268.267,267.600 264.800 C 267.600 261.333,267.752 259.200,268.000 259.200 C 268.248 259.200,268.400 257.067,268.400 253.600 C 268.400 250.133,268.552 248.000,268.800 248.000 C 269.047 248.000,269.200 245.933,269.200 242.600 C 269.200 239.267,269.353 237.200,269.600 237.200 C 269.848 237.200,270.000 235.067,270.000 231.600 C 270.000 228.133,270.152 226.000,270.400 226.000 C 270.648 226.000,270.800 223.859,270.800 220.376 C 270.800 216.729,270.941 214.840,271.200 215.000 C 271.459 215.160,271.600 213.271,271.600 209.624 C 271.600 206.141,271.752 204.000,272.000 204.000 C 272.248 204.000,272.400 201.867,272.400 198.400 C 272.400 194.933,272.552 192.800,272.800 192.800 C 273.048 192.800,273.200 190.667,273.200 187.200 C 273.200 183.733,273.352 181.600,273.600 181.600 C 273.847 181.600,274.000 179.533,274.000 176.200 C 274.000 172.867,274.153 170.800,274.400 170.800 C 274.648 170.800,274.800 168.667,274.800 165.200 C 274.800 161.733,274.952 159.600,275.200 159.600 C 275.426 159.600,275.600 158.467,275.600 157.000 C 275.600 153.786,275.487 153.783,271.843 156.900 C 268.480 159.776,264.733 162.711,263.234 163.643 C 259.450 165.997,250.115 170.800,249.324 170.800 C 249.030 170.800,248.477 170.959,248.095 171.153 C 247.434 171.489,245.954 172.125,244.200 172.827 C 243.760 173.003,242.680 173.361,241.800 173.623 C 240.920 173.884,239.887 174.256,239.505 174.449 C 239.123 174.642,238.369 174.800,237.829 174.800 C 237.289 174.800,236.749 174.959,236.629 175.154 C 236.508 175.349,235.913 175.610,235.305 175.736 C 234.215 175.961,232.219 176.397,228.500 177.221 C 227.455 177.453,225.655 177.813,224.500 178.021 C 223.345 178.230,221.365 178.591,220.100 178.824 C 210.678 180.563,190.029 180.568,179.800 178.834 C 175.319 178.074,173.004 177.643,171.000 177.195 C 169.900 176.949,168.324 176.651,167.497 176.532 C 166.671 176.413,165.895 176.155,165.774 175.958 C 165.652 175.761,165.111 175.600,164.571 175.600 C 164.031 175.600,163.277 175.438,162.895 175.239 C 162.513 175.040,161.390 174.663,160.400 174.400 C 159.410 174.137,158.287 173.760,157.905 173.561 C 157.523 173.362,156.936 173.200,156.600 173.200 C 156.264 173.200,155.677 173.041,155.295 172.847 C 154.576 172.481,152.796 171.722,151.400 171.186 C 148.756 170.169,142.659 167.242,138.926 165.197 C 137.091 164.191,131.206 159.802,127.265 156.500 C 125.886 155.345,124.678 154.400,124.579 154.400 C 124.481 154.400,124.400 156.110,124.400 158.200 M143.526 216.902 C 143.604 217.069,143.807 217.119,143.976 217.015 C 144.145 216.910,144.701 217.269,145.212 217.812 C 145.722 218.356,146.344 218.800,146.594 218.800 C 146.844 218.800,147.398 219.115,147.825 219.500 C 148.921 220.489,151.936 222.000,152.814 222.000 C 153.220 222.000,153.666 222.183,153.804 222.407 C 153.942 222.630,154.202 222.722,154.382 222.611 C 154.562 222.500,154.922 222.664,155.181 222.977 C 155.440 223.289,156.189 223.530,156.845 223.511 C 157.501 223.492,158.245 223.685,158.499 223.939 C 158.752 224.192,159.543 224.400,160.256 224.400 C 160.969 224.400,161.664 224.580,161.800 224.800 C 161.936 225.020,162.997 225.200,164.157 225.200 C 165.317 225.200,166.392 225.325,166.545 225.478 C 167.019 225.952,191.250 226.057,191.815 225.588 C 192.112 225.341,193.933 225.217,196.259 225.285 L 200.200 225.400 200.259 240.000 C 200.294 248.756,200.163 254.890,199.931 255.326 C 199.674 255.807,199.689 256.226,199.975 256.570 C 200.277 256.934,200.401 269.024,200.388 296.911 L 200.371 336.733 195.685 336.553 C 190.783 336.366,189.112 336.196,185.800 335.550 C 184.700 335.335,183.124 335.059,182.297 334.937 C 181.471 334.815,180.695 334.555,180.574 334.358 C 180.452 334.161,179.744 334.000,179.000 334.000 C 178.256 334.000,177.536 333.820,177.400 333.600 C 177.264 333.380,176.885 333.200,176.557 333.200 C 176.229 333.200,175.216 332.840,174.306 332.400 C 173.395 331.960,172.460 331.600,172.228 331.600 C 171.529 331.600,162.891 327.192,162.378 326.574 C 162.116 326.258,161.688 326.000,161.426 326.000 C 161.164 326.000,160.432 325.460,159.800 324.800 C 159.168 324.140,158.463 323.600,158.234 323.600 C 157.675 323.600,151.600 317.537,151.600 316.979 C 151.600 316.737,151.135 316.103,150.566 315.570 C 149.997 315.036,149.177 313.880,148.744 313.000 C 148.310 312.120,147.667 310.860,147.313 310.200 C 146.176 308.078,146.000 307.626,146.000 306.829 C 146.000 306.399,145.839 305.948,145.642 305.826 C 145.058 305.465,144.746 302.653,144.375 294.400 C 144.181 290.110,143.846 284.260,143.629 281.400 C 143.413 278.540,143.044 273.680,142.810 270.600 C 142.576 267.520,142.205 262.570,141.986 259.600 C 141.767 256.630,141.409 251.860,141.191 249.000 C 140.973 246.140,140.624 241.550,140.415 238.800 C 140.206 236.050,139.843 231.280,139.607 228.200 C 138.934 219.407,138.706 214.021,138.979 213.311 C 139.204 212.724,142.951 215.683,143.526 216.902 M210.177 226.168 C 212.650 227.420,214.279 228.995,215.212 231.035 C 215.624 231.934,216.239 232.901,216.580 233.184 C 216.921 233.466,217.200 234.030,217.200 234.437 C 217.200 234.843,217.560 235.817,218.000 236.600 C 218.440 237.383,218.800 238.357,218.800 238.763 C 218.800 239.170,219.068 239.724,219.396 239.996 C 219.723 240.268,219.900 240.638,219.789 240.818 C 219.678 240.998,219.770 241.258,219.993 241.396 C 220.217 241.534,220.400 241.969,220.400 242.362 C 220.400 243.195,221.477 245.477,222.032 245.820 C 222.242 245.949,222.328 246.192,222.225 246.360 C 222.122 246.527,223.019 247.633,224.218 248.818 C 225.418 250.003,226.400 250.816,226.400 250.624 C 226.400 250.433,226.715 250.529,227.100 250.838 C 228.428 251.904,229.593 252.400,230.771 252.400 C 231.421 252.400,232.059 252.572,232.188 252.781 C 232.530 253.334,248.835 253.269,249.506 252.712 C 250.046 252.264,257.788 252.222,258.503 252.663 C 258.707 252.790,258.767 253.638,258.634 254.547 C 258.501 255.456,258.202 258.900,257.968 262.200 C 257.735 265.500,257.371 270.540,257.160 273.400 C 256.949 276.260,256.699 280.670,256.604 283.200 C 256.509 285.730,256.314 288.160,256.170 288.600 C 256.027 289.040,255.759 291.470,255.575 294.000 C 254.830 304.245,254.553 305.659,252.442 310.000 C 251.248 312.454,250.647 313.464,249.864 314.329 C 249.499 314.733,249.200 315.239,249.200 315.453 C 249.200 315.668,248.553 316.463,247.761 317.222 C 246.970 317.980,246.164 319.005,245.971 319.500 C 245.778 319.995,245.385 320.400,245.097 320.400 C 244.810 320.400,243.506 321.480,242.200 322.800 C 240.894 324.120,239.622 325.200,239.375 325.200 C 239.127 325.200,238.598 325.560,238.200 326.000 C 237.802 326.440,237.256 326.800,236.987 326.800 C 236.718 326.800,236.281 327.062,236.015 327.382 C 235.469 328.040,230.053 330.800,229.309 330.800 C 229.042 330.800,228.183 331.160,227.400 331.600 C 226.617 332.040,225.632 332.400,225.211 332.400 C 224.791 332.400,224.336 332.580,224.200 332.800 C 224.064 333.020,223.601 333.200,223.171 333.200 C 222.741 333.200,222.077 333.358,221.695 333.551 C 220.394 334.208,218.146 334.800,216.952 334.800 C 216.296 334.800,215.589 334.963,215.380 335.161 C 215.017 335.506,213.523 335.757,208.900 336.250 L 206.800 336.474 206.800 280.837 C 206.800 217.804,206.401 224.257,210.177 226.168 " stroke="none" fill="#a4dbe4" fill-rule="evenodd"></path><path id="path4" d="M190.000 37.576 C 190.000 37.783,190.164 38.054,190.364 38.178 C 190.881 38.497,192.040 37.988,191.774 37.558 C 191.480 37.082,190.000 37.097,190.000 37.576 M208.000 37.557 C 208.000 38.024,209.168 38.467,209.636 38.178 C 210.341 37.742,209.988 37.200,209.000 37.200 C 208.450 37.200,208.000 37.361,208.000 37.557 M182.887 38.462 C 183.095 39.085,183.990 39.194,184.021 38.600 C 184.033 38.380,183.742 38.138,183.375 38.062 C 182.958 37.975,182.775 38.125,182.887 38.462 M178.087 39.262 C 178.295 39.885,179.190 39.994,179.221 39.400 C 179.233 39.180,178.942 38.938,178.575 38.862 C 178.158 38.775,177.975 38.925,178.087 39.262 M170.892 40.875 C 171.139 41.617,172.000 41.740,172.000 41.033 C 172.000 40.685,171.715 40.400,171.367 40.400 C 171.018 40.400,170.805 40.614,170.892 40.875 M230.477 41.630 C 230.555 41.867,230.791 42.060,231.000 42.060 C 231.209 42.060,231.445 41.867,231.523 41.630 C 231.602 41.394,231.367 41.200,231.000 41.200 C 230.633 41.200,230.398 41.394,230.477 41.630 M241.600 45.833 C 241.600 46.540,242.461 46.417,242.708 45.675 C 242.795 45.414,242.582 45.200,242.233 45.200 C 241.885 45.200,241.600 45.485,241.600 45.833 M243.277 46.430 C 243.356 46.667,243.591 46.860,243.800 46.860 C 244.009 46.860,244.245 46.667,244.323 46.430 C 244.402 46.194,244.167 46.000,243.800 46.000 C 243.433 46.000,243.198 46.194,243.277 46.430 M244.877 47.230 C 244.956 47.467,245.191 47.660,245.400 47.660 C 245.609 47.660,245.845 47.467,245.923 47.230 C 246.002 46.994,245.767 46.800,245.400 46.800 C 245.033 46.800,244.798 46.994,244.877 47.230 M248.077 48.830 C 248.155 49.067,248.391 49.260,248.600 49.260 C 248.809 49.260,249.045 49.067,249.123 48.830 C 249.202 48.594,248.967 48.400,248.600 48.400 C 248.233 48.400,247.998 48.594,248.077 48.830 M142.877 53.630 C 142.956 53.867,143.191 54.060,143.400 54.060 C 143.609 54.060,143.845 53.867,143.923 53.630 C 144.002 53.394,143.767 53.200,143.400 53.200 C 143.033 53.200,142.798 53.394,142.877 53.630 M256.877 54.430 C 256.955 54.666,257.191 54.860,257.400 54.860 C 257.609 54.860,257.845 54.666,257.923 54.430 C 258.002 54.194,257.767 54.000,257.400 54.000 C 257.033 54.000,256.798 54.194,256.877 54.430 M138.800 57.024 C 138.800 57.406,138.607 57.538,138.300 57.365 C 137.908 57.144,137.904 57.195,138.283 57.604 C 138.676 58.029,138.881 58.031,139.383 57.614 C 140.167 56.964,140.175 56.400,139.400 56.400 C 139.070 56.400,138.800 56.681,138.800 57.024 M261.600 58.338 C 261.600 58.725,262.928 60.000,263.331 60.000 C 263.799 60.000,263.622 59.165,263.029 58.571 C 262.398 57.941,261.600 57.810,261.600 58.338 M133.200 62.600 C 133.200 62.967,133.393 63.202,133.630 63.123 C 133.867 63.044,134.060 62.809,134.060 62.600 C 134.060 62.391,133.867 62.156,133.630 62.077 C 133.393 61.998,133.200 62.233,133.200 62.600 M267.478 64.656 C 267.158 64.975,267.519 65.600,268.024 65.600 C 268.231 65.600,268.400 65.330,268.400 65.000 C 268.400 64.381,267.928 64.205,267.478 64.656 M130.800 65.800 C 130.800 66.167,130.994 66.402,131.230 66.323 C 131.466 66.245,131.660 66.009,131.660 65.800 C 131.660 65.591,131.466 65.356,131.230 65.277 C 130.994 65.198,130.800 65.433,130.800 65.800 M125.200 71.424 C 125.200 71.806,125.007 71.938,124.700 71.765 C 124.308 71.544,124.304 71.595,124.683 72.004 C 125.076 72.429,125.281 72.431,125.783 72.014 C 126.567 71.364,126.575 70.800,125.800 70.800 C 125.470 70.800,125.200 71.081,125.200 71.424 M122.900 73.410 C 121.991 74.381,121.728 75.200,122.325 75.200 C 122.871 75.200,124.830 72.963,124.539 72.672 C 124.123 72.256,123.876 72.367,122.900 73.410 M118.000 79.400 C 118.000 79.767,118.194 80.002,118.430 79.923 C 118.666 79.844,118.860 79.609,118.860 79.400 C 118.860 79.191,118.666 78.956,118.430 78.877 C 118.194 78.798,118.000 79.033,118.000 79.400 M281.817 80.772 C 281.544 81.214,282.175 81.692,282.544 81.322 C 282.925 80.942,282.854 80.400,282.424 80.400 C 282.217 80.400,281.944 80.568,281.817 80.772 M114.800 84.200 C 114.800 84.567,114.993 84.802,115.230 84.723 C 115.466 84.644,115.660 84.409,115.660 84.200 C 115.660 83.991,115.466 83.756,115.230 83.677 C 114.993 83.598,114.800 83.833,114.800 84.200 M114.000 85.800 C 114.000 86.167,114.194 86.402,114.430 86.323 C 114.666 86.245,114.860 86.009,114.860 85.800 C 114.860 85.591,114.666 85.356,114.430 85.277 C 114.194 85.198,114.000 85.433,114.000 85.800 M112.400 89.000 C 112.400 89.367,112.594 89.602,112.830 89.523 C 113.067 89.445,113.260 89.209,113.260 89.000 C 113.260 88.791,113.067 88.556,112.830 88.477 C 112.594 88.398,112.400 88.633,112.400 89.000 M110.800 93.000 C 110.800 93.367,110.993 93.602,111.230 93.523 C 111.466 93.445,111.660 93.209,111.660 93.000 C 111.660 92.791,111.466 92.556,111.230 92.477 C 110.993 92.398,110.800 92.633,110.800 93.000 M288.278 93.456 C 287.958 93.775,288.319 94.400,288.824 94.400 C 289.031 94.400,289.200 94.130,289.200 93.800 C 289.200 93.181,288.728 93.005,288.278 93.456 M109.200 100.400 C 109.200 100.916,109.403 101.199,109.700 101.100 C 109.975 101.008,110.200 100.693,110.200 100.400 C 110.200 100.107,109.975 99.792,109.700 99.700 C 109.403 99.601,109.200 99.884,109.200 100.400 M109.200 110.000 C 109.200 110.516,109.403 110.799,109.700 110.700 C 109.975 110.608,110.200 110.293,110.200 110.000 C 110.200 109.707,109.975 109.392,109.700 109.300 C 109.403 109.201,109.200 109.484,109.200 110.000 M274.800 160.400 C 274.800 160.840,274.980 161.200,275.200 161.200 C 275.420 161.200,275.600 160.840,275.600 160.400 C 275.600 159.960,275.420 159.600,275.200 159.600 C 274.980 159.600,274.800 159.960,274.800 160.400 M125.412 172.917 C 125.241 173.312,125.213 173.747,125.351 173.884 C 125.757 174.290,126.084 173.720,125.897 172.931 C 125.732 172.233,125.710 172.232,125.412 172.917 M273.200 182.200 C 273.200 182.530,273.380 182.800,273.600 182.800 C 273.820 182.800,274.000 182.530,274.000 182.200 C 274.000 181.870,273.820 181.600,273.600 181.600 C 273.380 181.600,273.200 181.870,273.200 182.200 M126.000 183.800 C 126.000 184.130,126.180 184.400,126.400 184.400 C 126.620 184.400,126.800 184.130,126.800 183.800 C 126.800 183.470,126.620 183.200,126.400 183.200 C 126.180 183.200,126.000 183.470,126.000 183.800 M272.400 193.400 C 272.400 193.730,272.580 194.000,272.800 194.000 C 273.020 194.000,273.200 193.730,273.200 193.400 C 273.200 193.070,273.020 192.800,272.800 192.800 C 272.580 192.800,272.400 193.070,272.400 193.400 M126.800 194.200 C 126.800 194.530,126.980 194.800,127.200 194.800 C 127.420 194.800,127.600 194.530,127.600 194.200 C 127.600 193.870,127.420 193.600,127.200 193.600 C 126.980 193.600,126.800 193.870,126.800 194.200 M271.600 204.600 C 271.600 204.930,271.780 205.200,272.000 205.200 C 272.220 205.200,272.400 204.930,272.400 204.600 C 272.400 204.270,272.220 204.000,272.000 204.000 C 271.780 204.000,271.600 204.270,271.600 204.600 M139.024 213.162 C 138.875 213.403,138.988 213.608,139.276 213.618 C 139.564 213.628,140.605 214.429,141.588 215.397 C 142.571 216.365,143.456 217.077,143.555 216.979 C 143.653 216.880,143.655 216.755,143.558 216.700 C 143.462 216.645,142.463 215.728,141.339 214.662 C 140.077 213.465,139.191 212.891,139.024 213.162 M128.400 215.600 C 128.400 216.040,128.580 216.400,128.800 216.400 C 129.020 216.400,129.200 216.040,129.200 215.600 C 129.200 215.160,129.020 214.800,128.800 214.800 C 128.580 214.800,128.400 215.160,128.400 215.600 M270.800 215.576 C 270.800 216.029,270.980 216.400,271.200 216.400 C 271.420 216.400,271.600 216.141,271.600 215.824 C 271.600 215.507,271.420 215.136,271.200 215.000 C 270.980 214.864,270.800 215.123,270.800 215.576 M144.013 217.100 C 144.019 217.265,144.514 217.746,145.113 218.168 L 146.200 218.936 145.230 217.868 C 144.211 216.746,143.992 216.607,144.013 217.100 M138.914 220.200 C 138.917 221.300,138.995 221.703,139.087 221.095 C 139.179 220.486,139.177 219.586,139.082 219.095 C 138.987 218.603,138.911 219.100,138.914 220.200 M147.256 219.566 C 147.775 219.987,148.277 220.255,148.371 220.161 C 148.576 219.957,147.144 218.831,146.656 218.813 C 146.466 218.806,146.736 219.145,147.256 219.566 M156.800 223.591 C 156.800 223.765,157.245 223.992,157.788 224.096 C 158.331 224.199,158.694 224.152,158.594 223.990 C 158.328 223.560,156.800 223.220,156.800 223.591 M191.852 225.516 C 191.744 225.690,192.273 225.761,193.028 225.673 C 193.783 225.585,194.400 225.442,194.400 225.356 C 194.400 225.055,192.045 225.203,191.852 225.516 M199.910 239.038 C 199.984 248.245,199.885 252.800,199.610 252.800 C 199.385 252.800,199.200 252.590,199.200 252.333 C 199.200 252.077,199.092 251.975,198.960 252.107 C 198.828 252.239,198.867 252.584,199.048 252.873 C 199.228 253.163,199.323 253.805,199.259 254.300 C 199.195 254.795,199.311 255.200,199.517 255.200 C 200.357 255.200,200.930 225.975,200.100 225.462 C 199.935 225.359,199.850 231.469,199.910 239.038 M129.200 226.200 C 129.200 226.530,129.380 226.800,129.600 226.800 C 129.820 226.800,130.000 226.530,130.000 226.200 C 130.000 225.870,129.820 225.600,129.600 225.600 C 129.380 225.600,129.200 225.870,129.200 226.200 M171.200 226.000 C 171.200 226.237,172.667 226.400,174.800 226.400 C 176.933 226.400,178.400 226.237,178.400 226.000 C 178.400 225.763,176.933 225.600,174.800 225.600 C 172.667 225.600,171.200 225.763,171.200 226.000 M270.000 226.800 C 270.000 227.240,270.180 227.600,270.400 227.600 C 270.620 227.600,270.800 227.240,270.800 226.800 C 270.800 226.360,270.620 226.000,270.400 226.000 C 270.180 226.000,270.000 226.360,270.000 226.800 M212.947 228.501 C 213.856 229.436,214.678 230.153,214.774 230.094 C 214.998 229.954,211.926 226.800,211.566 226.800 C 211.416 226.800,212.038 227.565,212.947 228.501 M139.709 231.200 C 139.709 232.190,139.787 232.595,139.882 232.100 C 139.978 231.605,139.978 230.795,139.882 230.300 C 139.787 229.805,139.709 230.210,139.709 231.200 M130.000 236.600 C 130.000 236.930,130.180 237.200,130.400 237.200 C 130.620 237.200,130.800 236.930,130.800 236.600 C 130.800 236.270,130.620 236.000,130.400 236.000 C 130.180 236.000,130.000 236.270,130.000 236.600 M140.514 241.800 C 140.517 242.900,140.595 243.303,140.687 242.695 C 140.779 242.086,140.777 241.186,140.682 240.695 C 140.587 240.203,140.511 240.700,140.514 241.800 M223.800 248.800 C 224.883 249.900,225.860 250.800,225.970 250.800 C 226.080 250.800,225.283 249.900,224.200 248.800 C 223.117 247.700,222.140 246.800,222.030 246.800 C 221.920 246.800,222.717 247.700,223.800 248.800 M268.400 248.600 C 268.400 248.930,268.580 249.200,268.800 249.200 C 269.020 249.200,269.200 248.930,269.200 248.600 C 269.200 248.270,269.020 248.000,268.800 248.000 C 268.580 248.000,268.400 248.270,268.400 248.600 M141.314 252.200 C 141.317 253.300,141.395 253.703,141.487 253.095 C 141.579 252.486,141.577 251.586,141.482 251.095 C 141.387 250.603,141.311 251.100,141.314 252.200 M193.815 250.776 C 193.676 251.001,194.191 251.059,195.091 250.920 C 197.100 250.610,197.261 250.400,195.490 250.400 C 194.697 250.400,193.943 250.569,193.815 250.776 M250.600 252.285 C 249.165 252.630,249.166 253.043,250.600 252.876 C 251.370 252.786,252.000 252.552,252.000 252.356 C 252.000 251.981,251.887 251.976,250.600 252.285 M257.867 252.673 C 258.125 252.857,258.417 253.635,258.518 254.403 C 258.694 255.741,258.700 255.734,258.651 254.231 C 258.618 253.207,258.392 252.606,258.000 252.500 C 257.591 252.390,257.549 252.445,257.867 252.673 M191.309 254.400 C 191.309 255.390,191.387 255.795,191.482 255.300 C 191.578 254.805,191.578 253.995,191.482 253.500 C 191.387 253.005,191.309 253.410,191.309 254.400 M234.400 253.300 C 234.400 253.465,236.920 253.600,240.000 253.600 C 243.080 253.600,245.600 253.465,245.600 253.300 C 245.600 253.135,243.081 253.000,240.001 253.000 C 236.921 253.000,234.401 253.135,234.400 253.300 M156.024 256.214 C 155.487 256.509,154.497 256.671,153.824 256.574 L 152.600 256.399 153.772 256.784 C 154.813 257.126,157.600 256.377,157.600 255.754 C 157.600 255.492,157.043 255.655,156.024 256.214 M191.825 256.887 C 191.940 257.169,192.473 257.721,193.009 258.113 C 193.594 258.540,193.901 258.620,193.775 258.313 C 193.660 258.031,193.127 257.479,192.591 257.087 C 192.006 256.660,191.699 256.580,191.825 256.887 M199.905 284.238 L 200.011 312.000 198.629 312.000 C 197.869 312.000,197.153 312.152,197.039 312.337 C 196.794 312.733,199.282 312.644,199.947 312.233 C 200.467 311.911,200.619 256.983,200.100 256.662 C 199.935 256.560,199.847 268.969,199.905 284.238 M131.600 258.000 C 131.600 258.440,131.780 258.800,132.000 258.800 C 132.220 258.800,132.400 258.440,132.400 258.000 C 132.400 257.560,132.220 257.200,132.000 257.200 C 131.780 257.200,131.600 257.560,131.600 258.000 M267.600 259.800 C 267.600 260.130,267.780 260.400,268.000 260.400 C 268.220 260.400,268.400 260.130,268.400 259.800 C 268.400 259.470,268.220 259.200,268.000 259.200 C 267.780 259.200,267.600 259.470,267.600 259.800 M142.114 262.600 C 142.117 263.700,142.195 264.103,142.287 263.495 C 142.379 262.886,142.377 261.986,142.282 261.495 C 142.187 261.003,142.111 261.500,142.114 262.600 M257.714 265.000 C 257.717 266.100,257.795 266.503,257.887 265.895 C 257.979 265.286,257.977 264.386,257.882 263.895 C 257.787 263.403,257.711 263.900,257.714 265.000 M132.612 268.117 C 132.441 268.512,132.413 268.947,132.551 269.084 C 132.957 269.490,133.284 268.920,133.097 268.131 C 132.932 267.433,132.910 267.432,132.612 268.117 M266.800 271.000 C 266.800 271.330,266.980 271.600,267.200 271.600 C 267.420 271.600,267.600 271.330,267.600 271.000 C 267.600 270.670,267.420 270.400,267.200 270.400 C 266.980 270.400,266.800 270.670,266.800 271.000 M142.909 273.600 C 142.909 274.590,142.987 274.995,143.082 274.500 C 143.178 274.005,143.178 273.195,143.082 272.700 C 142.987 272.205,142.909 272.610,142.909 273.600 M256.914 276.200 C 256.917 277.300,256.995 277.703,257.087 277.095 C 257.179 276.486,257.177 275.586,257.082 275.095 C 256.987 274.603,256.911 275.100,256.914 276.200 M133.200 279.000 C 133.200 279.330,133.380 279.600,133.600 279.600 C 133.820 279.600,134.000 279.330,134.000 279.000 C 134.000 278.670,133.820 278.400,133.600 278.400 C 133.380 278.400,133.200 278.670,133.200 279.000 M266.000 282.000 C 266.000 282.440,266.180 282.800,266.400 282.800 C 266.620 282.800,266.800 282.440,266.800 282.000 C 266.800 281.560,266.620 281.200,266.400 281.200 C 266.180 281.200,266.000 281.560,266.000 282.000 M226.885 282.413 C 226.311 283.331,226.239 285.853,226.776 286.185 C 226.998 286.323,227.062 285.863,226.933 285.064 C 226.812 284.319,226.927 283.310,227.189 282.821 C 227.788 281.702,227.538 281.367,226.885 282.413 M143.714 284.200 C 143.717 285.300,143.795 285.703,143.887 285.095 C 143.979 284.486,143.977 283.586,143.882 283.095 C 143.787 282.603,143.711 283.100,143.714 284.200 M234.427 284.380 C 234.406 285.432,234.511 285.649,234.867 285.293 C 235.212 284.948,235.219 284.588,234.894 283.913 C 234.481 283.056,234.452 283.084,234.427 284.380 M256.000 286.800 C 256.000 287.973,256.074 288.858,256.164 288.767 C 256.468 288.457,256.570 285.236,256.284 284.950 C 256.128 284.794,256.000 285.627,256.000 286.800 M229.600 288.467 C 229.600 288.650,230.140 288.800,230.800 288.800 C 231.460 288.800,232.000 288.650,232.000 288.467 C 232.000 288.283,231.460 288.133,230.800 288.133 C 230.140 288.133,229.600 288.283,229.600 288.467 M134.000 289.400 C 134.000 289.730,134.180 290.000,134.400 290.000 C 134.620 290.000,134.800 289.730,134.800 289.400 C 134.800 289.070,134.620 288.800,134.400 288.800 C 134.180 288.800,134.000 289.070,134.000 289.400 M144.534 294.800 C 144.534 296.450,144.605 297.125,144.691 296.300 C 144.778 295.475,144.778 294.125,144.691 293.300 C 144.605 292.475,144.534 293.150,144.534 294.800 M265.200 293.200 C 265.200 293.640,265.380 294.000,265.600 294.000 C 265.820 294.000,266.000 293.640,266.000 293.200 C 266.000 292.760,265.820 292.400,265.600 292.400 C 265.380 292.400,265.200 292.760,265.200 293.200 M162.600 293.200 C 162.464 293.420,162.734 293.600,163.200 293.600 C 163.666 293.600,163.936 293.420,163.800 293.200 C 163.664 292.980,163.394 292.800,163.200 292.800 C 163.006 292.800,162.736 292.980,162.600 293.200 M165.595 293.991 C 165.828 294.426,166.419 294.989,166.909 295.243 C 167.652 295.627,167.605 295.495,166.625 294.452 C 165.264 293.002,165.003 292.885,165.595 293.991 M159.093 296.246 C 158.983 296.821,159.026 297.766,159.189 298.346 C 159.414 299.150,159.486 298.902,159.496 297.300 C 159.509 294.973,159.394 294.672,159.093 296.246 M144.514 300.200 C 144.517 301.300,144.595 301.703,144.687 301.095 C 144.779 300.486,144.777 299.586,144.682 299.095 C 144.587 298.603,144.511 299.100,144.514 300.200 M135.600 310.200 C 135.600 310.530,135.780 310.800,136.000 310.800 C 136.220 310.800,136.400 310.530,136.400 310.200 C 136.400 309.870,136.220 309.600,136.000 309.600 C 135.780 309.600,135.600 309.870,135.600 310.200 M149.000 313.480 C 149.319 314.119,150.079 315.081,150.690 315.619 L 151.800 316.597 150.700 315.377 C 150.095 314.705,149.600 313.963,149.600 313.727 C 149.600 313.491,149.335 313.078,149.011 312.809 C 148.492 312.379,148.491 312.459,149.000 313.480 M248.800 315.465 C 248.800 316.052,241.337 323.320,238.929 325.079 C 237.790 325.911,236.936 326.669,237.031 326.764 C 237.126 326.859,237.619 326.546,238.127 326.068 C 238.636 325.591,239.226 325.200,239.438 325.200 C 239.651 325.200,240.894 324.120,242.200 322.800 C 243.506 321.480,244.811 320.400,245.100 320.400 C 245.389 320.400,245.735 320.085,245.869 319.700 C 246.004 319.315,246.842 318.239,247.732 317.308 C 248.622 316.378,249.226 315.493,249.075 315.342 C 248.924 315.190,248.800 315.246,248.800 315.465 M194.279 317.100 C 194.567 317.894,195.600 319.497,195.600 319.150 C 195.600 318.802,194.363 316.400,194.183 316.400 C 194.096 316.400,194.139 316.715,194.279 317.100 M151.600 317.137 C 151.600 317.586,157.773 323.600,158.234 323.600 C 158.463 323.600,159.168 324.140,159.800 324.800 C 160.432 325.460,161.097 326.000,161.276 326.000 C 161.455 326.000,160.905 325.370,160.053 324.600 C 159.200 323.830,158.345 323.200,158.152 323.200 C 157.958 323.200,156.405 321.772,154.700 320.027 C 152.995 318.282,151.600 316.982,151.600 317.137 M199.800 328.638 C 199.800 333.127,199.935 336.800,200.100 336.800 C 200.265 336.800,200.400 333.211,200.400 328.824 C 200.400 324.437,200.265 320.764,200.100 320.662 C 199.935 320.560,199.800 324.149,199.800 328.638 M235.816 327.174 C 235.689 327.380,234.592 328.034,233.379 328.628 C 232.166 329.221,231.238 329.771,231.316 329.849 C 231.549 330.082,235.493 328.011,236.016 327.381 C 236.281 327.061,236.397 326.800,236.273 326.800 C 236.149 326.800,235.943 326.968,235.816 327.174 M189.300 336.276 C 189.685 336.376,190.315 336.376,190.700 336.276 C 191.085 336.175,190.770 336.093,190.000 336.093 C 189.230 336.093,188.915 336.175,189.300 336.276 M199.600 363.242 C 199.600 363.439,201.220 363.600,203.200 363.600 C 205.371 363.600,206.800 363.439,206.800 363.194 C 206.800 362.945,205.402 362.806,203.200 362.836 C 201.220 362.862,199.600 363.045,199.600 363.242 " stroke="none" fill="#b2e4ea" fill-rule="evenodd"></path></g></svg>