<svg id="svg" version="1.1" xmlns="http://www.w3.org/2000/svg" xmlns:xlink="http://www.w3.org/1999/xlink" width="400" height="400" viewBox="0, 0, 400,400"><g id="svgg"><path id="path0" d="M30.524 117.299 C 30.173 117.842,29.842 330.834,30.190 332.272 C 30.306 332.752,30.684 333.427,31.029 333.772 C 31.598 334.341,48.042 334.400,205.247 334.400 L 378.836 334.400 379.822 333.414 L 380.809 332.428 380.704 278.247 C 380.647 248.448,380.503 223.970,380.385 223.852 C 380.267 223.733,358.402 218.197,331.796 211.548 C 292.618 201.757,283.257 199.293,282.549 198.585 C 281.399 197.436,280.972 193.523,281.440 188.421 C 281.632 186.319,281.792 169.390,281.795 150.800 L 281.800 117.000 156.324 116.899 C 56.210 116.819,30.783 116.900,30.524 117.299 M200.618 149.782 L 201.600 150.764 201.600 216.200 L 201.600 281.636 200.618 282.618 L 199.636 283.600 156.437 283.600 C 111.999 283.600,111.692 283.589,110.922 282.046 C 110.430 281.059,110.304 153.044,110.793 151.227 C 111.463 148.739,109.237 148.856,156.318 148.827 L 199.636 148.800 200.618 149.782 M331.705 234.410 C 356.062 240.485,356.153 240.512,357.016 241.744 C 358.071 243.250,357.868 281.332,356.800 282.400 C 356.017 283.183,355.467 283.200,331.429 283.200 L 306.858 283.200 306.029 282.146 C 304.900 280.711,304.706 231.284,305.823 229.689 C 306.816 228.270,307.826 228.455,331.705 234.410 M356.546 287.229 L 357.600 288.058 357.600 298.829 C 357.600 309.067,357.560 309.640,356.800 310.400 C 356.017 311.183,355.467 311.200,331.429 311.200 L 306.858 311.200 306.029 310.146 C 305.241 309.144,305.200 308.602,305.200 299.172 C 305.200 288.802,305.390 287.419,306.894 286.815 C 309.068 285.941,355.400 286.328,356.546 287.229 " stroke="none" fill="#5ba1f2" fill-rule="evenodd"></path><path id="path1" d="M47.257 83.700 C 47.093 97.777,48.119 96.800,33.500 96.800 C 21.120 96.800,22.000 96.441,22.000 101.489 C 22.000 105.649,21.760 105.310,25.500 106.422 C 27.044 106.882,27.388 107.212,27.247 108.100 C 27.221 108.265,85.261 108.400,156.224 108.400 C 227.187 108.400,285.158 108.256,285.050 108.081 C 284.613 107.374,286.576 106.000,288.021 106.000 C 290.102 106.000,290.400 105.433,290.400 101.466 C 290.400 99.117,290.224 97.584,289.920 97.280 C 289.549 96.909,265.329 96.800,183.342 96.800 L 77.245 96.800 76.122 95.835 L 75.000 94.871 74.878 86.035 C 74.797 80.158,74.615 77.200,74.333 77.200 C 74.090 77.200,73.984 76.689,74.085 76.000 L 74.261 74.800 60.811 74.800 L 47.360 74.800 47.257 83.700 M121.429 161.029 C 120.384 162.073,120.483 211.189,121.531 212.138 C 122.183 212.728,123.814 212.800,136.509 212.800 L 150.755 212.800 151.377 211.911 C 151.924 211.130,152.000 208.056,152.000 186.600 C 152.000 165.144,151.924 162.070,151.377 161.289 L 150.755 160.400 136.406 160.400 C 123.895 160.400,121.977 160.481,121.429 161.029 M157.062 161.131 C 155.988 162.318,156.055 211.164,157.131 212.138 C 158.308 213.203,185.970 213.139,186.938 212.069 C 188.012 210.882,187.945 162.036,186.869 161.062 C 185.692 159.997,158.030 160.061,157.062 161.131 M191.569 213.569 C 188.131 217.007,192.812 222.123,196.434 218.886 C 197.429 217.997,197.680 217.456,197.680 216.200 C 197.680 212.882,193.889 211.250,191.569 213.569 M195.746 214.029 C 197.777 215.627,196.521 219.200,193.928 219.200 C 192.748 219.200,191.200 217.411,191.200 216.047 C 191.200 214.764,192.738 213.200,194.000 213.200 C 194.381 213.200,195.166 213.573,195.746 214.029 M121.429 220.229 C 120.327 221.330,120.491 270.091,121.600 271.200 C 122.370 271.970,122.933 272.000,136.400 272.000 C 149.867 272.000,150.430 271.970,151.200 271.200 C 152.303 270.097,152.471 222.051,151.377 220.489 L 150.755 219.600 136.406 219.600 C 123.895 219.600,121.977 219.681,121.429 220.229 M157.062 220.331 C 155.931 221.581,156.063 270.063,157.200 271.200 C 157.970 271.970,158.533 272.000,172.000 272.000 C 185.467 272.000,186.030 271.970,186.800 271.200 C 187.997 270.003,188.063 221.343,186.869 220.262 C 185.692 219.197,158.030 219.261,157.062 220.331 M307.615 230.791 C 306.984 231.181,307.025 280.308,307.658 281.069 C 308.285 281.825,353.904 281.855,354.920 281.100 C 355.815 280.434,355.999 244.711,355.116 242.941 C 354.609 241.926,348.090 240.056,332.800 236.540 C 329.162 235.703,328.013 235.417,322.900 234.071 C 320.425 233.420,318.400 232.964,318.400 233.057 C 318.400 233.151,318.085 233.060,317.700 232.854 C 317.315 232.648,316.460 232.383,315.800 232.266 C 315.140 232.149,314.015 231.873,313.300 231.654 C 312.585 231.435,312.000 231.340,312.000 231.442 C 312.000 231.544,311.647 231.439,311.215 231.208 C 310.203 230.666,308.193 230.433,307.615 230.791 M307.409 289.100 C 306.949 290.267,307.185 308.500,307.669 309.083 C 308.286 309.827,353.922 309.843,354.915 309.100 C 355.609 308.581,355.994 291.526,355.362 289.300 L 355.107 288.400 331.396 288.400 C 309.187 288.400,307.668 288.444,307.409 289.100 " stroke="none" fill="#f97878" fill-rule="evenodd"></path><path id="path2" d="M46.357 75.450 C 45.933 75.960,45.752 78.210,45.600 84.850 C 45.333 96.508,46.713 95.366,32.708 95.519 C 25.712 95.595,21.652 95.791,21.318 96.068 C 20.597 96.666,20.581 106.212,21.300 106.674 C 22.090 107.182,27.204 108.318,27.384 108.025 C 27.707 107.504,26.971 106.904,25.400 106.405 C 21.725 105.240,22.000 105.637,22.000 101.489 C 22.000 96.441,21.120 96.800,33.500 96.800 C 48.098 96.800,47.085 97.749,47.259 83.917 C 47.371 74.963,47.302 74.315,46.357 75.450 M74.253 75.081 C 73.855 75.478,73.958 77.200,74.378 77.200 C 74.601 77.200,74.807 80.835,74.878 86.035 L 75.000 94.871 76.122 95.835 L 77.245 96.800 183.342 96.800 C 265.329 96.800,289.549 96.909,289.920 97.280 C 290.224 97.584,290.400 99.117,290.400 101.466 C 290.400 105.433,290.102 106.000,288.021 106.000 C 286.643 106.000,284.610 107.370,285.016 108.025 C 285.196 108.318,290.310 107.182,291.100 106.674 C 291.836 106.201,291.801 96.665,291.062 96.051 C 290.669 95.725,261.785 95.577,184.226 95.502 L 77.929 95.400 77.165 94.456 C 76.471 93.599,76.400 92.797,76.400 85.806 C 76.400 76.470,75.810 73.523,74.253 75.081 M306.897 256.451 C 306.806 279.139,306.845 280.737,307.500 281.251 C 308.119 281.737,308.143 281.727,307.703 281.163 C 307.323 280.675,307.181 274.868,307.100 256.363 L 306.994 232.200 306.897 256.451 M327.200 235.182 C 327.530 235.405,328.145 235.591,328.567 235.594 C 329.590 235.602,329.271 235.373,327.800 235.044 C 326.924 234.848,326.762 234.885,327.200 235.182 M330.400 235.994 C 330.730 236.211,331.435 236.391,331.967 236.394 C 333.251 236.402,332.925 236.175,331.200 235.858 C 330.215 235.677,329.978 235.718,330.400 235.994 M355.000 242.673 C 355.765 244.215,355.928 280.232,355.172 280.988 C 354.904 281.256,346.648 281.474,331.480 281.611 L 308.200 281.822 331.680 281.811 C 350.399 281.802,355.266 281.695,355.680 281.280 C 356.092 280.868,356.200 276.854,356.200 261.991 L 356.200 243.222 355.284 242.311 L 354.368 241.400 355.000 242.673 M307.192 288.900 C 306.798 289.712,306.811 289.732,307.322 289.100 C 307.850 288.448,309.495 288.400,331.497 288.400 L 355.107 288.400 355.362 289.300 C 355.791 290.812,355.615 308.545,355.166 308.994 C 354.906 309.254,346.422 309.476,331.480 309.611 L 308.200 309.822 331.680 309.811 C 350.395 309.802,355.266 309.695,355.680 309.280 C 356.456 308.505,356.429 289.600,355.651 288.662 C 355.152 288.060,352.963 288.000,331.365 288.000 L 307.628 288.000 307.192 288.900 M306.892 299.451 C 306.808 307.852,306.864 308.753,307.500 309.251 C 308.118 309.736,308.142 309.726,307.708 309.168 C 307.359 308.721,307.182 305.862,307.100 299.368 L 306.984 290.200 306.892 299.451 " stroke="none" fill="#fc7c7c" fill-rule="evenodd"></path><path id="path3" d="M0.000 200.000 L 0.000 400.000 200.000 400.000 L 400.000 400.000 400.000 200.000 L 400.000 0.000 200.000 0.000 L 0.000 0.000 0.000 200.000 M78.711 65.229 C 81.478 66.193,81.654 73.007,78.977 75.516 C 77.931 76.497,77.428 91.676,78.392 93.200 C 78.727 93.730,91.201 93.823,185.418 94.000 C 290.405 94.197,292.073 94.212,292.632 94.976 C 293.314 95.909,293.449 106.386,292.795 107.609 C 292.572 108.025,291.769 108.482,291.009 108.625 C 289.185 108.967,288.956 109.333,288.651 112.392 C 288.317 115.744,287.681 116.396,284.456 116.688 L 282.000 116.911 282.000 150.156 L 282.000 183.400 291.435 183.400 C 301.708 183.400,302.400 183.567,302.400 186.044 C 302.400 188.164,303.374 188.400,312.111 188.400 C 321.024 188.400,321.691 188.556,322.127 190.737 C 322.607 193.137,322.856 193.200,331.847 193.200 C 340.683 193.200,341.986 193.544,342.006 195.882 C 342.022 197.725,342.307 197.789,351.343 198.000 C 360.902 198.223,361.273 198.330,361.778 201.021 C 362.160 203.061,362.773 203.200,371.400 203.200 C 380.085 203.200,380.572 203.315,381.180 205.505 C 381.716 207.435,381.725 219.379,381.191 221.203 C 380.921 222.126,380.788 241.233,380.799 277.510 L 380.816 332.420 379.826 333.410 L 378.836 334.400 205.247 334.400 C 48.042 334.400,31.598 334.341,31.029 333.772 C 29.963 332.706,29.975 334.121,30.089 224.100 L 30.200 116.800 28.800 116.798 C 24.834 116.791,23.606 115.677,23.594 112.074 C 23.586 109.756,23.395 109.455,21.414 108.629 C 19.221 107.716,19.213 107.689,19.206 101.376 C 19.198 93.501,17.951 94.242,31.600 94.000 C 45.424 93.755,44.000 94.839,44.000 84.561 L 44.000 76.876 42.600 75.200 C 40.186 72.311,40.557 66.055,43.200 65.084 C 44.380 64.650,77.438 64.785,78.711 65.229 " stroke="none" fill="#dbfbfb" fill-rule="evenodd"></path><path id="path4" d="M43.200 65.084 C 40.557 66.055,40.186 72.311,42.600 75.200 L 44.000 76.876 44.000 84.561 C 44.000 94.839,45.424 93.755,31.600 94.000 C 17.951 94.242,19.198 93.501,19.206 101.376 C 19.213 107.689,19.221 107.716,21.414 108.629 C 23.395 109.455,23.586 109.756,23.594 112.074 C 23.603 114.910,24.122 115.885,25.881 116.374 C 27.533 116.834,283.640 117.012,285.923 116.555 C 287.748 116.190,288.368 115.240,288.654 112.370 C 288.956 109.334,289.187 108.966,291.009 108.625 C 291.769 108.482,292.572 108.025,292.795 107.609 C 293.449 106.386,293.314 95.909,292.632 94.976 C 292.073 94.212,290.405 94.197,185.418 94.000 C 91.201 93.823,78.727 93.730,78.392 93.200 C 77.428 91.676,77.931 76.497,78.977 75.516 C 81.654 73.007,81.478 66.193,78.711 65.229 C 77.438 64.785,44.380 64.650,43.200 65.084 M75.424 75.367 C 76.141 75.892,76.215 76.615,76.400 84.954 C 76.577 92.916,76.684 94.058,77.314 94.687 C 77.995 95.367,82.960 95.405,184.276 95.502 C 261.798 95.577,290.669 95.725,291.062 96.051 C 291.801 96.665,291.836 106.201,291.100 106.674 C 288.370 108.430,293.418 108.366,156.200 108.366 C 2.935 108.366,20.800 109.282,20.800 101.425 C 20.800 95.116,19.702 95.661,32.708 95.519 C 46.713 95.366,45.333 96.508,45.600 84.850 C 45.751 78.274,45.935 75.957,46.349 75.460 C 47.118 74.535,74.166 74.449,75.424 75.367 M283.134 183.469 C 280.808 183.856,280.325 196.361,282.549 198.585 C 283.775 199.811,379.957 223.905,380.466 223.114 C 381.610 221.337,382.116 208.872,381.180 205.505 C 380.572 203.315,380.085 203.200,371.400 203.200 C 362.773 203.200,362.160 203.061,361.778 201.021 C 361.273 198.330,360.902 198.223,351.343 198.000 C 342.307 197.789,342.022 197.725,342.006 195.882 C 341.986 193.544,340.683 193.200,331.847 193.200 C 322.856 193.200,322.607 193.137,322.127 190.737 C 321.691 188.556,321.024 188.400,312.111 188.400 C 303.374 188.400,302.400 188.164,302.400 186.044 C 302.400 183.657,291.091 182.145,283.134 183.469 M192.254 214.029 C 190.876 215.113,190.846 216.882,192.182 218.218 C 193.381 219.418,194.362 219.460,195.746 218.371 C 197.744 216.799,196.529 213.200,194.000 213.200 C 193.619 213.200,192.834 213.573,192.254 214.029 M305.823 229.689 C 304.706 231.284,304.900 280.711,306.029 282.146 L 306.858 283.200 331.429 283.200 C 355.467 283.200,356.017 283.183,356.800 282.400 C 357.868 281.332,358.071 243.250,357.016 241.744 C 356.153 240.512,356.062 240.485,331.705 234.410 C 307.826 228.455,306.816 228.270,305.823 229.689 M331.856 236.013 C 348.889 240.216,354.801 241.826,355.400 242.424 C 356.413 243.435,356.679 280.281,355.680 281.280 C 354.827 282.133,309.038 282.248,307.744 281.400 L 306.800 280.782 306.800 256.223 C 306.800 242.717,306.909 231.381,307.043 231.033 C 307.434 230.014,308.044 230.137,331.856 236.013 M306.894 286.815 C 305.390 287.419,305.200 288.802,305.200 299.172 C 305.200 308.602,305.241 309.144,306.029 310.146 L 306.858 311.200 331.429 311.200 C 355.467 311.200,356.017 311.183,356.800 310.400 C 357.560 309.640,357.600 309.067,357.600 298.829 L 357.600 288.058 356.546 287.229 C 355.400 286.328,309.068 285.941,306.894 286.815 M355.651 288.662 C 356.429 289.600,356.456 308.505,355.680 309.280 C 354.827 310.133,309.038 310.248,307.744 309.400 L 306.800 308.782 306.800 299.164 C 306.800 293.300,306.962 289.245,307.214 288.774 C 307.811 287.658,354.729 287.550,355.651 288.662 " stroke="none" fill="#e1a986" fill-rule="evenodd"></path><path id="path5" d="M112.099 149.289 C 111.559 149.549,111.036 150.325,110.793 151.227 C 110.304 153.044,110.430 281.059,110.922 282.046 C 111.692 283.589,111.999 283.600,156.437 283.600 L 199.636 283.600 200.618 282.618 L 201.600 281.636 201.600 216.200 L 201.600 150.764 200.618 149.782 L 199.636 148.800 156.318 148.827 C 126.013 148.846,112.729 148.985,112.099 149.289 M151.377 161.289 C 151.924 162.070,152.000 165.144,152.000 186.600 C 152.000 208.056,151.924 211.130,151.377 211.911 L 150.755 212.800 136.509 212.800 C 123.814 212.800,122.183 212.728,121.531 212.138 C 120.483 211.189,120.384 162.073,121.429 161.029 C 121.977 160.481,123.895 160.400,136.406 160.400 L 150.755 160.400 151.377 161.289 M186.869 161.062 C 187.945 162.036,188.012 210.882,186.938 212.069 C 185.970 213.139,158.308 213.203,157.131 212.138 C 156.055 211.164,155.988 162.318,157.062 161.131 C 158.030 160.061,185.692 159.997,186.869 161.062 M196.434 213.514 C 197.429 214.403,197.680 214.944,197.680 216.200 C 197.680 219.518,193.889 221.150,191.569 218.831 C 188.131 215.393,192.812 210.277,196.434 213.514 M151.377 220.489 C 152.471 222.051,152.303 270.097,151.200 271.200 C 150.430 271.970,149.867 272.000,136.400 272.000 C 122.933 272.000,122.370 271.970,121.600 271.200 C 120.491 270.091,120.327 221.330,121.429 220.229 C 121.977 219.681,123.895 219.600,136.406 219.600 L 150.755 219.600 151.377 220.489 M186.869 220.262 C 188.063 221.343,187.997 270.003,186.800 271.200 C 186.030 271.970,185.467 272.000,172.000 272.000 C 158.533 272.000,157.970 271.970,157.200 271.200 C 156.063 270.063,155.931 221.581,157.062 220.331 C 158.030 219.261,185.692 219.197,186.869 220.262 " stroke="none" fill="#2c5c94" fill-rule="evenodd"></path></g></svg>