<svg id="svg" version="1.1" xmlns="http://www.w3.org/2000/svg" xmlns:xlink="http://www.w3.org/1999/xlink" width="400" height="400" viewBox="0, 0, 400,400"><g id="svgg"><path id="path0" d="M113.200 149.878 C 111.555 150.466,111.600 148.590,111.600 216.200 C 111.600 271.571,111.683 281.161,112.168 281.824 C 112.723 282.583,113.696 282.602,155.781 282.705 L 198.826 282.811 199.813 281.823 L 200.800 280.836 200.800 216.200 L 200.800 151.564 199.818 150.582 L 198.836 149.600 156.318 149.632 C 132.933 149.649,113.530 149.760,113.200 149.878 M149.403 163.300 C 149.523 163.795,149.571 174.550,149.511 187.200 L 149.400 210.200 136.300 210.305 L 123.200 210.411 123.200 186.672 C 123.200 173.616,123.320 162.813,123.467 162.667 C 123.613 162.520,129.460 162.400,136.459 162.400 L 149.185 162.400 149.403 163.300 M185.103 186.500 L 185.206 210.400 172.003 210.400 L 158.800 210.400 158.800 186.667 C 158.800 173.613,158.922 162.811,159.072 162.661 C 159.222 162.512,165.117 162.437,172.172 162.495 L 185.000 162.600 185.103 186.500 M282.000 236.729 C 282.000 271.845,281.934 276.009,281.371 276.571 C 280.435 277.508,227.988 277.531,227.052 276.595 C 225.330 274.873,225.812 270.069,227.926 267.885 C 229.636 266.117,230.034 262.263,228.649 260.877 C 227.647 259.875,206.783 259.846,205.784 260.845 C 204.147 262.482,204.576 266.268,206.611 268.136 L 207.988 269.400 208.094 301.132 C 208.197 332.018,208.221 332.880,208.976 333.432 C 210.174 334.308,224.488 334.254,225.371 333.371 C 225.928 332.814,226.000 330.094,226.000 309.469 C 226.000 286.684,226.138 283.867,227.293 283.134 C 228.444 282.403,242.627 282.746,243.329 283.521 C 243.915 284.169,243.993 286.728,244.091 308.554 C 244.212 335.566,244.044 334.000,246.814 334.000 C 249.284 334.000,249.199 334.891,249.206 308.769 C 249.210 290.423,249.327 284.772,249.717 284.000 C 250.461 282.527,261.742 282.211,262.900 283.631 C 263.549 284.427,263.600 286.230,263.600 308.582 C 263.600 335.433,263.447 334.000,266.309 334.000 C 268.878 334.000,268.800 334.812,268.800 308.173 C 268.800 285.383,268.838 284.089,269.531 283.462 C 270.365 282.708,280.078 282.483,281.200 283.191 C 281.719 283.519,281.827 286.892,282.000 308.218 C 282.193 332.032,282.226 332.884,282.976 333.432 C 284.215 334.338,378.865 334.278,379.771 333.371 C 380.794 332.349,380.724 224.079,379.700 222.846 C 379.125 222.153,370.487 219.879,331.200 210.077 C 304.910 203.517,283.085 198.007,282.700 197.832 C 282.036 197.531,282.000 199.527,282.000 236.729 M196.258 213.748 C 198.559 215.728,197.038 219.600,193.960 219.600 C 192.260 219.600,190.800 218.029,190.800 216.200 C 190.800 213.221,193.983 211.791,196.258 213.748 M149.403 222.500 C 149.523 222.995,149.571 233.750,149.511 246.400 L 149.400 269.400 136.400 269.400 L 123.400 269.400 123.296 246.000 C 123.239 233.130,123.278 222.375,123.384 222.100 C 123.531 221.714,126.505 221.600,136.380 221.600 L 149.185 221.600 149.403 222.500 M185.000 245.600 L 185.000 269.400 172.000 269.400 L 159.000 269.400 158.896 246.000 C 158.839 233.130,158.879 222.373,158.986 222.094 C 159.137 221.698,161.976 221.612,172.090 221.694 L 185.000 221.800 185.000 245.600 M354.304 261.703 L 354.408 280.007 331.504 279.903 L 308.600 279.800 308.497 256.445 C 308.428 240.885,308.531 232.924,308.805 232.594 C 309.125 232.209,314.212 233.354,331.708 237.749 L 354.200 243.400 354.304 261.703 M85.091 260.272 C 82.245 260.741,81.876 265.969,84.538 268.105 L 86.000 269.278 85.994 272.539 C 85.991 274.332,85.817 276.070,85.609 276.400 C 85.280 276.920,81.686 277.027,58.579 277.200 L 31.929 277.400 31.164 278.344 C 30.429 279.253,30.400 280.295,30.400 305.755 C 30.400 334.854,30.329 334.000,32.761 334.000 C 35.292 334.000,35.199 334.955,35.206 308.769 C 35.210 290.423,35.327 284.772,35.717 284.000 C 36.461 282.527,47.742 282.211,48.900 283.631 C 49.549 284.426,49.600 286.219,49.600 308.355 C 49.600 334.941,49.505 334.000,52.200 334.000 C 54.895 334.000,54.800 334.937,54.800 308.400 C 54.800 279.661,53.948 282.800,61.746 282.800 C 69.947 282.800,68.980 279.459,69.109 308.246 C 69.229 334.919,69.141 334.000,71.586 334.000 C 74.352 334.000,74.178 335.591,74.400 308.218 C 74.573 286.892,74.681 283.519,75.200 283.191 C 75.530 282.983,77.780 282.812,80.200 282.812 C 82.620 282.812,84.870 282.983,85.200 283.191 C 85.719 283.519,85.827 286.892,86.000 308.218 C 86.193 332.032,86.226 332.884,86.976 333.432 C 88.276 334.383,102.452 334.247,103.331 333.276 C 103.924 332.621,103.996 329.572,104.093 301.096 L 104.200 269.638 105.700 268.102 C 107.378 266.384,107.865 262.663,106.633 260.976 C 106.078 260.217,88.852 259.654,85.091 260.272 M354.308 298.903 L 354.415 308.007 331.508 307.903 L 308.600 307.800 308.492 299.029 C 308.409 292.279,308.501 290.182,308.892 289.933 C 309.171 289.754,319.480 289.652,331.800 289.704 L 354.200 289.800 354.308 298.903 M112.489 293.823 C 111.672 294.395,111.600 294.767,111.600 298.400 C 111.600 304.234,106.152 303.600,156.289 303.600 C 206.385 303.600,200.800 304.252,200.800 298.400 C 200.800 292.548,206.385 293.200,156.289 293.200 C 118.099 293.200,113.280 293.269,112.489 293.823 M112.489 314.623 C 111.672 315.195,111.600 315.567,111.600 319.200 C 111.600 325.034,106.152 324.400,156.289 324.400 C 206.385 324.400,200.800 325.052,200.800 319.200 C 200.800 313.348,206.385 314.000,156.289 314.000 C 118.099 314.000,113.280 314.069,112.489 314.623 " stroke="none" fill="#583845" fill-rule="evenodd"></path><path id="path1" d="M31.023 117.289 C 29.944 118.828,30.086 279.677,31.164 278.344 L 31.929 277.400 58.579 277.200 C 81.686 277.027,85.280 276.920,85.609 276.400 C 85.817 276.070,85.991 274.332,85.994 272.539 L 86.000 269.278 84.530 268.098 C 82.647 266.588,82.115 262.935,83.523 261.195 L 84.329 260.200 95.197 260.200 C 107.780 260.200,107.200 260.009,107.200 264.160 C 107.200 266.401,107.097 266.672,105.700 268.102 L 104.200 269.638 104.093 301.096 C 103.996 329.572,103.924 332.621,103.331 333.276 C 102.452 334.247,88.276 334.383,86.976 333.432 C 86.226 332.884,86.193 332.032,86.000 308.218 C 85.827 286.892,85.719 283.519,85.200 283.191 C 84.419 282.698,75.981 282.698,75.200 283.191 C 74.681 283.519,74.573 286.892,74.400 308.218 C 74.178 335.591,74.352 334.000,71.586 334.000 C 69.141 334.000,69.229 334.919,69.109 308.246 C 68.980 279.459,69.947 282.800,61.746 282.800 C 53.948 282.800,54.800 279.661,54.800 308.400 C 54.800 334.937,54.895 334.000,52.200 334.000 C 49.505 334.000,49.600 334.941,49.600 308.355 C 49.600 286.219,49.549 284.426,48.900 283.631 C 47.742 282.211,36.461 282.527,35.717 284.000 C 35.327 284.772,35.210 290.437,35.206 308.838 C 35.199 334.813,35.300 333.643,33.028 334.059 C 32.417 334.171,247.933 334.144,276.576 334.029 C 282.876 334.004,283.658 333.931,282.976 333.432 C 282.226 332.884,282.193 332.032,282.000 308.218 C 281.827 286.892,281.719 283.519,281.200 283.191 C 279.992 282.428,270.204 282.712,269.462 283.531 C 268.861 284.195,268.800 286.491,268.800 308.242 C 268.800 334.901,268.890 334.000,266.239 334.000 C 263.474 334.000,263.600 335.219,263.600 308.513 C 263.600 286.226,263.549 284.427,262.900 283.631 C 261.742 282.211,250.461 282.527,249.717 284.000 C 249.327 284.772,249.210 290.437,249.206 308.838 C 249.199 335.145,249.311 334.000,246.745 334.000 C 244.056 334.000,244.212 335.499,244.091 308.554 C 243.993 286.728,243.915 284.169,243.329 283.521 C 242.627 282.746,228.444 282.403,227.293 283.134 C 226.138 283.867,226.000 286.684,226.000 309.469 C 226.000 330.094,225.928 332.814,225.371 333.371 C 224.488 334.254,210.174 334.308,208.976 333.432 C 208.221 332.880,208.197 332.018,208.094 301.132 L 207.988 269.400 206.611 268.136 C 204.576 266.268,204.147 262.482,205.784 260.845 C 206.783 259.846,227.647 259.875,228.649 260.877 C 230.034 262.263,229.636 266.117,227.926 267.885 C 225.812 270.069,225.330 274.873,227.052 276.595 C 227.980 277.522,280.434 277.509,281.362 276.581 C 282.245 275.698,282.135 118.127,281.251 117.061 C 280.743 116.449,271.517 116.400,156.174 116.400 L 31.645 116.400 31.023 117.289 M199.818 150.582 L 200.800 151.564 200.800 216.200 L 200.800 280.836 199.813 281.823 L 198.826 282.811 155.781 282.705 C 113.696 282.602,112.723 282.583,112.168 281.824 C 111.374 280.738,111.307 151.722,112.100 150.722 C 112.945 149.657,112.646 149.664,156.318 149.632 L 198.836 149.600 199.818 150.582 M200.000 294.000 C 200.681 294.681,200.800 295.333,200.800 298.400 C 200.800 304.252,206.385 303.600,156.289 303.600 C 106.152 303.600,111.600 304.234,111.600 298.400 C 111.600 294.767,111.672 294.395,112.489 293.823 C 114.061 292.722,198.893 292.893,200.000 294.000 M200.000 314.800 C 200.681 315.481,200.800 316.133,200.800 319.200 C 200.800 325.052,206.385 324.400,156.289 324.400 C 106.152 324.400,111.600 325.034,111.600 319.200 C 111.600 315.567,111.672 315.195,112.489 314.623 C 114.061 313.522,198.893 313.693,200.000 314.800 M307.269 334.300 C 320.177 334.358,341.417 334.358,354.469 334.300 C 367.521 334.241,356.960 334.194,331.000 334.194 C 305.040 334.193,294.361 334.241,307.269 334.300 " stroke="none" fill="#1c63b3" fill-rule="evenodd"></path><path id="path2" d="M43.450 66.914 C 41.441 68.383,42.289 73.024,44.799 74.300 C 48.980 76.425,77.579 75.482,78.812 73.178 C 79.455 71.976,79.290 67.747,78.571 67.029 C 77.718 66.175,44.608 66.067,43.450 66.914 M26.341 108.267 C 25.267 108.554,24.706 113.001,25.571 114.367 C 26.453 115.760,29.769 115.797,156.200 115.798 C 285.903 115.800,285.455 115.806,286.698 114.158 C 287.274 113.394,287.201 109.068,286.602 108.468 C 286.311 108.177,27.427 107.977,26.341 108.267 M283.300 185.212 C 282.167 185.668,281.878 196.621,282.971 197.713 C 283.961 198.704,379.233 222.191,379.642 221.545 C 380.213 220.644,380.086 206.266,379.500 205.497 C 379.069 204.932,377.814 204.824,370.464 204.720 C 361.209 204.590,360.400 204.368,360.400 201.956 C 360.400 199.832,359.434 199.600,350.600 199.600 C 341.553 199.600,341.174 199.498,340.555 196.910 C 340.051 194.800,340.049 194.800,331.738 194.800 C 322.444 194.800,321.585 194.577,320.751 191.942 L 320.200 190.200 311.541 190.000 C 301.889 189.777,301.528 189.673,301.022 186.979 C 300.881 186.226,300.425 185.428,300.009 185.205 C 299.069 184.702,284.554 184.708,283.300 185.212 M191.782 213.782 C 189.730 215.833,191.140 219.600,193.960 219.600 C 195.796 219.600,197.360 218.036,197.360 216.200 C 197.360 213.244,193.844 211.720,191.782 213.782 " stroke="none" fill="#96f70b" fill-rule="evenodd"></path><path id="path3" d="M0.000 200.000 L 0.000 400.000 200.000 400.000 L 400.000 400.000 400.000 200.000 L 400.000 0.000 200.000 0.000 L 0.000 0.000 0.000 200.000 M79.737 64.444 C 81.928 65.442,82.486 72.582,80.591 75.375 C 79.589 76.851,79.584 76.909,79.691 84.530 L 79.800 92.200 186.000 92.400 C 298.372 92.612,293.394 92.521,294.391 94.383 C 294.621 94.812,294.800 97.941,294.800 101.520 C 294.800 108.894,294.545 109.566,291.459 110.343 L 289.697 110.787 289.524 113.179 C 289.327 115.906,288.580 117.013,286.659 117.424 C 285.966 117.571,285.175 117.874,284.900 118.095 C 284.187 118.670,284.167 181.207,284.880 181.920 C 285.219 182.259,287.594 182.402,292.980 182.406 C 301.762 182.413,302.263 182.549,303.244 185.208 L 303.905 187.000 312.253 187.205 C 322.240 187.449,322.108 187.401,323.336 191.265 C 323.523 191.850,324.539 191.945,331.893 192.065 C 341.396 192.219,342.047 192.404,342.789 195.158 C 343.344 197.219,343.255 197.200,352.379 197.200 C 361.362 197.200,361.837 197.344,362.734 200.338 L 363.211 201.930 371.506 202.066 C 380.002 202.206,381.134 202.405,381.848 203.889 C 382.548 205.343,382.838 223.244,383.036 277.200 C 383.254 336.647,383.302 335.113,381.202 336.199 C 380.165 336.735,360.392 336.791,204.828 336.701 L 29.622 336.600 28.711 335.689 L 27.800 334.778 27.600 226.333 L 27.400 117.888 25.668 117.377 C 23.431 116.716,22.828 115.867,22.813 113.349 C 22.799 111.100,22.454 110.632,20.505 110.215 C 17.929 109.665,17.600 108.681,17.600 101.520 C 17.600 92.003,17.004 92.400,31.307 92.400 C 38.655 92.400,41.572 92.268,41.920 91.920 C 43.116 90.724,42.534 78.139,41.151 75.300 C 39.134 71.159,39.680 65.396,42.186 64.381 C 43.479 63.857,78.578 63.916,79.737 64.444 " stroke="none" fill="#dbfcfb" fill-rule="evenodd"></path><path id="path4" d="M42.344 65.965 C 39.896 67.947,41.587 76.055,44.300 75.343 C 45.489 75.031,45.432 74.735,44.027 73.936 C 42.115 72.848,41.815 67.755,43.606 66.797 C 44.981 66.061,77.822 66.279,78.571 67.029 C 80.110 68.567,79.025 74.400,77.200 74.400 C 76.456 74.400,76.794 75.105,77.644 75.327 C 80.160 75.985,81.794 68.194,79.600 66.000 C 78.380 64.780,43.847 64.747,42.344 65.965 M24.336 109.300 C 23.601 109.895,23.883 114.843,24.699 115.659 C 25.449 116.409,29.209 116.757,30.538 116.199 L 31.684 115.717 30.392 115.458 C 29.681 115.316,28.505 115.200,27.779 115.200 C 25.674 115.200,25.088 114.293,25.277 111.329 C 25.445 108.685,25.349 108.479,24.336 109.300 M287.089 111.149 C 287.350 114.030,286.513 115.176,284.100 115.240 C 283.275 115.262,282.150 115.407,281.600 115.562 L 280.600 115.844 281.815 116.271 C 283.588 116.895,286.776 116.317,287.674 115.208 C 289.081 113.471,288.593 108.800,287.005 108.800 C 286.934 108.800,286.972 109.857,287.089 111.149 M282.814 184.374 C 282.206 185.509,282.290 185.622,283.426 185.190 C 284.793 184.671,299.034 184.683,300.009 185.205 C 300.425 185.428,300.881 186.226,301.022 186.979 C 301.528 189.673,301.889 189.777,311.541 190.000 L 320.200 190.200 320.751 191.942 C 321.585 194.577,322.444 194.800,331.738 194.800 C 340.049 194.800,340.051 194.800,340.555 196.910 C 341.174 199.498,341.553 199.600,350.600 199.600 C 359.434 199.600,360.400 199.832,360.400 201.956 C 360.400 204.371,361.199 204.589,370.565 204.728 C 381.062 204.885,380.072 203.902,379.917 214.005 C 379.809 221.017,379.854 221.601,380.500 221.600 C 381.144 221.600,381.200 220.945,381.200 213.444 C 381.200 202.529,382.043 203.433,371.736 203.289 C 361.915 203.152,362.138 203.198,361.603 201.211 C 360.876 198.511,360.470 198.400,351.340 198.400 C 342.515 198.400,342.316 198.351,341.810 196.046 C 341.265 193.563,340.727 193.411,332.059 193.292 C 322.362 193.160,322.537 193.196,322.011 191.243 C 321.312 188.643,321.205 188.614,311.844 188.470 C 302.808 188.331,302.618 188.286,302.226 186.197 C 301.764 183.735,301.219 183.600,291.725 183.600 C 283.734 183.600,283.204 183.646,282.814 184.374 " stroke="none" fill="#b4fc7c" fill-rule="evenodd"></path><path id="path5" d="M42.342 76.674 C 42.930 77.796,42.968 90.938,42.386 92.026 C 41.993 92.761,41.445 92.800,31.646 92.800 C 17.191 92.800,18.000 92.280,18.000 101.574 C 18.000 108.652,18.194 109.248,20.690 109.845 C 21.300 109.991,22.054 110.310,22.365 110.555 C 22.839 110.928,22.858 110.863,22.481 110.155 C 22.233 109.690,21.469 109.077,20.782 108.792 C 19.063 108.080,18.800 107.100,18.800 101.400 C 18.800 93.306,18.269 93.605,32.620 93.602 C 39.877 93.601,42.772 93.468,43.120 93.120 C 44.099 92.141,43.764 77.470,42.742 76.562 C 41.890 75.806,41.887 75.806,42.342 76.674 M78.623 76.889 C 77.698 78.209,77.703 92.046,78.629 92.971 C 79.197 93.540,89.363 93.600,184.529 93.602 C 256.057 93.604,290.279 93.738,291.295 94.020 C 293.403 94.605,293.602 95.252,293.587 101.474 C 293.573 107.593,293.454 107.949,291.086 108.938 C 289.337 109.669,289.058 110.545,290.700 110.151 C 294.323 109.283,294.400 109.098,294.400 101.243 C 294.400 95.464,294.334 94.879,293.584 94.075 C 293.136 93.594,292.731 93.156,292.684 93.103 C 292.638 93.049,244.630 92.914,186.000 92.803 L 79.400 92.600 79.400 84.300 C 79.400 79.734,79.365 75.999,79.323 76.000 C 79.280 76.000,78.965 76.400,78.623 76.889 M28.600 117.432 C 28.109 117.639,28.036 332.949,28.527 334.300 C 28.707 334.796,29.200 335.386,29.623 335.612 C 30.922 336.307,378.982 336.502,380.642 335.808 C 381.630 335.395,382.048 334.894,382.370 333.732 C 382.850 332.003,382.997 227.552,382.525 223.159 C 381.829 216.663,381.677 226.016,381.640 277.918 L 381.600 333.236 380.612 334.224 L 379.624 335.212 330.512 335.012 C 303.500 334.902,278.745 334.796,275.500 334.778 C 272.255 334.759,268.070 334.744,266.200 334.744 C 264.330 334.743,259.965 334.740,256.500 334.736 C 253.035 334.732,248.760 334.737,247.000 334.745 C 241.148 334.774,226.922 334.794,217.200 334.787 C 208.465 334.780,118.284 334.781,94.800 334.788 C 89.410 334.790,82.705 334.785,79.900 334.778 C 77.095 334.770,73.360 334.763,71.600 334.762 C 69.840 334.761,65.520 334.756,62.000 334.751 C 58.480 334.747,54.070 334.743,52.200 334.743 C 50.330 334.743,45.965 334.722,42.500 334.697 C 39.035 334.672,35.120 334.795,33.800 334.971 C 31.699 335.252,31.275 335.191,30.400 334.481 L 29.400 333.671 29.292 306.366 C 29.199 282.891,29.269 278.768,29.792 276.969 C 30.545 274.380,30.734 119.371,29.986 117.974 C 29.572 117.201,29.352 117.115,28.600 117.432 M282.198 118.100 C 282.078 118.595,282.029 133.310,282.090 150.800 L 282.200 182.600 283.200 182.600 C 283.911 182.600,284.142 182.427,284.000 182.000 C 283.596 180.788,283.584 119.177,283.988 118.423 C 284.289 117.861,284.233 117.622,283.760 117.440 C 282.714 117.039,282.425 117.161,282.198 118.100 " stroke="none" fill="#c4e4ec" fill-rule="evenodd"></path><path id="path6" d="M40.137 70.200 C 40.139 71.960,40.209 72.630,40.293 71.689 C 40.378 70.749,40.377 69.309,40.291 68.489 C 40.205 67.670,40.136 68.440,40.137 70.200 M41.998 76.926 C 42.589 78.582,42.523 91.317,41.920 91.920 C 41.572 92.268,38.655 92.400,31.307 92.400 C 17.004 92.400,17.600 92.003,17.600 101.520 C 17.600 108.681,17.929 109.665,20.505 110.215 C 21.217 110.368,22.070 110.697,22.400 110.946 C 22.911 111.333,22.925 111.303,22.491 110.748 C 22.211 110.390,21.452 109.990,20.804 109.861 C 18.218 109.344,18.000 108.698,18.000 101.574 C 18.000 92.280,17.191 92.800,31.646 92.800 C 41.445 92.800,41.993 92.761,42.386 92.026 C 43.086 90.719,42.925 77.514,42.198 76.576 C 41.636 75.852,41.622 75.876,41.998 76.926 M79.383 84.600 L 79.400 92.600 186.000 92.803 C 244.630 92.914,292.638 93.049,292.684 93.103 C 292.731 93.156,293.136 93.594,293.584 94.075 C 294.336 94.882,294.400 95.462,294.400 101.475 C 294.400 108.878,294.291 109.168,291.181 110.005 C 290.267 110.251,289.588 110.522,289.673 110.606 C 290.106 111.039,293.322 109.771,294.012 108.894 C 294.906 107.758,295.215 95.923,294.391 94.383 C 293.394 92.521,298.372 92.612,186.000 92.400 L 79.800 92.200 79.583 84.400 L 79.365 76.600 79.383 84.600 M27.600 226.189 L 27.800 334.778 28.711 335.689 L 29.622 336.600 204.711 336.704 C 338.721 336.784,380.070 336.697,380.949 336.335 C 383.311 335.363,383.204 338.186,383.153 278.313 C 383.127 248.111,382.992 222.869,382.853 222.221 C 382.714 221.573,382.650 246.015,382.711 276.538 C 382.831 336.730,382.896 334.866,380.646 335.806 C 378.982 336.502,30.925 336.309,29.623 335.612 C 28.213 334.858,28.200 333.876,28.200 225.634 C 28.200 154.145,28.065 117.822,27.800 117.734 C 27.534 117.645,27.467 153.885,27.600 226.189 M284.014 118.374 C 283.739 118.888,283.600 129.497,283.600 150.000 C 283.600 180.493,283.676 182.400,284.894 182.400 C 285.241 182.400,285.237 182.277,284.880 181.920 C 284.185 181.225,284.185 118.775,284.880 118.080 C 285.237 117.723,285.241 117.600,284.894 117.600 C 284.638 117.600,284.242 117.948,284.014 118.374 M308.300 187.498 C 310.335 187.571,313.665 187.571,315.700 187.498 C 317.735 187.425,316.070 187.366,312.000 187.366 C 307.930 187.366,306.265 187.425,308.300 187.498 M327.900 192.298 C 329.935 192.371,333.265 192.371,335.300 192.298 C 337.335 192.225,335.670 192.166,331.600 192.166 C 327.530 192.166,325.865 192.225,327.900 192.298 M367.500 202.298 C 369.535 202.371,372.865 202.371,374.900 202.298 C 376.935 202.225,375.270 202.166,371.200 202.166 C 367.130 202.166,365.465 202.225,367.500 202.298 " stroke="none" fill="#ccf1f9" fill-rule="evenodd"></path><path id="path7" d="M44.540 75.221 C 43.994 75.412,43.902 76.611,43.855 84.101 C 43.814 90.605,43.671 92.889,43.281 93.280 C 42.890 93.672,40.009 93.849,31.594 94.000 C 17.784 94.247,19.000 93.533,19.000 101.401 C 19.000 107.883,19.025 107.948,21.934 108.939 C 23.529 109.482,23.803 109.469,25.334 108.774 C 27.877 107.619,284.434 107.587,287.000 108.740 C 288.758 109.531,291.496 109.076,292.795 107.776 C 293.940 106.631,293.656 95.736,292.456 94.765 C 291.531 94.016,289.284 94.000,185.645 94.000 C 90.474 94.000,79.688 93.937,78.889 93.377 C 78.016 92.766,78.000 92.594,78.000 83.977 C 78.000 77.227,77.885 75.198,77.500 75.191 C 69.354 75.039,44.995 75.061,44.540 75.221 M30.057 116.355 C 29.698 116.583,29.614 117.013,29.808 117.625 L 30.101 118.549 30.884 117.475 L 31.667 116.400 156.153 116.400 C 252.443 116.400,280.749 116.509,281.120 116.880 C 281.384 117.144,281.607 117.819,281.616 118.380 C 281.630 119.327,281.674 119.303,282.222 118.039 C 282.547 117.291,282.705 116.571,282.573 116.439 C 282.190 116.056,30.659 115.972,30.057 116.355 M123.467 162.667 C 123.320 162.813,123.200 173.616,123.200 186.672 L 123.200 210.411 136.300 210.305 L 149.400 210.200 149.511 187.200 C 149.571 174.550,149.523 163.795,149.403 163.300 L 149.185 162.400 136.459 162.400 C 129.460 162.400,123.613 162.520,123.467 162.667 M159.072 162.661 C 158.922 162.811,158.800 173.613,158.800 186.667 L 158.800 210.400 172.003 210.400 L 185.206 210.400 185.103 186.500 L 185.000 162.600 172.172 162.495 C 165.117 162.437,159.222 162.512,159.072 162.661 M281.600 189.078 C 281.600 195.943,281.744 197.599,282.343 197.601 C 282.484 197.601,282.546 194.815,282.481 191.411 C 282.401 187.295,282.515 184.932,282.821 184.361 C 283.203 183.646,283.140 183.362,282.440 182.662 L 281.600 181.822 281.600 189.078 M123.384 222.100 C 123.278 222.375,123.239 233.130,123.296 246.000 L 123.400 269.400 136.400 269.400 L 149.400 269.400 149.511 246.400 C 149.571 233.750,149.523 222.995,149.403 222.500 L 149.185 221.600 136.380 221.600 C 126.505 221.600,123.531 221.714,123.384 222.100 M158.986 222.094 C 158.879 222.373,158.839 233.130,158.896 246.000 L 159.000 269.400 172.000 269.400 L 185.000 269.400 185.000 245.600 L 185.000 221.800 172.090 221.694 C 161.976 221.612,159.137 221.698,158.986 222.094 M379.481 221.853 C 379.342 221.991,379.492 222.481,379.814 222.942 C 380.766 224.300,380.691 332.860,379.738 333.651 C 378.839 334.398,31.859 334.313,30.959 333.566 C 30.491 333.177,30.394 328.429,30.360 304.251 C 30.325 278.749,30.255 275.609,29.755 277.200 C 29.285 278.694,29.206 283.655,29.294 306.335 L 29.400 333.671 30.400 334.481 C 31.275 335.191,31.699 335.252,33.800 334.971 C 35.120 334.795,39.035 334.672,42.500 334.697 C 45.965 334.722,50.330 334.743,52.200 334.743 C 54.070 334.743,58.480 334.747,62.000 334.751 C 65.520 334.756,69.840 334.761,71.600 334.762 C 73.360 334.763,77.095 334.770,79.900 334.778 C 82.705 334.785,89.410 334.790,94.800 334.788 C 118.284 334.781,208.465 334.780,217.200 334.787 C 226.922 334.794,241.148 334.774,247.000 334.745 C 248.760 334.737,253.035 334.732,256.500 334.736 C 259.965 334.740,264.330 334.743,266.200 334.744 C 268.070 334.744,272.255 334.759,275.500 334.778 C 278.745 334.796,303.500 334.902,330.512 335.012 L 379.624 335.212 380.612 334.224 L 381.600 333.236 381.595 278.318 C 381.592 248.113,381.481 222.995,381.348 222.500 C 381.122 221.658,380.048 221.285,379.481 221.853 M308.805 232.594 C 308.531 232.924,308.428 240.885,308.497 256.445 L 308.600 279.800 331.504 279.903 L 354.408 280.007 354.304 261.703 L 354.200 243.400 331.708 237.749 C 314.212 233.354,309.125 232.209,308.805 232.594 M308.892 289.933 C 308.501 290.182,308.409 292.279,308.492 299.029 L 308.600 307.800 331.508 307.903 L 354.415 308.007 354.308 298.903 L 354.200 289.800 331.800 289.704 C 319.480 289.652,309.171 289.754,308.892 289.933 " stroke="none" fill="#c0bc90" fill-rule="evenodd"></path><path id="path8" d="M42.160 64.565 C 40.534 65.281,40.400 65.733,40.400 70.479 L 40.400 74.492 41.990 75.946 L 43.581 77.400 43.714 84.400 L 43.848 91.400 43.824 83.725 L 43.800 76.051 42.600 74.799 C 40.932 73.059,40.764 67.245,42.344 65.965 C 43.847 64.747,78.380 64.780,79.600 66.000 C 81.037 67.437,80.769 73.335,79.200 74.800 C 78.540 75.417,78.000 76.278,78.000 76.714 C 78.000 77.386,78.260 77.269,79.700 75.954 L 81.400 74.400 81.400 70.211 C 81.400 66.386,81.321 65.943,80.489 65.111 L 79.578 64.200 61.489 64.109 C 46.923 64.036,43.158 64.125,42.160 64.565 M26.900 93.899 C 29.705 93.968,34.295 93.968,37.100 93.899 C 39.905 93.830,37.610 93.774,32.000 93.774 C 26.390 93.774,24.095 93.830,26.900 93.899 M132.332 93.900 C 161.445 93.957,208.965 93.957,237.932 93.900 C 266.899 93.843,243.080 93.797,185.000 93.797 C 126.920 93.797,103.219 93.843,132.332 93.900 M22.000 109.600 C 22.618 110.218,22.800 110.933,22.800 112.746 C 22.800 116.439,25.427 118.470,28.813 117.396 C 30.068 116.998,29.058 116.414,27.100 116.406 C 24.871 116.397,24.000 115.328,24.000 112.600 C 24.000 110.312,23.124 108.800,21.800 108.800 C 21.333 108.800,21.378 108.978,22.000 109.600 M289.300 109.212 C 288.505 109.532,288.400 109.858,288.400 112.005 C 288.400 114.942,287.316 116.396,285.118 116.406 C 283.328 116.414,282.381 117.013,283.564 117.389 C 287.210 118.546,289.563 116.176,289.590 111.320 C 289.597 110.149,289.812 109.516,290.300 109.232 C 291.159 108.732,290.527 108.719,289.300 109.212 M283.495 182.663 C 281.315 183.275,284.176 183.600,291.735 183.600 C 301.218 183.600,301.764 183.735,302.226 186.197 C 302.618 188.286,302.808 188.331,311.844 188.470 C 321.205 188.614,321.312 188.643,322.011 191.243 C 322.537 193.196,322.362 193.160,332.059 193.292 C 340.727 193.411,341.265 193.563,341.810 196.046 C 342.316 198.351,342.515 198.400,351.340 198.400 C 360.470 198.400,360.876 198.511,361.603 201.211 C 362.138 203.198,361.915 203.152,371.736 203.289 C 382.087 203.434,381.200 202.418,381.200 214.124 C 381.200 221.193,381.300 222.860,381.700 222.460 C 382.070 222.090,382.200 219.664,382.200 213.145 L 382.200 204.331 381.078 203.365 C 379.973 202.415,379.830 202.400,372.054 202.400 C 363.324 202.400,363.194 202.366,362.412 199.897 C 361.671 197.558,361.135 197.422,351.801 197.200 L 343.402 197.000 342.892 195.400 C 341.955 192.465,341.736 192.400,332.729 192.400 C 324.123 192.400,323.407 192.253,323.002 190.408 C 322.436 187.831,321.593 187.600,312.746 187.600 C 304.210 187.600,303.200 187.353,303.200 185.270 C 303.200 182.968,301.804 182.605,292.669 182.532 C 288.011 182.495,283.883 182.554,283.495 182.663 " stroke="none" fill="#ccfcbc" fill-rule="evenodd"></path></g></svg>