<svg id="svg" version="1.1" xmlns="http://www.w3.org/2000/svg" xmlns:xlink="http://www.w3.org/1999/xlink" width="400" height="400" viewBox="0, 0, 400,400"><g id="svgg"><path id="path0" d="M54.271 76.263 C 53.934 76.599,53.911 83.302,54.243 84.167 C 54.387 84.544,54.957 84.800,55.650 84.800 L 56.815 84.800 56.708 93.700 L 56.600 102.600 45.200 102.800 L 33.800 103.000 33.800 109.000 L 33.800 115.000 35.800 115.200 L 37.800 115.400 38.000 118.800 L 38.200 122.200 41.200 122.448 C 45.245 122.782,271.139 122.870,276.538 122.539 L 280.800 122.278 280.800 118.760 L 280.800 115.242 282.900 115.121 L 285.000 115.000 285.000 109.000 L 285.000 103.000 186.000 102.800 L 87.000 102.600 86.892 93.700 L 86.785 84.800 87.743 84.800 C 89.347 84.800,89.641 83.994,89.516 79.940 L 89.400 76.200 71.971 76.096 C 62.385 76.039,54.420 76.114,54.271 76.263 M126.586 163.695 C 126.479 163.973,126.439 174.910,126.496 188.000 L 126.600 211.800 141.200 211.800 L 155.800 211.800 155.800 187.600 L 155.800 163.400 141.289 163.295 C 129.895 163.213,126.737 163.298,126.586 163.695 M159.386 163.695 C 159.279 163.973,159.239 174.910,159.296 188.000 L 159.400 211.800 174.000 211.800 L 188.600 211.800 188.600 187.600 L 188.600 163.400 174.089 163.295 C 162.695 163.213,159.537 163.298,159.386 163.695 M275.474 185.059 C 275.323 185.210,275.200 188.071,275.200 191.418 C 275.200 197.978,275.244 198.120,277.400 198.525 C 278.060 198.649,279.365 198.942,280.300 199.175 C 281.235 199.409,282.720 199.780,283.600 200.000 C 284.480 200.220,285.920 200.580,286.800 200.800 C 287.680 201.020,289.075 201.372,289.900 201.582 C 290.725 201.792,292.165 202.152,293.100 202.382 C 294.035 202.612,295.565 202.988,296.500 203.218 C 298.664 203.751,300.990 204.332,302.900 204.818 C 303.725 205.028,305.075 205.372,305.900 205.582 C 306.725 205.792,308.210 206.160,309.200 206.400 C 310.190 206.640,311.630 207.000,312.400 207.200 C 313.170 207.400,314.565 207.752,315.500 207.982 C 316.435 208.212,317.875 208.572,318.700 208.782 C 319.525 208.992,321.010 209.360,322.000 209.600 C 322.990 209.840,324.475 210.208,325.300 210.418 C 326.125 210.628,327.565 210.988,328.500 211.218 C 330.664 211.751,332.990 212.332,334.900 212.818 C 336.389 213.197,338.222 213.657,341.100 214.373 C 341.925 214.579,343.320 214.941,344.200 215.179 C 345.080 215.417,346.610 215.798,347.600 216.025 C 349.985 216.574,351.063 216.842,358.600 218.764 C 362.120 219.661,365.225 220.396,365.500 220.398 C 365.885 220.399,366.000 218.416,366.000 211.808 L 366.000 203.215 357.100 203.108 L 348.200 203.000 348.000 200.800 L 347.800 198.600 338.922 198.492 L 330.043 198.385 329.922 196.492 L 329.800 194.600 321.000 194.400 L 312.200 194.200 312.000 192.000 L 311.800 189.800 302.720 189.693 L 293.639 189.585 293.520 187.293 L 293.400 185.000 284.574 184.893 C 279.720 184.833,275.625 184.908,275.474 185.059 M192.572 211.186 C 191.540 211.603,190.400 213.297,190.400 214.412 C 190.400 217.411,193.951 219.431,196.313 217.776 C 200.225 215.036,197.017 209.387,192.572 211.186 M126.672 217.862 C 126.211 218.323,126.349 264.757,126.814 265.626 C 127.355 266.636,154.725 266.854,155.554 265.855 C 155.882 265.460,155.978 258.768,155.903 241.555 L 155.800 217.800 141.372 217.695 C 133.436 217.637,126.821 217.712,126.672 217.862 M159.472 217.862 C 158.950 218.383,159.154 265.394,159.680 265.920 C 160.424 266.664,187.734 266.602,188.354 265.855 C 188.682 265.460,188.778 258.768,188.703 241.555 L 188.600 217.800 174.172 217.695 C 166.236 217.637,159.621 217.712,159.472 217.862 M297.297 251.100 L 297.400 275.800 320.800 275.800 L 344.200 275.800 344.304 256.892 L 344.408 237.983 343.504 237.640 C 343.007 237.451,337.740 236.100,331.800 234.637 C 325.860 233.174,320.325 231.802,319.500 231.588 C 318.675 231.375,317.280 231.020,316.400 230.800 C 315.520 230.580,314.035 230.205,313.100 229.967 C 312.165 229.729,310.725 229.369,309.900 229.167 C 308.383 228.796,306.600 228.352,303.500 227.573 C 302.565 227.338,301.247 226.978,300.572 226.773 C 299.896 226.568,298.860 226.400,298.269 226.400 L 297.194 226.400 297.297 251.100 M297.293 290.700 L 297.400 301.400 320.800 301.400 L 344.200 301.400 344.307 290.700 L 344.413 280.000 320.800 280.000 L 297.187 280.000 297.293 290.700 " stroke="none" fill="#f6a579" fill-rule="evenodd"></path><path id="path1" d="M43.649 123.341 C 43.317 123.741,43.225 150.138,43.299 223.562 L 43.400 323.239 204.133 323.394 C 292.537 323.479,365.122 323.451,365.433 323.332 C 365.919 323.146,365.986 315.771,365.902 271.857 L 365.805 220.600 365.602 271.800 L 365.400 323.000 321.200 323.110 C 296.890 323.170,276.595 323.122,276.100 323.002 L 275.200 322.785 275.200 299.392 L 275.200 276.000 269.203 276.000 L 263.206 276.000 263.103 299.500 L 263.000 323.000 260.703 323.120 L 258.406 323.240 258.303 299.720 L 258.200 276.200 251.800 276.200 L 245.400 276.200 245.200 299.600 L 245.000 323.000 242.800 323.000 L 240.600 323.000 240.400 299.600 L 240.200 276.200 232.103 276.092 L 224.006 275.983 223.903 299.492 L 223.800 323.000 215.600 323.000 L 207.400 323.000 207.297 292.724 L 207.195 262.448 205.697 262.324 L 204.200 262.200 204.200 258.800 L 204.200 255.400 215.500 255.294 L 226.800 255.188 226.800 258.794 L 226.800 262.400 225.386 262.400 L 223.973 262.400 224.086 266.700 L 224.200 271.000 249.600 271.000 L 275.000 271.000 275.000 197.000 L 275.000 123.000 159.550 122.899 C 62.750 122.815,44.026 122.886,43.649 123.341 M200.026 153.614 C 200.985 154.127,201.276 274.564,200.320 275.520 C 199.953 275.887,190.258 276.000,159.120 276.000 L 118.400 276.000 118.400 214.867 C 118.400 181.243,118.520 153.613,118.667 153.467 C 119.127 153.006,199.161 153.151,200.026 153.614 M114.400 258.775 L 114.400 262.349 113.100 262.475 L 111.800 262.600 111.600 292.800 L 111.400 323.000 103.200 323.000 L 95.000 323.000 94.897 299.500 L 94.794 276.000 89.397 276.000 L 84.000 276.000 84.000 299.620 L 84.000 323.240 81.700 323.120 L 79.400 323.000 79.297 299.500 L 79.194 276.000 72.800 276.000 L 66.406 276.000 66.303 299.500 L 66.200 323.000 63.800 323.000 L 61.400 323.000 61.297 299.500 L 61.194 276.000 54.797 276.000 L 48.400 276.000 48.383 280.500 C 48.374 282.975,48.329 293.550,48.283 304.000 L 48.200 323.000 46.000 323.000 L 43.800 323.000 43.697 297.100 L 43.594 271.200 68.564 271.200 C 82.298 271.200,93.819 271.091,94.167 270.957 C 94.688 270.757,94.800 269.979,94.800 266.557 L 94.800 262.400 93.400 262.400 L 92.000 262.400 92.000 258.800 L 92.000 255.200 103.200 255.200 L 114.400 255.200 114.400 258.775 M200.714 289.942 C 200.789 292.652,200.669 294.276,200.365 294.642 C 199.974 295.113,193.537 295.200,159.151 295.200 L 118.400 295.200 118.400 290.398 L 118.400 285.596 159.500 285.698 L 200.600 285.800 200.714 289.942 M200.714 309.142 C 200.789 311.852,200.669 313.476,200.365 313.842 C 199.974 314.313,193.537 314.400,159.151 314.400 L 118.400 314.400 118.400 309.598 L 118.400 304.796 159.500 304.898 L 200.600 305.000 200.714 309.142 " stroke="none" fill="#6ccaeb" fill-rule="evenodd"></path><path id="path2" d="M0.000 200.000 L 0.000 400.000 200.000 400.000 L 400.000 400.000 400.000 200.000 L 400.000 0.000 200.000 0.000 L 0.000 0.000 0.000 200.000 M88.967 75.843 C 89.490 76.044,89.600 76.836,89.600 80.416 L 89.600 84.747 88.500 84.873 L 87.400 85.000 87.400 93.600 L 87.400 102.200 186.510 102.301 L 285.619 102.402 285.510 109.101 L 285.400 115.800 283.200 116.000 L 281.000 116.200 280.884 119.500 L 280.768 122.800 277.884 122.800 L 275.000 122.800 275.105 153.800 L 275.210 184.800 284.405 184.800 L 293.600 184.800 293.600 187.000 L 293.600 189.200 301.900 189.205 C 312.280 189.212,311.929 189.125,312.081 191.742 L 312.200 193.800 320.769 193.908 C 330.230 194.028,330.298 194.046,330.479 196.531 L 330.600 198.200 339.400 198.400 L 348.200 198.600 348.321 200.700 L 348.442 202.800 356.521 202.805 C 360.964 202.808,364.962 202.908,365.405 203.027 C 366.354 203.282,366.421 322.680,365.473 323.275 C 365.232 323.426,292.667 323.480,204.217 323.394 L 43.400 323.239 43.299 223.561 C 43.227 152.174,43.322 123.735,43.634 123.359 C 43.985 122.936,43.466 122.812,40.934 122.717 L 37.800 122.600 37.684 119.300 L 37.568 116.000 35.584 116.000 L 33.600 116.000 33.600 109.200 L 33.600 102.400 44.808 102.400 L 56.016 102.400 55.908 93.705 C 55.804 85.371,55.767 85.004,55.000 84.859 C 53.396 84.555,52.790 76.912,54.300 76.032 C 55.057 75.591,87.845 75.412,88.967 75.843 M138.900 153.500 C 150.065 153.559,168.335 153.559,179.500 153.500 C 190.665 153.441,181.530 153.393,159.200 153.393 C 136.870 153.393,127.735 153.441,138.900 153.500 M200.595 214.600 C 200.595 248.040,200.642 261.661,200.700 244.869 C 200.758 228.076,200.758 200.716,200.700 184.069 C 200.642 167.421,200.595 181.160,200.595 214.600 " stroke="none" fill="#dbfbfb" fill-rule="evenodd"></path><path id="path3" d="M274.960 191.400 C 274.961 194.700,275.022 195.997,275.098 194.282 C 275.173 192.567,275.172 189.867,275.097 188.282 C 275.021 186.697,274.959 188.100,274.960 191.400 M275.102 234.253 L 275.000 271.000 249.600 271.000 L 224.200 271.000 224.086 266.700 L 223.973 262.400 225.386 262.400 L 226.800 262.400 226.800 258.794 L 226.800 255.188 215.500 255.294 L 204.200 255.400 204.200 258.800 L 204.200 262.200 205.697 262.324 L 207.195 262.448 207.297 292.724 L 207.400 323.000 215.600 323.000 L 223.800 323.000 223.903 299.492 L 224.006 275.983 232.103 276.092 L 240.200 276.200 240.400 299.600 L 240.600 323.000 242.800 323.000 L 245.000 323.000 245.200 299.600 L 245.400 276.200 251.800 276.200 L 258.200 276.200 258.303 299.720 L 258.406 323.240 260.703 323.120 L 263.000 323.000 263.103 299.500 L 263.206 276.000 269.203 276.000 L 275.200 276.000 275.200 299.392 L 275.200 322.785 276.100 323.002 C 276.595 323.122,296.890 323.170,321.200 323.110 L 365.400 323.000 365.502 271.765 L 365.603 220.530 359.502 219.034 C 356.146 218.211,352.860 217.384,352.200 217.196 C 350.412 216.687,344.531 215.190,341.000 214.346 C 340.120 214.136,338.725 213.792,337.900 213.582 C 337.075 213.372,335.635 213.012,334.700 212.782 C 332.536 212.249,330.210 211.668,328.300 211.182 C 327.475 210.972,326.125 210.628,325.300 210.418 C 324.475 210.208,322.990 209.840,322.000 209.600 C 320.022 209.120,317.807 208.569,315.500 207.982 C 314.675 207.772,313.325 207.428,312.500 207.218 C 311.675 207.008,310.190 206.640,309.200 206.400 C 308.210 206.160,306.725 205.792,305.900 205.582 C 305.075 205.372,303.635 205.012,302.700 204.782 C 301.765 204.552,300.325 204.192,299.500 203.982 C 298.675 203.772,297.280 203.420,296.400 203.200 C 295.520 202.980,294.080 202.620,293.200 202.400 C 292.320 202.180,290.925 201.828,290.100 201.618 C 288.190 201.132,285.864 200.551,283.700 200.018 C 282.765 199.788,281.235 199.409,280.300 199.175 C 279.365 198.942,278.060 198.649,277.400 198.525 C 276.740 198.401,275.976 198.121,275.702 197.903 C 275.306 197.587,275.183 205.003,275.102 234.253 M300.572 226.773 C 301.247 226.978,302.565 227.338,303.500 227.573 C 306.600 228.352,308.383 228.796,309.900 229.167 C 310.725 229.369,312.165 229.729,313.100 229.967 C 314.035 230.205,315.520 230.580,316.400 230.800 C 317.280 231.020,318.675 231.375,319.500 231.588 C 320.325 231.802,325.860 233.174,331.800 234.637 C 337.740 236.100,343.007 237.451,343.504 237.640 L 344.408 237.983 344.304 256.892 L 344.200 275.800 320.800 275.800 L 297.400 275.800 297.297 251.100 L 297.194 226.400 298.269 226.400 C 298.860 226.400,299.896 226.568,300.572 226.773 M92.000 258.800 L 92.000 262.400 93.400 262.400 L 94.800 262.400 94.800 266.557 C 94.800 269.979,94.688 270.757,94.167 270.957 C 93.819 271.091,82.298 271.200,68.564 271.200 L 43.594 271.200 43.697 297.100 L 43.800 323.000 46.000 323.000 L 48.200 323.000 48.283 304.000 C 48.329 293.550,48.374 282.975,48.383 280.500 L 48.400 276.000 54.797 276.000 L 61.194 276.000 61.297 299.500 L 61.400 323.000 63.800 323.000 L 66.200 323.000 66.303 299.500 L 66.406 276.000 72.800 276.000 L 79.194 276.000 79.297 299.500 L 79.400 323.000 81.700 323.120 L 84.000 323.240 84.000 299.620 L 84.000 276.000 89.397 276.000 L 94.794 276.000 94.897 299.500 L 95.000 323.000 103.200 323.000 L 111.400 323.000 111.600 292.800 L 111.800 262.600 113.100 262.475 L 114.400 262.349 114.400 258.775 L 114.400 255.200 103.200 255.200 L 92.000 255.200 92.000 258.800 M344.307 290.700 L 344.200 301.400 320.800 301.400 L 297.400 301.400 297.293 290.700 L 297.187 280.000 320.800 280.000 L 344.413 280.000 344.307 290.700 M118.400 290.398 L 118.400 295.200 159.151 295.200 C 193.537 295.200,199.974 295.113,200.365 294.642 C 200.669 294.276,200.789 292.652,200.714 289.942 L 200.600 285.800 159.500 285.698 L 118.400 285.596 118.400 290.398 M118.400 309.598 L 118.400 314.400 159.151 314.400 C 193.537 314.400,199.974 314.313,200.365 313.842 C 200.669 313.476,200.789 311.852,200.714 309.142 L 200.600 305.000 159.500 304.898 L 118.400 304.796 118.400 309.598 " stroke="none" fill="#6c9cdb" fill-rule="evenodd"></path><path id="path4" d="M63.327 75.900 C 68.127 75.964,75.867 75.963,80.527 75.899 C 85.187 75.836,81.260 75.783,71.800 75.783 C 62.340 75.783,58.527 75.836,63.327 75.900 M53.867 76.267 C 53.504 76.630,53.539 83.684,53.906 84.263 C 54.068 84.518,54.200 82.763,54.200 80.364 C 54.200 77.964,54.185 76.001,54.167 76.001 C 54.148 76.000,54.013 76.120,53.867 76.267 M55.915 93.600 L 56.030 102.400 44.815 102.400 C 38.647 102.400,33.600 102.535,33.600 102.700 C 33.599 102.865,38.774 102.910,45.100 102.800 L 56.600 102.600 56.708 93.700 C 56.792 86.719,56.706 84.800,56.308 84.800 C 55.909 84.799,55.825 86.695,55.915 93.600 M86.892 93.700 L 87.000 102.600 186.000 102.800 L 285.000 103.000 285.000 109.000 L 285.000 115.000 282.900 115.121 C 281.591 115.196,280.800 115.424,280.800 115.726 C 280.800 116.072,281.455 116.151,283.100 116.005 L 285.400 115.800 285.510 109.101 L 285.619 102.402 186.510 102.301 L 87.400 102.200 87.400 93.500 C 87.400 88.715,87.262 84.800,87.092 84.800 C 86.923 84.800,86.833 88.805,86.892 93.700 M33.600 115.489 C 33.600 115.835,34.240 116.000,35.584 116.000 L 37.568 116.000 37.684 119.300 L 37.800 122.600 40.800 122.639 L 43.800 122.678 41.000 122.439 L 38.200 122.200 38.000 118.800 L 37.800 115.400 35.700 115.189 C 34.152 115.033,33.600 115.112,33.600 115.489 M276.500 122.691 C 277.325 122.778,278.675 122.778,279.500 122.691 C 280.325 122.605,279.650 122.534,278.000 122.534 C 276.350 122.534,275.675 122.605,276.500 122.691 M118.499 214.700 L 118.600 275.800 159.400 275.800 L 200.200 275.800 200.301 214.700 L 200.403 153.600 159.400 153.600 L 118.397 153.600 118.499 214.700 M155.800 187.600 L 155.800 211.800 141.200 211.800 L 126.600 211.800 126.496 188.000 C 126.439 174.910,126.479 163.973,126.586 163.695 C 126.737 163.298,129.895 163.213,141.289 163.295 L 155.800 163.400 155.800 187.600 M188.600 187.600 L 188.600 211.800 174.000 211.800 L 159.400 211.800 159.296 188.000 C 159.239 174.910,159.279 163.973,159.386 163.695 C 159.537 163.298,162.695 163.213,174.089 163.295 L 188.600 163.400 188.600 187.600 M297.678 189.498 C 300.031 189.569,303.991 189.569,306.478 189.499 C 308.965 189.429,307.040 189.371,302.200 189.370 C 297.360 189.370,295.325 189.428,297.678 189.498 M312.331 194.092 C 312.492 194.252,316.488 194.432,321.212 194.492 L 329.800 194.600 329.922 196.500 C 329.989 197.545,330.170 198.400,330.325 198.400 C 330.792 198.400,330.358 194.863,329.839 194.432 C 329.287 193.974,311.874 193.636,312.331 194.092 M347.998 200.737 L 348.200 203.000 356.700 203.012 L 365.201 203.024 356.800 202.904 L 348.400 202.784 348.400 200.816 C 348.400 199.733,348.264 198.763,348.098 198.661 C 347.932 198.558,347.887 199.493,347.998 200.737 M365.915 212.000 C 365.852 216.841,365.935 220.801,366.100 220.800 C 366.265 220.800,366.400 216.840,366.400 212.000 C 366.400 207.160,366.317 203.200,366.215 203.200 C 366.113 203.200,365.978 207.160,365.915 212.000 M196.353 211.452 C 197.889 212.528,198.543 214.563,197.810 215.981 C 196.187 219.119,192.418 219.198,190.847 216.126 C 189.149 212.805,193.279 209.299,196.353 211.452 M155.903 241.555 C 155.978 258.768,155.882 265.460,155.554 265.855 C 154.725 266.854,127.355 266.636,126.814 265.626 C 126.349 264.757,126.211 218.323,126.672 217.862 C 126.821 217.712,133.436 217.637,141.372 217.695 L 155.800 217.800 155.903 241.555 M188.703 241.555 C 188.778 258.768,188.682 265.460,188.354 265.855 C 187.734 266.602,160.424 266.664,159.680 265.920 C 159.154 265.394,158.950 218.383,159.472 217.862 C 159.621 217.712,166.236 217.637,174.172 217.695 L 188.600 217.800 188.703 241.555 " stroke="none" fill="#f0f7b8" fill-rule="evenodd"></path></g></svg>